<svg width="106" height="40" viewBox="0 0 106 40" fill="none" xmlns="http://www.w3.org/2000/svg">
<path d="M101.638 37.2262H100.951V36.8867H102.681V37.2262H101.994V39.4532H101.638V37.2262ZM103.178 36.8867H103.567L104.312 38.2113L105.058 36.8867H105.438V39.4532H105.091V37.4911L104.329 38.8571H104.287L103.526 37.4911V39.4532H103.178L103.178 36.8867Z" fill="#EE2E24"/>
<path d="M99.7923 0H0V40H99.7923V0Z" fill="white"/>
<path d="M99.226 0.566406H0.566406V32.9547H99.226V0.566406Z" fill="#EE2E24"/>
<path d="M99.226 34.5742H0.566406V39.4327H99.226V34.5742Z" fill="#F99B2A"/>
<path d="M21.2933 11.9485H24.3967V24.006H21.2933V11.9485ZM29.8052 18.143C31.0323 18.143 31.9084 17.539 31.9084 16.2862C31.9084 15.0592 31.0843 14.5071 29.8244 14.5071H28.9352V18.143H29.8052ZM51.2968 21.2591H55.4717V24.006H48.1479V11.9485H51.2968V21.2591ZM56.4784 11.9485H64.4058V14.6889H59.5818V16.6885H64.1918V19.2207H59.5818V21.2591H64.4189V24.006H56.4784V11.9485ZM83.3327 17.7465L87.6118 11.9485H83.2163L79.2552 17.4999V11.9485H75.4111V24.006H79.2551V18.4546L86.0924 27.272C84.319 28.3584 82.2763 28.9254 80.1966 28.9085C78.7527 28.9374 77.3179 28.6743 75.9782 28.135C74.6385 27.5958 73.4215 26.7914 72.4004 25.7702C71.3792 24.7491 70.5748 23.5321 70.0356 22.1924C69.4963 20.8527 69.2333 19.4178 69.2622 17.974C69.269 15.0785 70.4239 12.3039 72.4737 10.2589C74.5235 8.21391 77.3008 7.06543 80.1963 7.06543C83.0917 7.06543 85.869 8.21391 87.9188 10.2589C89.9686 12.3039 91.1235 15.0785 91.1303 17.974C91.1509 20.4176 90.361 22.7992 88.8841 24.7461L83.3327 17.7465ZM34.9865 15.9352C35.0112 16.6726 34.8107 17.4001 34.4117 18.0207C34.0127 18.6413 33.4341 19.1256 32.753 19.4092L35.8245 24.006H32.162L28.9352 18.9545V24.006H25.8319V11.9485H29.708C33.0972 11.9485 34.9865 13.2863 34.9865 15.9352ZM15.0664 14.585C14.6264 14.5837 14.1907 14.6714 13.7854 14.8428C13.3801 15.0141 13.0137 15.2656 12.708 15.5821C12.4024 15.8987 12.1639 16.2737 12.0068 16.6847C11.8497 17.0957 11.7773 17.5343 11.794 17.974C11.7768 18.4138 11.8488 18.8526 12.0056 19.2639C12.1625 19.6753 12.401 20.0506 12.7067 20.3673C13.0125 20.684 13.3792 20.9355 13.7847 21.1067C14.1902 21.278 14.6262 21.3653 15.0664 21.3636C15.6593 21.3612 16.2415 21.205 16.7559 20.9102C17.2703 20.6155 17.6994 20.1922 18.0013 19.6819L20.3969 21.2468C19.8351 22.1701 19.0415 22.9302 18.0949 23.4518C17.1484 23.9734 16.0818 24.2382 15.0012 24.2201C14.1736 24.2323 13.3518 24.0799 12.5836 23.7717C11.8154 23.4635 11.1162 23.0056 10.5266 22.4246C9.93699 21.8437 9.46878 21.1513 9.1492 20.3878C8.82962 19.6243 8.66504 18.8048 8.66504 17.9771C8.66504 17.1494 8.82962 16.3299 9.1492 15.5664C9.46878 14.8029 9.93699 14.1105 10.5266 13.5296C11.1162 12.9487 11.8154 12.4908 12.5836 12.1825C13.3518 11.8743 14.1736 11.7219 15.0012 11.7341C16.0862 11.7039 17.1599 11.9614 18.1133 12.4803C19.0666 12.9993 19.8657 13.7613 20.4293 14.6889L17.9745 16.2992C17.6876 15.7792 17.2664 15.3458 16.7548 15.0442C16.2432 14.7427 15.6603 14.5841 15.0664 14.585ZM42.0059 14.585C41.5659 14.5837 41.1301 14.6713 40.7248 14.8426C40.3195 15.014 39.953 15.2654 39.6473 15.582C39.3416 15.8985 39.103 16.2736 38.9459 16.6846C38.7889 17.0957 38.7165 17.5342 38.7331 17.974C38.7159 18.4139 38.7879 18.8527 38.9448 19.264C39.1017 19.6754 39.3402 20.0507 39.646 20.3674C39.9518 20.6841 40.3185 20.9356 40.7241 21.1068C41.1297 21.2781 41.5657 21.3654 42.0059 21.3636C42.5988 21.3612 43.1808 21.205 43.6952 20.9102C44.2095 20.6154 44.6386 20.1922 44.9403 19.6819L47.3364 21.2468C46.6182 22.3894 45.5473 23.2669 44.2859 23.7465C43.0244 24.2261 41.641 24.2817 40.3451 23.9049C39.0492 23.528 37.9114 22.7392 37.1039 21.6579C36.2963 20.5766 35.863 19.2617 35.8696 17.9121C35.8761 16.5626 36.3222 15.2519 37.1402 14.1785C37.9582 13.1051 39.1036 12.3274 40.4031 11.9631C41.7026 11.5989 43.0853 11.6679 44.3421 12.1597C45.5989 12.6515 46.6612 13.5394 47.3683 14.6889L44.9142 16.2992C44.6273 15.7792 44.2061 15.3459 43.6945 15.0443C43.1829 14.7428 42.5998 14.5842 42.0059 14.585Z" fill="white"/>
</svg>
