<svg width="24" height="24" viewBox="0 0 24 24" fill="none" xmlns="http://www.w3.org/2000/svg">
<path fill-rule="evenodd" clip-rule="evenodd" d="M2 2C1.44772 2 1 2.44772 1 3C1 3.55228 1.44772 4 2 4H4.30673C4.53956 4 4.74157 4.1607 4.79393 4.38757L7.25729 15.0621C7.51906 16.1965 8.52913 17 9.69327 17H17.8288C18.976 17 19.976 16.2193 20.2542 15.1063L22.0042 8.10634C22.3987 6.52847 21.2053 5 19.5788 5H6.98782L6.74271 3.93785C6.48094 2.80352 5.47087 2 4.30673 2H2ZM12.6273 14.5532C12.8244 14.767 13.0905 14.8848 13.3667 14.8848L13.3863 14.8848C13.6724 14.8848 13.9485 14.7462 14.1357 14.5215L18.7692 9.04778C19.1635 8.58853 19.1339 7.87191 18.7099 7.45516C18.2863 7.02755 17.6255 7.0597 17.2411 7.51947L13.337 12.1375L11.4639 10.1064C11.06 9.66792 10.3995 9.66792 9.99516 10.1064C9.59081 10.5444 9.59081 11.2605 9.99516 11.699L12.6273 14.5532Z" fill="black"/>
<path d="M9.7002 22C8.59563 22 7.7002 21.1046 7.7002 20C7.7002 18.8954 8.59563 18 9.7002 18C10.8048 18 11.7002 18.8954 11.7002 20C11.7002 21.1046 10.8048 22 9.7002 22Z" fill="black"/>
<path d="M17.7002 22C16.5956 22 15.7002 21.1046 15.7002 20C15.7002 18.8954 16.5956 18 17.7002 18C18.8048 18 19.7002 18.8954 19.7002 20C19.7002 21.1046 18.8048 22 17.7002 22Z" fill="black"/>
</svg>
