<svg width="24" height="24" viewBox="0 0 24 24" fill="none" xmlns="http://www.w3.org/2000/svg">
<path d="M15.7054 5.70527C15.3158 5.31569 14.6842 5.3157 14.2946 5.70527C13.9053 6.09454 13.905 6.72557 14.2938 7.11527L18.17 10.9999L3 10.9999C2.44771 10.9999 2 11.4476 2 11.9999C2 12.5522 2.44771 12.9999 3 12.9999L18.17 12.9999L14.29 16.8799C13.8983 17.2716 13.8994 17.907 14.2925 18.2974C14.6836 18.6858 15.3152 18.6846 15.705 18.2949L21.2929 12.707C21.6834 12.3165 21.6834 11.6833 21.2929 11.2928L15.7054 5.70527Z" fill="black"/>
<path d="M15.7054 5.70527C15.3158 5.31569 14.6842 5.3157 14.2946 5.70527C13.9053 6.09454 13.905 6.72557 14.2938 7.11527L18.17 10.9999L3 10.9999C2.44771 10.9999 2 11.4476 2 11.9999C2 12.5522 2.44771 12.9999 3 12.9999L18.17 12.9999L14.29 16.8799C13.8983 17.2716 13.8994 17.907 14.2925 18.2974C14.6836 18.6858 15.3152 18.6846 15.705 18.2949L21.2929 12.707C21.6834 12.3165 21.6834 11.6833 21.2929 11.2928L15.7054 5.70527Z" fill="black"/>
</svg>
