<svg width="24" height="24" viewBox="0 0 24 24" fill="none" xmlns="http://www.w3.org/2000/svg">
<path d="M8.00023 16.1702L4.53485 12.7048C4.1453 12.3152 3.51367 12.3145 3.12274 12.7027C2.72986 13.0928 2.72834 13.7283 3.11984 14.1198L7.29313 18.2931C7.68365 18.6836 8.31682 18.6836 8.70734 18.2931L19.2951 7.70535C19.6845 7.3159 19.6845 6.68447 19.2951 6.29502C18.9057 5.9057 18.2746 5.90555 17.8851 6.29469L8.00023 16.1702Z" fill="black"/>
<path d="M8.00023 16.1702L4.53485 12.7048C4.1453 12.3152 3.51367 12.3145 3.12274 12.7027C2.72986 13.0928 2.72834 13.7283 3.11984 14.1198L7.29313 18.2931C7.68365 18.6836 8.31682 18.6836 8.70734 18.2931L19.2951 7.70535C19.6845 7.3159 19.6845 6.68447 19.2951 6.29502C18.9057 5.9057 18.2746 5.90555 17.8851 6.29469L8.00023 16.1702Z" fill="black"/>
<path d="M8.00023 16.1702L4.53485 12.7048C4.1453 12.3152 3.51367 12.3145 3.12274 12.7027C2.72986 13.0928 2.72834 13.7283 3.11984 14.1198L7.29313 18.2931C7.68365 18.6836 8.31682 18.6836 8.70734 18.2931L19.2951 7.70535C19.6845 7.3159 19.6845 6.68447 19.2951 6.29502C18.9057 5.9057 18.2746 5.90555 17.8851 6.29469L8.00023 16.1702Z" fill="black"/>
<path d="M8.00023 16.1702L4.53485 12.7048C4.1453 12.3152 3.51367 12.3145 3.12274 12.7027C2.72986 13.0928 2.72834 13.7283 3.11984 14.1198L7.29313 18.2931C7.68365 18.6836 8.31682 18.6836 8.70734 18.2931L19.2951 7.70535C19.6845 7.3159 19.6845 6.68447 19.2951 6.29502C18.9057 5.9057 18.2746 5.90555 17.8851 6.29469L8.00023 16.1702Z" fill="black"/>
</svg>
