<svg viewBox="0 0 24 24" fill="none" xmlns="http://www.w3.org/2000/svg">
<path fill-rule="evenodd" clip-rule="evenodd" d="M20 4H14.8C14.4 2.8 13.3 2 12 2C10.7 2 9.6 2.8 9.2 4H4C3.4 4 3 4.4 3 5C3 5.6 3.4 6 4 6H9.2C9.6 7.2 10.7 8 12 8C13.3 8 14.4 7.2 14.8 6H20C20.6 6 21 5.6 21 5C21 4.4 20.6 4 20 4ZM12 6C11.4 6 11 5.6 11 5C11 4.4 11.4 4 12 4C12.6 4 13 4.4 13 5C13 5.6 12.6 6 12 6Z"/>
<path fill-rule="evenodd" clip-rule="evenodd" d="M7.24142 7.83273C7.03489 7.32899 6.54443 7 6 7C5.45557 7 4.96511 7.32899 4.75858 7.83273L1 17C1 19.8 3.2 22 6 22C8.8 22 11 19.8 11 17L7.24142 7.83273ZM3 17L6 9L9 17H3Z"/>
<path fill-rule="evenodd" clip-rule="evenodd" d="M16.6455 7.88614C16.8596 7.35094 17.378 7 17.9544 7C18.5264 7 19.0417 7.34566 19.2587 7.87492L23 17C23 19.8 20.8 22 18 22C15.2 22 13 19.8 13 17L16.6455 7.88614ZM18 9L15 17H21L18 9Z"/>
</svg>
