<svg viewBox="0 0 24 24" fill="none" xmlns="http://www.w3.org/2000/svg">
<path d="M13.6 1.8C13.2223 1.29639 12.6295 1 12 1C11.3705 1 10.7777 1.29639 10.4 1.8L9.5 3H4C3.44772 3 3 3.44772 3 4C3 4.55228 3.44772 5 4 5H20C20.5523 5 21 4.55228 21 4C21 3.44772 20.5523 3 20 3H14.5L13.6 1.8Z"/>
<path fill-rule="evenodd" clip-rule="evenodd" d="M8.3278 21C7.0162 21 5.9276 19.9864 5.83415 18.6781L5 7H19L18.1658 18.6781C18.0724 19.9864 16.9838 21 15.6722 21H8.3278ZM8.3278 19C8.06548 19 7.84776 18.7973 7.82907 18.5356L7.14795 9H16.852L16.1709 18.5356C16.1522 18.7973 15.9345 19 15.6722 19H8.3278Z"/>
<path d="M13.6 1.8C13.2223 1.29639 12.6295 1 12 1C11.3705 1 10.7777 1.29639 10.4 1.8L9.5 3H4C3.44772 3 3 3.44772 3 4C3 4.55228 3.44772 5 4 5H20C20.5523 5 21 4.55228 21 4C21 3.44772 20.5523 3 20 3H14.5L13.6 1.8Z"/>
<path fill-rule="evenodd" clip-rule="evenodd" d="M8.3278 21C7.0162 21 5.9276 19.9864 5.83415 18.6781L5 7H19L18.1658 18.6781C18.0724 19.9864 16.9838 21 15.6722 21H8.3278ZM8.3278 19C8.06548 19 7.84776 18.7973 7.82907 18.5356L7.14795 9H16.852L16.1709 18.5356C16.1522 18.7973 15.9345 19 15.6722 19H8.3278Z"/>
</svg>
