<svg width="24" height="24" viewBox="0 0 24 24" fill="none" xmlns="http://www.w3.org/2000/svg">
<path d="M12.4 12C9.7 12 7.4 9.8 7.4 7C7.4 4.2 9.6 2 12.4 2C15.1 2 17.4 4.2 17.4 7C17.4 9.8 15.1 12 12.4 12ZM12.4 4C10.8 4 9.4 5.3 9.4 7C9.4 8.7 10.7 10 12.4 10C14.1 10 15.4 8.7 15.4 7C15.4 5.3 14 4 12.4 4Z" fill="black"/>
<path d="M19.8 22C19.2 22 18.8 21.6 18.8 21C18.8 17.5 15.9 14.6 12.4 14.6C8.9 14.6 6 17.5 6 21C6 21.6 5.6 22 5 22C4.4 22 4 21.6 4 21C4 16.4 7.8 12.6 12.4 12.6C17 12.6 20.8 16.4 20.8 21C20.8 21.6 20.3 22 19.8 22Z" fill="black"/>
</svg>
