<svg viewBox="0 0 24 24" fill="none" xmlns="http://www.w3.org/2000/svg">
<path d="M19.6498 9.4775L14.8098 9.0575L12.9198 4.6075C12.5798 3.7975 11.4198 3.7975 11.0798 4.6075L9.18983 9.0675L4.35983 9.4775C3.47983 9.5475 3.11983 10.6475 3.78983 11.2275L7.45983 14.4075L6.35983 19.1275C6.15983 19.9875 7.08983 20.6675 7.84983 20.2075L11.9998 17.7075L16.1498 20.2175C16.9098 20.6775 17.8398 19.9975 17.6398 19.1375L16.5398 14.4075L20.2098 11.2275C20.8798 10.6475 20.5298 9.5475 19.6498 9.4775ZM11.9998 15.8375L8.23983 18.1075L9.23983 13.8275L5.91983 10.9475L10.2998 10.5675L11.9998 6.5375L13.7098 10.5775L18.0898 10.9575L14.7698 13.8375L15.7698 18.1175L11.9998 15.8375Z"/>
</svg>
