<svg width="24" height="24" viewBox="0 0 24 24" fill="none" xmlns="http://www.w3.org/2000/svg">
<path d="M5.70575 8.29462C5.31618 8.68419 5.31618 9.31581 5.70575 9.70538C6.09503 10.0947 6.72606 10.095 7.11575 9.70615L11.0004 5.83L11.0004 21C11.0004 21.5523 11.4481 22 12.0004 22C12.5527 22 13.0004 21.5523 13.0004 21L13.0004 5.83L16.8804 9.71C17.2721 10.1017 17.9075 10.1006 18.2979 9.70749C18.6862 9.31635 18.6851 8.68476 18.2954 8.295L12.7075 2.70711C12.317 2.31658 11.6838 2.31658 11.2933 2.70711L5.70575 8.29462Z" fill="black"/>
<path d="M5.70575 8.29462C5.31618 8.68419 5.31618 9.31581 5.70575 9.70538C6.09503 10.0947 6.72606 10.095 7.11575 9.70615L11.0004 5.83L11.0004 21C11.0004 21.5523 11.4481 22 12.0004 22C12.5527 22 13.0004 21.5523 13.0004 21L13.0004 5.83L16.8804 9.71C17.2721 10.1017 17.9075 10.1006 18.2979 9.70749C18.6862 9.31635 18.6851 8.68476 18.2954 8.295L12.7075 2.70711C12.317 2.31658 11.6838 2.31658 11.2933 2.70711L5.70575 8.29462Z" fill="black"/>
</svg>
