<svg width="24" height="24" viewBox="0 0 24 24" fill="none" xmlns="http://www.w3.org/2000/svg">
<path d="M19 9C20.654 9 22 7.654 22 6C22 4.346 20.654 3 19 3C17.698 3 16.599 3.838 16.185 5H3C2.44772 5 2 5.44772 2 6C2 6.55228 2.44772 7 3 7H16.185C16.599 8.162 17.698 9 19 9ZM19 5C19.551 5 20 5.448 20 6C20 6.552 19.551 7 19 7C18.449 7 18 6.552 18 6C18 5.448 18.449 5 19 5Z" fill="black"/>
<path d="M9 9C7.698 9 6.599 9.838 6.185 11H3C2.44772 11 2 11.4477 2 12C2 12.5523 2.44772 13 3 13H6.185C6.599 14.162 7.698 15 9 15C10.302 15 11.401 14.162 11.815 13H21C21.5523 13 22 12.5523 22 12C22 11.4477 21.5523 11 21 11H11.815C11.401 9.838 10.302 9 9 9ZM9 13C8.449 13 8 12.552 8 12C8 11.448 8.449 11 9 11C9.551 11 10 11.448 10 12C10 12.552 9.551 13 9 13Z" fill="black"/>
<path d="M19 15C17.698 15 16.599 15.838 16.185 17H3C2.44772 17 2 17.4477 2 18C2 18.5523 2.44772 19 3 19H16.185C16.599 20.162 17.699 21 19 21C20.654 21 22 19.654 22 18C22 16.346 20.654 15 19 15ZM19 19C18.449 19 18 18.552 18 18C18 17.448 18.449 17 19 17C19.551 17 20 17.448 20 18C20 18.552 19.551 19 19 19Z" fill="black"/>
<path d="M19 9C20.654 9 22 7.654 22 6C22 4.346 20.654 3 19 3C17.698 3 16.599 3.838 16.185 5H3C2.44772 5 2 5.44772 2 6C2 6.55228 2.44772 7 3 7H16.185C16.599 8.162 17.698 9 19 9ZM19 5C19.551 5 20 5.448 20 6C20 6.552 19.551 7 19 7C18.449 7 18 6.552 18 6C18 5.448 18.449 5 19 5Z" fill="black"/>
<path d="M9 9C7.698 9 6.599 9.838 6.185 11H3C2.44772 11 2 11.4477 2 12C2 12.5523 2.44772 13 3 13H6.185C6.599 14.162 7.698 15 9 15C10.302 15 11.401 14.162 11.815 13H21C21.5523 13 22 12.5523 22 12C22 11.4477 21.5523 11 21 11H11.815C11.401 9.838 10.302 9 9 9ZM9 13C8.449 13 8 12.552 8 12C8 11.448 8.449 11 9 11C9.551 11 10 11.448 10 12C10 12.552 9.551 13 9 13Z" fill="black"/>
<path d="M19 15C17.698 15 16.599 15.838 16.185 17H3C2.44772 17 2 17.4477 2 18C2 18.5523 2.44772 19 3 19H16.185C16.599 20.162 17.699 21 19 21C20.654 21 22 19.654 22 18C22 16.346 20.654 15 19 15ZM19 19C18.449 19 18 18.552 18 18C18 17.448 18.449 17 19 17C19.551 17 20 17.448 20 18C20 18.552 19.551 19 19 19Z" fill="black"/>
</svg>
