<svg width="24" height="24" viewBox="0 0 24 24" fill="none" xmlns="http://www.w3.org/2000/svg">
<path d="M10.9907 17.1351C11.2648 17.3182 11.587 17.416 11.9167 17.416C12.3587 17.416 12.7826 17.2404 13.0952 16.9278C13.4077 16.6153 13.5833 16.1913 13.5833 15.7493C13.5833 15.4197 13.4856 15.0974 13.3025 14.8234C13.1193 14.5493 12.859 14.3357 12.5545 14.2095C12.2499 14.0834 11.9148 14.0504 11.5915 14.1147C11.2682 14.179 10.9712 14.3377 10.7382 14.5708C10.5051 14.8039 10.3463 15.1009 10.282 15.4242C10.2177 15.7475 10.2507 16.0826 10.3769 16.3871C10.503 16.6917 10.7166 16.952 10.9907 17.1351Z" fill="black"/>
<path fill-rule="evenodd" clip-rule="evenodd" d="M18.1667 9.91598H17.5417V7.62432C17.5413 6.27401 17.0553 4.96887 16.1723 3.94723C15.2894 2.92558 14.0684 2.25559 12.7324 2.05959C11.3964 1.86359 10.0345 2.15466 8.8953 2.87965C7.75612 3.60464 6.9157 4.71518 6.5275 6.00848C6.48827 6.13953 6.47523 6.27702 6.48914 6.41311C6.50304 6.5492 6.54361 6.68121 6.60853 6.80162C6.67346 6.92203 6.76146 7.02847 6.86752 7.11486C6.97358 7.20126 7.09562 7.26592 7.22667 7.30515C7.35771 7.34438 7.49521 7.35742 7.63129 7.34352C7.76738 7.32961 7.8994 7.28904 8.0198 7.22412C8.14021 7.15919 8.24665 7.07119 8.33304 6.96513C8.41944 6.85907 8.4841 6.73703 8.52333 6.60598C8.76808 5.7919 9.29741 5.09297 10.0147 4.63676C10.732 4.18055 11.5894 3.99749 12.4305 4.12099C13.2716 4.2445 14.0402 4.66632 14.596 5.30948C15.1519 5.95264 15.458 6.77424 15.4583 7.62432V9.49932C15.4583 9.60982 15.4144 9.71581 15.3363 9.79395C15.2582 9.87209 15.1522 9.91598 15.0417 9.91598H5.66667C5.22464 9.91598 4.80072 10.0916 4.48816 10.4041C4.17559 10.7167 4 11.1406 4 11.5827V20.3327C4 20.7747 4.17559 21.1986 4.48816 21.5112C4.80072 21.8237 5.22464 21.9993 5.66667 21.9993H18.1667C18.6087 21.9993 19.0326 21.8237 19.3452 21.5112C19.6577 21.1986 19.8333 20.7747 19.8333 20.3327V11.5827C19.8333 11.1406 19.6577 10.7167 19.3452 10.4041C19.0326 10.0916 18.6087 9.91598 18.1667 9.91598ZM6 12.5C6 12.2239 6.22386 12 6.5 12H17.5C17.7761 12 18 12.2239 18 12.5V19.5C18 19.7761 17.7761 20 17.5 20H6.5C6.22386 20 6 19.7761 6 19.5V12.5Z" fill="black"/>
</svg>
