<svg width="24" height="24" viewBox="0 0 24 24" fill="none" xmlns="http://www.w3.org/2000/svg">
<path d="M13 2C13.5523 2 14 2.44772 14 3C14 3.55228 13.5523 4 13 4H5C4.44772 4 4 4.44772 4 5V19C4 19.5523 4.44772 20 5 20H13C13.5523 20 14 20.4477 14 21C14 21.5523 13.5523 22 13 22H5C3.34315 22 2 20.6569 2 19V5C2 3.34315 3.34315 2 5 2H13Z" fill="black"/>
<path d="M16.3798 7.29289C16.7703 6.90237 17.4035 6.90237 17.794 7.29289L21.7071 11.2059C21.9134 11.4123 22.0107 11.6864 21.999 11.9566C21.9996 11.971 21.9999 11.9855 21.9999 12C21.9999 12.4027 21.762 12.7497 21.419 12.9082L17.794 16.5332C17.4035 16.9237 16.7703 16.9237 16.3798 16.5332C15.9893 16.1427 15.9893 15.5095 16.3798 15.119L18.4988 13H9.13037C8.57809 13 8.13037 12.5523 8.13037 12C8.13037 11.4477 8.57809 11 9.13037 11H18.6727L16.3798 8.70711C15.9893 8.31658 15.9893 7.68342 16.3798 7.29289Z" fill="black"/>
</svg>
