<svg width="24" height="24" viewBox="0 0 24 24" fill="none" xmlns="http://www.w3.org/2000/svg">
<path d="M10.2998 18.5C7.09977 18.5 3.99977 16.6 2.69977 13.5C1.79977 11.5 1.79977 9.20001 2.59977 7.20001C3.39977 5.10001 4.99977 3.50001 6.99977 2.70001C8.99977 1.80001 11.2998 1.80001 13.2998 2.60001C15.3998 3.40001 16.9998 5.00001 17.7998 7.00001C19.5998 11.2 17.5998 16 13.3998 17.8C12.3998 18.3 11.2998 18.5 10.2998 18.5ZM10.2998 4.00001C9.39977 4.00001 8.59977 4.20001 7.79977 4.50001C4.59977 5.80001 3.09977 9.50001 4.49977 12.7C5.79977 15.9 9.49977 17.4 12.6998 16C15.8998 14.7 17.3998 11 15.9998 7.80001C15.2998 6.30001 14.0998 5.10001 12.5998 4.40001C11.7998 4.20001 10.9998 4.00001 10.2998 4.00001Z" fill="black"/>
<path d="M21.0004 21.9999C20.7004 21.9999 20.5004 21.8999 20.3004 21.6999L14.7004 16.0999C14.3004 15.6999 14.3004 15.0999 14.7004 14.6999C15.1004 14.2999 15.7004 14.2999 16.1004 14.6999L21.7004 20.2999C22.1004 20.6999 22.1004 21.2999 21.7004 21.6999C21.5004 21.8999 21.3004 21.9999 21.0004 21.9999Z" fill="black"/>
<path d="M10.2998 18.5C7.09977 18.5 3.99977 16.6 2.69977 13.5C1.79977 11.5 1.79977 9.20001 2.59977 7.20001C3.39977 5.10001 4.99977 3.50001 6.99977 2.70001C8.99977 1.80001 11.2998 1.80001 13.2998 2.60001C15.3998 3.40001 16.9998 5.00001 17.7998 7.00001C19.5998 11.2 17.5998 16 13.3998 17.8C12.3998 18.3 11.2998 18.5 10.2998 18.5ZM10.2998 4.00001C9.39977 4.00001 8.59977 4.20001 7.79977 4.50001C4.59977 5.80001 3.09977 9.50001 4.49977 12.7C5.79977 15.9 9.49977 17.4 12.6998 16C15.8998 14.7 17.3998 11 15.9998 7.80001C15.2998 6.30001 14.0998 5.10001 12.5998 4.40001C11.7998 4.20001 10.9998 4.00001 10.2998 4.00001Z" fill="black"/>
<path d="M21.0004 21.9999C20.7004 21.9999 20.5004 21.8999 20.3004 21.6999L14.7004 16.0999C14.3004 15.6999 14.3004 15.0999 14.7004 14.6999C15.1004 14.2999 15.7004 14.2999 16.1004 14.6999L21.7004 20.2999C22.1004 20.6999 22.1004 21.2999 21.7004 21.6999C21.5004 21.8999 21.3004 21.9999 21.0004 21.9999Z" fill="black"/>
</svg>
