<svg viewBox="0 0 24 24" fill="none" xmlns="http://www.w3.org/2000/svg">
<path d="M12.0024 9C12.5547 9 13.0024 9.44772 13.0024 10V12.5C13.0024 13.0523 12.5547 13.5 12.0024 13.5C11.4502 13.5 11.0024 13.0523 11.0024 12.5V10C11.0024 9.44772 11.4502 9 12.0024 9Z"/>
<path d="M13.3064 16.4149C13.3064 17.1362 12.7216 17.7209 12.0004 17.7209C11.2791 17.7209 10.6943 17.1362 10.6943 16.4149C10.6943 15.6936 11.2791 15.1089 12.0004 15.1089C12.7216 15.1089 13.3064 15.6936 13.3064 16.4149Z"/>
<path fill-rule="evenodd" clip-rule="evenodd" d="M10.2578 4.06725C11.0217 2.70447 12.9832 2.70447 13.7471 4.06725L21.5664 18.0171C22.3137 19.3503 21.3501 20.995 19.8218 20.995H4.18308C2.65475 20.995 1.69117 19.3503 2.43846 18.0171L10.2578 4.06725ZM19.3951 18.995C19.5861 18.995 19.7066 18.7894 19.6131 18.6228L12.2205 5.43422C12.125 5.26387 11.8798 5.26387 11.7844 5.43422L4.39173 18.6228C4.29832 18.7894 4.41877 18.995 4.60981 18.995L19.3951 18.995Z"/>
</svg>
