<?xml version="1.0" encoding="UTF-8"?>
<svg id="Layer_2" data-name="Layer 2" xmlns="http://www.w3.org/2000/svg" viewBox="0 0 48 48">
  <defs>
    <style>
      .cls-1 {
        fill: #02c652;
      }

      .cls-2 {
        fill: #fff;
      }
    </style>
  </defs>
  <g id="Layer_1-2" data-name="Layer 1">
    <path class="cls-2" d="M8.48,8.48c3.26-3.26,4.89-4.89,6.55-5.92,5.49-3.42,12.45-3.42,17.95,0,1.66,1.03,3.29,2.66,6.55,5.92,3.26,3.26,4.89,4.89,5.92,6.55,3.42,5.49,3.42,12.45,0,17.95-1.03,1.66-2.66,3.29-5.92,6.55-3.26,3.26-4.89,4.89-6.55,5.92-5.49,3.42-12.45,3.42-17.95,0-1.66-1.03-3.29-2.66-6.55-5.92h0c-3.26-3.26-4.89-4.89-5.92-6.55C-.85,27.48-.85,20.52,2.56,15.03c1.03-1.66,2.66-3.29,5.92-6.55h0Z"/>
    <path class="cls-1" d="M8.48,8.48c3.26-3.26,4.89-4.89,6.55-5.92,5.49-3.42,12.45-3.42,17.95,0,1.66,1.03,3.29,2.66,6.55,5.92,3.26,3.26,4.89,4.89,5.92,6.55,3.42,5.49,3.42,12.45,0,17.95-1.03,1.66-2.66,3.29-5.92,6.55-3.26,3.26-4.89,4.89-6.55,5.92-5.49,3.42-12.45,3.42-17.95,0-1.66-1.03-3.29-2.66-6.55-5.92h0c-3.26-3.26-4.89-4.89-5.92-6.55C-.85,27.48-.85,20.52,2.56,15.03c1.03-1.66,2.66-3.29,5.92-6.55h0Z"/>
    <path class="cls-2" d="M30.82,16.64c1.88,0,3.41-1.53,3.41-3.41s-1.53-3.41-3.41-3.41-3.41,1.53-3.41,3.41,1.53,3.41,3.41,3.41Z"/>
    <path class="cls-2" d="M20.59,20.73c0-1.51-1.22-2.73-2.73-2.73h-4.09v10.23c0,5.65,4.58,10.23,10.23,10.23,.7,0,1.38-.07,2.05-.2v-6.61h-2.05c-1.88,0-3.41-1.53-3.41-3.41v-7.5Z"/>
    <path class="cls-2" d="M34.23,28.23c0,4.45-2.85,8.24-6.82,9.65V20.73c0-1.51,1.22-2.73,2.73-2.73h4.09v10.23Z"/>
  </g>
</svg>