<svg width="48" height="48" viewBox="0 0 48 48" fill="none" xmlns="http://www.w3.org/2000/svg">
<path d="M8.48097 8.48097C11.7386 5.22331 13.3674 3.59448 15.0274 2.56227C20.5213 -0.854111 27.4787 -0.854067 32.9726 2.56227C34.6325 3.59448 36.2614 5.22331 39.519 8.48097C42.7767 11.7386 44.4055 13.3674 45.4377 15.0274C48.8541 20.5213 48.8541 27.4787 45.4377 32.9726C44.4055 34.6325 42.7767 36.2614 39.519 39.519C36.2614 42.7767 34.6325 44.4055 32.9726 45.4377C27.4787 48.8541 20.5213 48.8541 15.0274 45.4377C13.3674 44.4055 11.7386 42.7767 8.48097 39.519L8.48058 39.5187C5.22322 36.2612 3.59441 34.6325 2.56227 32.9726C-0.854067 27.4787 -0.85411 20.5213 2.56227 15.0274C3.59437 13.3676 5.22305 11.7388 8.48032 8.48162L8.48097 8.48097Z" fill="#02C652"/>
<path d="M30.8184 16.6364C32.7012 16.6364 34.2275 15.1101 34.2275 13.2273C34.2275 11.3445 32.7012 9.81824 30.8184 9.81824C28.9356 9.81824 27.4093 11.3445 27.4093 13.2273C27.4093 15.1101 28.9356 16.6364 30.8184 16.6364Z" fill="white"/>
<path d="M20.5911 20.7273C20.5911 19.2211 19.3701 18.0001 17.8639 18.0001H13.7729V28.2273C13.7729 33.8757 18.3519 38.4546 24.0002 38.4546C24.7007 38.4546 25.3848 38.3842 26.0457 38.25V31.6364H24.0002C22.1174 31.6364 20.5911 30.1101 20.5911 28.2273V20.7273Z" fill="white"/>
<path d="M34.2275 28.2273C34.2275 32.6803 31.3816 36.4687 27.4093 37.8727V20.7273C27.4093 19.2211 28.6304 18.0001 30.1366 18.0001H34.2275V28.2273Z" fill="white"/>
</svg>
