<svg width="32" height="32" viewBox="0 0 32 32" fill="none" xmlns="http://www.w3.org/2000/svg">
<circle cx="16" cy="16" r="11" fill="white"/>
<path d="M18.096 13.268C18 13.164 17.88 13.064 17.736 12.968C17.592 12.864 17.424 12.772 17.232 12.692C17.048 12.604 16.848 12.536 16.632 12.488C16.416 12.432 16.188 12.4 15.948 12.392V15.236L16.104 15.272C16.544 15.368 16.94 15.48 17.292 15.608C17.652 15.728 17.956 15.88 18.204 16.064C18.46 16.248 18.652 16.472 18.78 16.736C18.916 17 18.984 17.324 18.984 17.708C18.984 18.108 18.908 18.456 18.756 18.752C18.604 19.048 18.396 19.292 18.132 19.484C17.868 19.676 17.552 19.824 17.184 19.928C16.824 20.024 16.436 20.076 16.02 20.084V21.284H15.492V20.072C14.324 20 13.3 19.604 12.42 18.884L12.936 17.972C13.056 18.092 13.204 18.216 13.38 18.344C13.556 18.464 13.756 18.576 13.98 18.68C14.212 18.784 14.46 18.876 14.724 18.956C14.988 19.028 15.264 19.076 15.552 19.1V16.232L15.372 16.184C14.94 16.08 14.56 15.968 14.232 15.848C13.904 15.728 13.628 15.584 13.404 15.416C13.188 15.248 13.024 15.044 12.912 14.804C12.8 14.564 12.744 14.276 12.744 13.94C12.744 13.556 12.812 13.216 12.948 12.92C13.084 12.616 13.272 12.36 13.512 12.152C13.76 11.936 14.052 11.768 14.388 11.648C14.724 11.528 15.092 11.456 15.492 11.432V10.22H16.02V11.432C16.548 11.456 17.024 11.552 17.448 11.72C17.88 11.888 18.264 12.112 18.6 12.392L18.096 13.268ZM17.832 17.816C17.832 17.608 17.788 17.432 17.7 17.288C17.62 17.136 17.5 17.004 17.34 16.892C17.18 16.772 16.984 16.668 16.752 16.58C16.52 16.492 16.252 16.408 15.948 16.328V19.112C16.548 19.112 17.012 19.004 17.34 18.788C17.668 18.572 17.832 18.248 17.832 17.816ZM13.86 13.772C13.86 13.972 13.892 14.144 13.956 14.288C14.028 14.432 14.132 14.556 14.268 14.66C14.404 14.764 14.58 14.856 14.796 14.936C15.012 15.008 15.264 15.08 15.552 15.152V12.392C14.968 12.424 14.54 12.56 14.268 12.8C13.996 13.04 13.86 13.364 13.86 13.772Z" fill="black"/>
</svg>
