<svg viewBox="0 0 24 24" fill="none" xmlns="http://www.w3.org/2000/svg">
<path d="M5 7.27273C5 6.56982 5.56982 6 6.27273 6H17.7273C18.4302 6 19 6.56982 19 7.27273C19 7.97564 18.4302 8.54545 17.7273 8.54545H6.27273C5.56982 8.54545 5 7.97564 5 7.27273Z"/>
<path d="M5 17.4545C5 16.7516 5.56982 16.1818 6.27273 16.1818H17.7273C18.4302 16.1818 19 16.7516 19 17.4545C19 18.1574 18.4302 18.7272 17.7273 18.7272H6.27273C5.56982 18.7272 5 18.1574 5 17.4545Z"/>
<path d="M6.27273 11.0909C5.56982 11.0909 5 11.6608 5 12.3637C5 13.0666 5.56982 13.6364 6.27273 13.6364H12.6364C13.3393 13.6364 13.9091 13.0666 13.9091 12.3637C13.9091 11.6608 13.3393 11.0909 12.6364 11.0909H6.27273Z"/>
<path d="M5 7.27273C5 6.56982 5.56982 6 6.27273 6H17.7273C18.4302 6 19 6.56982 19 7.27273C19 7.97564 18.4302 8.54545 17.7273 8.54545H6.27273C5.56982 8.54545 5 7.97564 5 7.27273Z"/>
<path d="M5 17.4545C5 16.7516 5.56982 16.1818 6.27273 16.1818H17.7273C18.4302 16.1818 19 16.7516 19 17.4545C19 18.1574 18.4302 18.7272 17.7273 18.7272H6.27273C5.56982 18.7272 5 18.1574 5 17.4545Z"/>
<path d="M6.27273 11.0909C5.56982 11.0909 5 11.6608 5 12.3637C5 13.0666 5.56982 13.6364 6.27273 13.6364H12.6364C13.3393 13.6364 13.9091 13.0666 13.9091 12.3637C13.9091 11.6608 13.3393 11.0909 12.6364 11.0909H6.27273Z"/>
</svg>
