<svg width="24" height="24" viewBox="0 0 24 24" fill="none" xmlns="http://www.w3.org/2000/svg">
<path d="M12.0003 2C11.6394 2 11.284 2.08878 10.9655 2.25852L3.16529 6.41866C2.81338 6.60618 2.51905 6.88583 2.31377 7.22769C2.10838 7.56975 1.99988 7.96123 1.99988 8.36021L2.00001 21C2.00001 21.5523 2.44773 22 3.00001 22C3.5523 22 4.00001 21.5523 4.00001 21L3.99988 8.36021C3.99988 8.32394 4.00974 8.28835 4.02841 8.25726C4.04709 8.22616 4.07445 8.20041 4.10647 8.18337L11.9065 4.02337C11.9354 4.00802 11.9676 4 12.0003 4C12.0331 4 12.0654 4.00809 12.0943 4.0235L19.8941 8.18337C19.926 8.20043 19.9528 8.22586 19.9714 8.25693C19.99 8.28802 19.9999 8.32395 19.9999 8.36022L20 21C20 21.5523 20.4477 22 21 22C21.5523 22 22 21.5523 22 21L21.9999 8.36021C22 7.9615 21.8917 7.57026 21.6866 7.22832C21.4815 6.88627 21.1872 6.60638 20.8353 6.41866L13.035 2.25852C12.7165 2.08878 12.3612 2 12.0003 2Z"/>
<path fill-rule="evenodd" clip-rule="evenodd" d="M9 10C8.44771 10 8 10.4477 8 11V15H7C6.44771 15 6 15.4477 6 16V21C6 21.5523 6.44771 22 7 22H17C17.5523 22 18 21.5523 18 21V16C18 15.4477 17.5523 15 17 15H16V11C16 10.4477 15.5523 10 15 10H9ZM14 15V12H10V15H14ZM8 17V20H11V17H8ZM16 20H13V17H16V20Z"/>
</svg>
