<svg width="113" height="44" viewBox="0 0 113 44" fill="none" xmlns="http://www.w3.org/2000/svg">
<path fill-rule="evenodd" clip-rule="evenodd" d="M52.3402 34.3725H48.2233V2.33752H59.1375C61.9035 2.33752 64.2622 3.25955 66.192 5.10361C68.1647 6.94766 69.1511 9.19911 69.1511 11.858C69.1511 14.5812 68.1647 16.8326 66.192 18.6552C64.2837 20.4778 61.925 21.3784 59.1375 21.3784H52.3402V34.3725ZM52.3402 6.30438V17.4545H59.2232C60.8529 17.4545 62.2252 16.897 63.2973 15.8034C64.3909 14.7098 64.9484 13.3804 64.9484 11.8794C64.9484 10.3999 64.3909 9.0919 63.2973 7.99834C62.2252 6.86189 60.8743 6.30438 59.2232 6.30438H52.3402Z" fill="#3C4043"/>
<path fill-rule="evenodd" clip-rule="evenodd" d="M79.9154 11.7288C82.9603 11.7288 85.3618 12.5437 87.1201 14.1733C88.8784 15.8029 89.7575 18.0329 89.7575 20.8633V34.3721H85.8335V31.3272H85.662C83.968 33.836 81.6951 35.0797 78.8647 35.0797C76.4417 35.0797 74.4262 34.3721 72.7965 32.9354C71.1669 31.4988 70.3521 29.7191 70.3521 27.5748C70.3521 25.3019 71.2098 23.5007 72.9252 22.1713C74.6406 20.8204 76.9349 20.1557 79.7868 20.1557C82.2312 20.1557 84.2468 20.606 85.8121 21.5066V20.5631C85.8121 19.1265 85.2546 17.9257 84.1181 16.9179C82.9817 15.9101 81.6523 15.4169 80.1298 15.4169C77.8355 15.4169 76.0129 16.3819 74.6835 18.3331L71.0597 16.0602C73.0538 13.1655 76.0129 11.7288 79.9154 11.7288ZM74.5977 27.6391C74.5977 28.7113 75.048 29.6118 75.97 30.3194C76.8706 31.027 77.9427 31.3916 79.1649 31.3916C80.9018 31.3916 82.4456 30.7483 83.7965 29.4617C85.1474 28.1752 85.8335 26.6742 85.8335 24.9374C84.547 23.9296 82.7673 23.415 80.4729 23.415C78.8004 23.415 77.4066 23.8224 76.2916 24.6158C75.1552 25.452 74.5977 26.4598 74.5977 27.6391Z" fill="#3C4043"/>
<path d="M98.4214 44.0002L112.145 12.4369H107.663L101.316 28.1757H101.23L94.7119 12.4369H90.2304L99.2791 32.9574L94.1758 44.0002H98.4214Z" fill="#3C4043"/>
<path d="M35.6222 14.922C35.8452 16.1571 35.9653 17.4415 35.9653 18.7838C35.9653 24.3664 33.9869 29.0916 30.5337 32.2886L24.6178 27.7001L24.6158 27.7014V27.6996C26.6035 26.3615 27.9008 24.3545 28.3039 22.0002L18.3654 21.998V14.922H35.6222Z" fill="#4285F4"/>
<path d="M1.95349 26.6154C4.97708 32.6144 11.1908 36.7308 18.3693 36.7308C23.3311 36.7308 27.4995 35.099 30.5336 32.2901L24.6176 27.7014C22.9708 28.8121 20.8502 29.4618 18.3693 29.4618C13.5769 29.4618 9.51141 26.2326 8.05546 21.8798C8.05531 21.8793 8.05562 21.8802 8.05546 21.8798L1.95349 26.6154Z" fill="#34A853"/>
<path d="M1.95332 10.1165L8.0558 14.8509C8.05576 14.851 8.05584 14.8508 8.0558 14.8509C7.68484 15.9616 7.48127 17.143 7.48127 18.3652C7.48127 19.5874 7.68497 20.7689 8.05592 21.8796L1.9534 26.6141C0.705453 24.1332 0 21.3328 0 18.3652C0 15.3976 0.703278 12.5973 1.95332 10.1165Z" fill="#FABB05"/>
<path d="M18.3698 7.26899C21.078 7.26899 23.5032 8.20174 25.418 10.0243L30.6606 4.78596C27.4764 1.82047 23.3252 0 18.3698 0C11.193 0 4.97688 4.11695 1.95349 10.1165L8.05601 14.851C9.51195 10.4982 13.5774 7.26899 18.3698 7.26899Z" fill="#E94235"/>
</svg>
