<svg width="134" height="36" viewBox="0 0 134 36" fill="none" xmlns="http://www.w3.org/2000/svg">
<path fill-rule="evenodd" clip-rule="evenodd" d="M16.0335 0H5.74787C5.14283 0 4.53779 0.605038 4.23527 1.21008L0 27.8318C0 28.4368 0.302525 28.7394 0.907561 28.7394H5.74787C6.35291 28.7394 6.95795 28.1343 7.26047 27.5293L8.47055 20.2688C8.47055 19.6638 9.07559 19.0587 9.98315 19.0587H13.3109C20.2688 19.0587 24.2016 15.731 25.1091 9.07559C25.7142 6.35291 25.1091 3.93276 23.899 2.42016C22.0839 0.907562 19.6638 0 16.0335 0ZM17.2436 9.98315C16.6386 13.6134 13.9159 13.6134 11.1932 13.6134H9.68063L10.8907 6.65543C10.8907 6.35291 11.1932 6.05039 11.7983 6.05039H12.4033C14.2184 6.05039 16.0335 6.05039 16.9411 7.26047C17.2436 7.56299 17.5461 8.47055 17.2436 9.98315Z" fill="#263B80"/>
<path fill-rule="evenodd" clip-rule="evenodd" d="M47.1941 9.68096H42.3538C42.0513 9.68096 41.4463 9.98348 41.4463 10.286L41.1437 11.7986L40.8412 11.1936C39.6311 9.68096 37.5135 9.07592 35.0933 9.07592C29.648 9.07592 24.8077 13.3112 23.9001 19.0591C23.2951 22.0843 24.2026 24.8069 25.7152 26.6221C27.2278 28.4372 29.3455 29.0422 32.0681 29.0422C36.6059 29.0422 39.0261 26.3195 39.0261 26.3195L38.7236 27.8321C38.7236 28.4372 39.0261 28.7397 39.6311 28.7397H44.1689C44.774 28.7397 45.379 28.1346 45.6815 27.5296L48.4042 10.5885C48.1017 10.286 47.4967 9.68096 47.1941 9.68096ZM40.2362 19.3616C39.6311 22.0843 37.5135 24.2019 34.4883 24.2019C32.9757 24.2019 31.7656 23.5969 31.1606 22.9918C30.5555 22.0843 30.253 20.8742 30.253 19.3616C30.5555 16.6389 32.9757 14.5213 35.6984 14.5213C37.211 14.5213 38.1185 15.1263 39.0261 15.7313C39.9337 16.6389 40.2362 18.1515 40.2362 19.3616Z" fill="#263B80"/>
<path d="M68.3699 9.68081H73.5128C74.1178 9.68081 74.7228 10.5884 73.8153 11.4959L57.1767 35.395C56.8742 35.6975 56.5717 36 55.9666 36H51.1263C50.5212 36 50.2187 35.0924 50.5212 34.4874L55.6641 27.2269L50.2187 11.1934C50.2187 10.5884 50.5212 9.98333 51.1263 9.98333H55.9666C56.8742 9.98333 57.1767 10.2858 57.4792 10.8909L60.5044 20.5715L67.1598 10.2858C67.4624 9.98333 67.7649 9.68081 68.3699 9.68081Z" fill="#263B80"/>
<path fill-rule="evenodd" clip-rule="evenodd" d="M90.1504 0H79.8647C79.2597 0 78.6546 0.605038 78.3521 1.21008L74.1168 27.8318C74.1168 28.4368 74.4193 28.7394 75.0244 28.7394H80.4697C81.0748 28.7394 81.3773 28.4368 81.3773 27.8318L82.5874 20.2688C82.5874 19.6638 83.1924 19.0587 84.1 19.0587H87.4277C94.3856 19.0587 98.3184 15.731 99.2259 9.07559C99.831 6.35291 99.2259 3.93276 98.0159 2.42016C96.2008 0.907562 93.4781 0 90.1504 0ZM91.3604 9.98315C90.7554 13.6134 88.0327 13.6134 85.31 13.6134H83.4949L84.705 6.65543C84.705 6.35291 85.0075 6.05039 85.6126 6.05039H86.2176C88.0327 6.05039 89.8478 6.05039 90.7554 7.26047C91.3604 7.56298 91.3604 8.4706 91.3604 9.98315Z" fill="#139AD6"/>
<path fill-rule="evenodd" clip-rule="evenodd" d="M121.008 9.68096H116.168C115.865 9.68096 115.26 9.98348 115.26 10.286L114.958 11.7986L114.655 11.1936C113.445 9.68096 111.328 9.07592 108.907 9.07592C103.462 9.07592 98.6217 13.3112 97.7142 19.0591C97.1091 22.0843 98.0167 24.8069 99.5293 26.6221C101.042 28.4372 103.16 29.0422 105.882 29.0422C110.42 29.0422 112.84 26.3195 112.84 26.3195L112.538 27.8321C112.538 28.4372 112.84 28.7397 113.445 28.7397H117.983C118.588 28.7397 119.193 28.1347 119.496 27.5296L122.218 10.5885C122.147 10.5171 122.075 10.4288 122 10.3356C121.756 10.034 121.47 9.68096 121.008 9.68096ZM114.05 19.3616C113.445 22.0843 111.328 24.2019 108.302 24.2019C106.79 24.2019 105.58 23.5969 104.975 22.9918C104.37 22.0843 104.067 20.8742 104.067 19.3616C104.37 16.6389 106.79 14.5213 109.512 14.5213C111.025 14.5213 111.933 15.1263 112.84 15.7313C114.05 16.6389 114.353 18.1515 114.05 19.3616Z" fill="#139AD6"/>
<path d="M122.52 28.1341L126.755 0.907292C127.058 0.302253 127.361 -0.000268903 127.663 0.30225H132.503C133.108 0.30225 133.411 0.604768 133.411 1.20981L129.176 27.8315C128.873 28.4366 128.268 29.0416 127.663 29.0416H123.428C122.823 29.0416 122.52 28.7391 122.52 28.1341Z" fill="#139AD6"/>
</svg>
