<svg width="8" height="8" viewBox="0 0 20 20" fill="none" xmlns="http://www.w3.org/2000/svg">
<path d="M19.775 0.224988C19.475 -0.0749961 18.989 -0.0749961 18.6891 0.224988L10 8.91407L1.31092 0.224988C1.01094 -0.0749961 0.524953 -0.0749961 0.224988 0.224988C-0.0749769 0.524972 -0.0749961 1.01096 0.224988 1.31092L8.91407 10L0.224988 18.6891C-0.0749961 18.9891 -0.0749961 19.475 0.224988 19.775C0.524972 20.075 1.01096 20.075 1.31092 19.775L10 11.0859L18.6891 19.775C18.9891 20.075 19.475 20.075 19.775 19.775C20.075 19.475 20.075 18.989 19.775 18.6891L11.0859 10L19.775 1.31092C20.075 1.01094 20.075 0.524953 19.775 0.224988Z" fill="#fff"/>
</svg>
