<svg width="64" height="64" viewBox="0 0 64 64" fill="none" xmlns="http://www.w3.org/2000/svg">
<rect x="0.5" y="0.5" width="63" height="63" rx="5.5" fill="white"/>
<path d="M25.8709 41.2556L18 52.125H47.3125L50.375 51.25L52.125 48.625V41.625L43.3849 31.7924C42.5026 30.7998 40.9158 30.927 40.2028 32.0474L33.0778 43.2439C32.7438 43.7686 32.0169 43.8645 31.5584 43.4441L28.8422 40.9544C27.9609 40.1464 26.5722 40.2872 25.8709 41.2556Z" fill="#02C652"/>
<rect x="11.5" y="11.5" width="41" height="41" rx="5.5" stroke="#19181B"/>
<circle cx="22.5" cy="22.5" r="6" fill="white" stroke="#19181B"/>
<path d="M18 52.5L25.878 41.2993C26.5723 40.3122 27.9758 40.1601 28.8654 40.9755L31.5584 43.4441C32.0169 43.8645 32.7438 43.7686 33.0778 43.2439L40.2056 32.043C40.9177 30.9239 42.5021 30.7954 43.3852 31.7852L52.5 42" stroke="#19181B"/>
<rect x="0.5" y="0.5" width="63" height="63" rx="5.5" stroke="#E5E5E6"/>
</svg>
