<svg width="64" height="64" viewBox="0 0 64 64" fill="none" xmlns="http://www.w3.org/2000/svg">
<rect x="0.5" y="0.5" width="63" height="63" rx="5.5" fill="white"/>
<path d="M11 43.7821V41.7987C11 41.5355 11.1029 41.2831 11.2862 41.0971C11.4694 40.911 11.7179 40.8065 11.9771 40.8065H52.0229C52.1513 40.8065 52.2785 40.8322 52.3971 40.8821C52.5158 40.9322 52.6236 41.0054 52.7144 41.0977C52.8051 41.19 52.8771 41.2996 52.9261 41.4201C52.9751 41.5407 53.0002 41.6698 53 41.8003V43.7821" stroke="#19181B" stroke-linecap="round" stroke-linejoin="round"/>
<path d="M53 43.7783L52.9928 43.7937C52.6756 44.407 52.194 44.917 51.6036 45.2647C51.0132 45.6126 50.3379 45.7841 49.6555 45.7596H14.3621C13.6746 45.7846 12.994 45.6118 12.3991 45.2611C11.8042 44.9106 11.3192 44.3965 11 43.7783" stroke="#19181B" stroke-linecap="round" stroke-linejoin="round"/>
<path d="M50.1363 19.07C50.1363 18.521 49.9297 17.9945 49.562 17.6063C49.1943 17.2181 48.6956 17 48.1757 17H15.8241C15.3041 17 14.8054 17.2181 14.4377 17.6063C14.07 17.9945 13.8635 18.521 13.8635 19.07V40.8046H50.1363V19.07Z" fill="#02C652" stroke="#19181B" stroke-linecap="round" stroke-linejoin="round"/>
<path d="M35.884 35.7457H28.3712C28.0528 35.7456 27.745 35.6226 27.5034 35.3989C27.2618 35.1751 26.8136 33.8566 27.054 34.526L24.7189 28.9738C24.4417 28.3147 24.9257 27.5861 25.6407 27.5861H32.1307H38.6199C39.3351 27.5861 39.8191 28.3151 39.5415 28.9742L37.2037 34.526C37.305 34.2442 36.9953 35.1758 36.7532 35.3995C36.5111 35.6233 36.2028 35.7461 35.884 35.7457Z" fill="white" stroke="#19181B" stroke-linecap="round" stroke-linejoin="round"/>
<path d="M26.4197 27.5861L27.5619 25.8058L28.7041 24.0255" stroke="#19181B" stroke-linecap="round" stroke-linejoin="round"/>
<path d="M37.8418 27.5861L35.5574 24.0255" stroke="#19181B" stroke-linecap="round" stroke-linejoin="round"/>
<rect x="0.5" y="0.5" width="63" height="63" rx="5.5" stroke="#E5E5E6"/>
</svg>
