<svg width="64" height="64" viewBox="0 0 64 64" fill="none" xmlns="http://www.w3.org/2000/svg">
<rect x="0.5" y="0.5" width="63" height="63" rx="5.5" fill="white"/>
<path d="M42.2394 52C41.9557 52 41.8138 51.8582 41.672 51.7163L35.0053 40.7943C34.8635 40.5106 34.8635 40.3688 34.8635 40.0851C34.8635 39.9433 35.0053 39.8014 35.289 39.6596C37.7004 38.383 39.1188 35.9716 39.1188 33.2766C39.1188 29.305 35.9982 26.1844 32.0266 26.1844C28.055 26.1844 24.9344 29.305 24.9344 33.2766C24.9344 35.8298 26.211 38.0993 28.3387 39.3759C28.6223 39.5177 28.7642 40.0851 28.6223 40.3688L21.9557 51.2908C21.8138 51.4326 21.672 51.5745 21.5301 51.5745C21.3883 51.5745 21.1046 51.5745 20.9628 51.4326C14.5798 47.6028 10.75 40.7943 10.75 33.2766C10.75 21.5035 20.2535 12 32.0266 12C43.7996 12 53.3032 21.5035 53.3032 33.2766C53.3032 40.9362 49.1897 48.0284 42.5231 51.7163C42.3812 51.8582 42.2394 52 42.2394 52Z" fill="#02C652"/>
<path fill-rule="evenodd" clip-rule="evenodd" d="M35.289 39.6596C35.0053 39.8014 34.8635 39.9433 34.8635 40.0851C34.8635 40.3688 34.8635 40.5106 35.0053 40.7943L41.672 51.7163C41.8138 51.8582 41.9557 52 42.2394 52L42.5231 51.7163C49.1897 48.0284 53.3032 40.9362 53.3032 33.2766C53.3032 21.5035 43.7996 12 32.0266 12C20.2535 12 10.75 21.5035 10.75 33.2766C10.75 40.7943 14.5798 47.6028 20.9628 51.4326C21.1046 51.5745 21.3883 51.5745 21.5301 51.5745C21.672 51.5745 21.8138 51.4326 21.9557 51.2908L28.6223 40.3688C28.7642 40.0851 28.6223 39.5177 28.3387 39.3759C26.211 38.0993 24.9344 35.8298 24.9344 33.2766C24.9344 29.305 28.055 26.1844 32.0266 26.1844C35.9982 26.1844 39.1188 29.305 39.1188 33.2766C39.1188 35.9716 37.7004 38.383 35.289 39.6596ZM27.6133 40.1025C25.3048 38.6199 23.9344 36.0884 23.9344 33.2766C23.9344 28.7527 27.5027 25.1844 32.0266 25.1844C36.5505 25.1844 40.1188 28.7527 40.1188 33.2766C40.1188 36.2608 38.5794 38.9552 35.957 40.434L42.2405 50.7283C48.464 47.1893 52.3032 40.502 52.3032 33.2766C52.3032 22.0558 43.2474 13 32.0266 13C20.8058 13 11.75 22.0558 11.75 33.2766C11.75 40.3735 15.3244 46.7947 21.2903 50.4616L27.6133 40.1025Z" fill="#19181B"/>
<rect x="0.5" y="0.5" width="63" height="63" rx="5.5" stroke="#E5E5E6"/>
</svg>
