<svg width="40" height="40" viewBox="0 0 40 40" fill="white" xmlns="http://www.w3.org/2000/svg">
<path d="M17.7971 1.34681C17.4443 1.56875 17.0981 1.91896 16.4058 2.61939C15.7134 3.31973 15.3671 3.67005 15.1478 4.02693C14.4217 5.20818 14.4217 6.70408 15.1478 7.88533C15.3671 8.24216 15.7132 8.5923 16.4053 9.29245L16.4057 9.2928C17.0981 9.99323 17.4443 10.3435 17.7971 10.5655C18.9648 11.3 20.4436 11.3 21.6112 10.5655C21.9641 10.3435 22.3103 9.9933 23.0026 9.29287C23.695 8.59244 24.0412 8.24223 24.2606 7.88533C24.9867 6.70408 24.9867 5.20818 24.2606 4.02693C24.0412 3.67003 23.695 3.31982 23.0027 2.61941C22.3103 1.91898 21.9641 1.56875 21.6112 1.34681C20.4436 0.612266 18.9648 0.612256 17.7971 1.34681Z" />
<path d="M22.3525 23.2598L30.409 15.1096C30.7428 14.772 31.1391 14.5041 31.5752 14.3214C32.0113 14.1386 32.4788 14.0446 32.9508 14.0446C33.4229 14.0446 33.8903 14.1386 34.3264 14.3214C34.7625 14.5041 35.1588 14.772 35.4926 15.1096L39.5409 19.205C39.5166 19.2295 19.7705 39.205 19.7705 39.205L0 19.205C0.0536375 19.1509 2.24251 16.9366 4.09096 15.0666C4.42457 14.7291 4.82064 14.4613 5.25655 14.2787C5.69245 14.096 6.15966 14.002 6.63148 14.0021C7.10331 14.0021 7.5705 14.0962 8.00638 14.2789C8.44226 14.4616 8.83828 14.7294 9.17184 15.067L17.2709 23.2601C17.6046 23.5976 18.0007 23.8653 18.4367 24.048C18.8726 24.2307 19.3399 24.3247 19.8118 24.3246C20.2836 24.3246 20.7509 24.2305 21.1868 24.0478C21.6228 23.8651 22.0189 23.5973 22.3525 23.2598Z" />
</svg>
