<svg width="22" height="19" viewBox="0 0 22 19" fill="none" xmlns="http://www.w3.org/2000/svg">
<path d="M10.9995 19C10.7978 19 10.5961 18.9353 10.4282 18.8058L9.94148 18.4302C5.47105 14.9883 2.77306 12.9102 1.20252 10.1376C-0.30323 7.48822 -0.122354 5.39556 0.292805 4.10738C0.799052 2.54183 1.93781 1.28192 3.50213 0.559396C4.30643 0.189051 5.18099 0 6.0985 0C8.03893 0 9.8323 0.822272 10.9997 2.17802C12.1671 0.822272 13.9592 0 15.9009 0C16.8184 0 17.6917 0.187761 18.496 0.558103C20.0603 1.28066 21.2004 2.53931 21.7066 4.10609C22.1231 5.39321 22.3027 7.48567 20.7969 10.1363C19.2248 12.9087 16.5231 14.9897 12.0473 18.4366L11.5723 18.8056C11.4031 18.9351 11.2013 18.9999 10.9996 18.9999L10.9995 19ZM6.0983 1.85943C5.45279 1.85943 4.84373 1.98892 4.28671 2.24532C3.20132 2.74644 2.41394 3.60886 2.07038 4.67584C1.637 6.01607 1.89989 7.58937 2.8278 9.22361C4.20471 11.6541 6.6229 13.5254 10.998 16.896C15.3735 13.5267 17.7916 11.6531 19.1683 9.22493C20.0975 7.58947 20.3591 6.01617 19.927 4.67584C19.5821 3.61015 18.7948 2.74644 17.7094 2.24532C17.1537 1.98893 16.5446 1.85943 15.8991 1.85943C14.1461 1.85943 12.5168 2.82802 11.8451 4.26923C11.6929 4.59813 11.361 4.8079 10.9979 4.8079C10.6335 4.8079 10.3042 4.59813 10.1506 4.26923C9.48041 2.82799 7.85102 1.85943 6.098 1.85943H6.0983Z" fill="#1D1F22"/>
</svg>
