<?xml version="1.0" encoding="UTF-8"?>
<svg xmlns="http://www.w3.org/2000/svg" xmlns:xlink="http://www.w3.org/1999/xlink" width="151pt" height="32pt" viewBox="0 0 151 32" version="1.1">
<g id="surface1">
<path style=" stroke:none;fill-rule:nonzero;fill:rgb(0.392157%,0.392157%,0.392157%);fill-opacity:1;" d="M 18.34375 12.371094 C 17.050781 10.09375 13.453125 8.847656 11.152344 8.847656 C 4.757812 8.847656 0.0234375 12.769531 0.0234375 20.316406 C 0.0234375 27.78125 4.863281 31.859375 11.285156 31.859375 C 13.957031 31.859375 16.917969 30.800781 18.34375 28.257812 L 18.6875 31.277344 L 23.738281 31.277344 L 23.738281 2.28125 L 18.316406 2.28125 L 18.316406 12.371094 Z M 11.628906 26.777344 C 8.167969 26.777344 5.417969 24.15625 5.417969 20.316406 C 5.417969 16.371094 8.167969 13.90625 11.628906 13.90625 C 15.039062 13.90625 17.972656 16.476562 17.972656 20.316406 C 17.972656 24.285156 15.066406 26.777344 11.628906 26.777344 Z M 33.121094 9.429688 L 27.703125 9.429688 L 27.703125 31.304688 L 33.121094 31.304688 Z M 33.625 3.207031 C 33.625 -1.003906 27.226562 -1.003906 27.226562 3.207031 C 27.226562 7.417969 33.625 7.445312 33.625 3.207031 Z M 50.914062 31.332031 L 60.246094 9.429688 L 54.351562 9.429688 L 51.335938 16.714844 L 48.007812 25.824219 L 44.621094 16.632812 L 41.609375 9.429688 L 35.714844 9.429688 L 45.070312 31.332031 Z M 71.242188 31.914062 C 73.675781 31.859375 77.191406 30.640625 78.355469 28.125 L 78.621094 31.332031 L 83.722656 31.332031 L 83.722656 9.457031 L 78.539062 9.457031 L 78.355469 12.449219 C 77.113281 10.277344 74.308594 8.902344 71.375 8.902344 C 64.976562 8.847656 59.980469 12.820312 59.980469 20.367188 C 59.957031 28.019531 64.765625 31.941406 71.242188 31.914062 Z M 71.851562 13.722656 C 80.363281 13.722656 80.363281 27.015625 71.851562 27.015625 C 68.257812 27.015625 65.375 24.527344 65.375 20.339844 C 65.375 16.15625 68.257812 13.722656 71.851562 13.722656 Z M 93.1875 20.101562 C 93.1875 16.765625 95.460938 13.960938 98.765625 13.960938 C 102.226562 13.960938 104.050781 16.5 104.050781 19.839844 L 104.050781 31.304688 L 109.472656 31.304688 L 109.472656 19.785156 C 109.472656 12.898438 105.347656 8.847656 100.191406 8.847656 C 97.441406 8.847656 94.824219 10.039062 93 12.316406 L 92.628906 9.429688 L 87.792969 9.429688 L 87.792969 31.304688 L 93.160156 31.304688 L 93.160156 20.101562 Z M 115.128906 23.890625 C 115.128906 29.34375 118.246094 32.074219 122.980469 31.886719 C 124.621094 31.835938 125.914062 31.570312 127.472656 30.960938 L 125.96875 26.324219 C 125.175781 26.722656 124.195312 26.988281 123.351562 26.988281 C 121.65625 26.988281 120.496094 25.957031 120.496094 23.863281 L 120.496094 14.09375 L 126.574219 14.09375 L 126.574219 9.429688 L 120.546875 9.429688 L 120.546875 3.207031 L 115.128906 3.789062 L 115.128906 9.429688 L 111.058594 9.429688 L 111.058594 14.09375 L 115.128906 14.09375 Z M 140.296875 31.886719 C 143.601562 31.886719 147.355469 30.75 149.65625 28.339844 L 146.21875 24.921875 C 144.976562 26.195312 142.382812 26.960938 140.402344 26.960938 C 136.59375 26.960938 134.269531 25.003906 133.925781 22.328125 L 150.898438 22.328125 C 151.742188 13.351562 147.195312 8.847656 139.898438 8.847656 C 132.839844 8.847656 128.347656 13.613281 128.347656 20.261719 C 128.347656 27.253906 132.8125 31.886719 140.296875 31.886719 Z M 140.085938 13.640625 C 143.175781 13.640625 145.371094 15.046875 145.742188 17.878906 L 134.003906 17.878906 C 134.796875 15.046875 137.175781 13.640625 140.085938 13.640625 Z M 140.085938 13.640625 "/>
</g>
</svg>
