<svg width="144" height="144" viewBox="0 0 124 117" fill="none" xmlns="http://www.w3.org/2000/svg">
  <path d="M23.3115 43.4201C23.3171 43.437 23.3171 43.4539 23.3228 43.4708C23.3284 43.4876 23.3453 43.4933 23.3509 43.5045C25.629 49.0282 30.0672 53.9726 35.9677 57.1733C39.3371 59.0014 42.234 59.7664 44.889 59.7664C49.4058 59.7664 53.2365 57.5501 57.5397 54.6196L64.5877 58.4503C64.6946 58.5065 64.8127 58.5403 64.9309 58.5403C65.184 58.5403 65.4315 58.4053 65.5609 58.1634C65.7521 57.8146 65.6227 57.3759 65.274 57.1847L58.2259 53.354C58.4228 45.0796 57.7253 38.8071 48.6296 33.8636C39.6915 29.0092 29.2227 29.1048 21.9608 34.0998C21.8539 34.1729 21.7864 34.2686 21.7358 34.3811C21.7246 34.4036 21.7189 34.4261 21.7077 34.4486C21.6852 34.5048 21.6683 34.5611 21.6627 34.6229C21.6627 34.6398 21.6514 34.6567 21.6514 34.6735C21.5671 37.6379 22.1633 40.6023 23.3107 43.4204L23.3115 43.4201ZM29.8364 32.2658L31.164 38.6445L23.7952 34.6396C25.6459 33.5427 27.682 32.744 29.8364 32.2659L29.8364 32.2658ZM47.5499 35.0895L50.4692 49.1351L42.476 44.7926L39.8604 32.2095C42.4648 32.7157 45.0636 33.627 47.5497 34.9319C47.5497 34.9825 47.5385 35.0388 47.5497 35.0894L47.5499 35.0895ZM36.4124 55.6037C36.3617 55.6262 36.3224 55.6599 36.2774 55.6881C33.8305 54.3099 31.648 52.6281 29.8086 50.7156L41.7898 46.0581L49.783 50.4005L36.4124 55.6037ZM28.7736 49.5737C27.1873 47.7344 25.8992 45.7205 24.9543 43.6056L32.1374 40.8156L40.1362 45.1581L28.7736 49.5737ZM23.1036 35.9105L30.478 39.9155L24.3973 42.2779C23.6267 40.2079 23.1879 38.0648 23.1035 35.9104L23.1036 35.9105ZM37.937 56.5544L51.437 51.3063L56.1114 53.8488C50.1433 57.8595 45.3339 60.07 37.9372 56.5544H37.937ZM56.8039 52.5775L52.1295 50.0351L49.182 35.8488C56.1627 40.1407 56.9276 45.3832 56.8039 52.5772V52.5775ZM38.3373 31.9625L40.818 43.8932L32.8193 39.5507L31.25 32.0076C33.545 31.6532 35.93 31.6363 38.3375 31.9626L38.3373 31.9625Z" fill="#BEBFC4" />
  <path d="M92.1566 50.5403H92.1622C92.1734 50.546 92.1791 50.5516 92.1903 50.5572C92.3028 50.6247 92.4265 50.6528 92.5503 50.6528C92.6459 50.6528 92.7472 50.6303 92.8428 50.591C94.7103 49.7641 96.3809 48.521 97.7928 46.9741C97.804 46.9629 97.8153 46.9629 97.8209 46.9516C97.8322 46.9404 97.8378 46.9235 97.849 46.9122C100.605 43.8691 102.366 39.6615 102.613 35.0659C103.002 27.9784 99.6322 25.2896 94.7778 22.4378L95.0647 17.1391C95.0872 16.7397 94.7834 16.4022 94.3841 16.3797C93.9509 16.3516 93.6472 16.661 93.6247 17.0603L93.3378 22.3591C88.2022 24.6598 84.5571 26.966 84.169 34.0591C83.7809 41.0228 86.914 47.486 92.1566 50.5399L92.1566 50.5403ZM89.2372 46.0853L92.1509 43.8803L91.8922 48.611C90.9078 47.9023 90.019 47.0529 89.2371 46.0854L89.2372 46.0853ZM86.4866 41.0228L92.5616 36.4272L92.2579 41.9903L88.3654 44.9379C87.5892 43.751 86.9535 42.4347 86.4866 41.0228H86.4866ZM85.6034 34.5596L92.9666 28.9853L92.6628 34.5428L86.0928 39.5153C85.7272 37.9346 85.5472 36.2696 85.6035 34.5596H85.6034ZM100.088 40.2803L94.1035 34.6216L94.4072 29.0584L101.124 35.4033C100.994 37.1133 100.634 38.7502 100.089 40.2802L100.088 40.2803ZM97.2421 45.4216L93.6928 42.0691L93.9965 36.5059L99.5316 41.7372C98.9185 43.0872 98.1478 44.3303 97.2423 45.4216H97.2421ZM93.3328 48.6896L93.5915 43.9533L96.2522 46.4677C95.3691 47.3452 94.3903 48.0877 93.3329 48.6896H93.3328ZM101.18 33.4804L94.5084 27.1747L94.6771 24.0584C98.4908 26.3591 101.011 28.5753 101.18 33.4804H101.18ZM93.2428 23.9853L93.074 27.1016L85.7559 32.6423C86.4647 27.771 89.2096 25.8472 93.2428 23.9854L93.2428 23.9853Z" fill="#BEBFC4" />
  <path d="M66.1128 87.1311C66.1072 87.0973 66.1072 87.0523 66.0959 87.0242C66.0903 87.013 66.0959 87.0073 66.0903 86.9961C66.0847 86.9848 66.0791 86.9792 66.0791 86.9736C66.0622 86.9455 66.0453 86.9173 66.0284 86.8836C66.0059 86.8498 65.9891 86.8105 65.9609 86.7823C65.9441 86.7655 65.9328 86.7542 65.9216 86.7373C65.9159 86.7317 65.9159 86.7205 65.9103 86.7205C63.0303 84.0317 59.554 82.0124 55.7347 80.6736C55.7122 80.6624 55.6953 80.6455 55.6728 80.6399C55.6447 80.6286 55.6109 80.6286 55.5772 80.623C48.0621 78.0298 39.226 78.103 30.8322 81.1517C19.2222 85.3761 12.5054 93.8474 10.8407 106.323L0.56949 110.052C0.198244 110.187 0.00136793 110.604 0.136368 110.975C0.243243 111.267 0.518861 111.447 0.811368 111.447C0.895743 111.447 0.974491 111.43 1.05887 111.402L11.3245 107.667C17.5401 113.348 24.3352 116.217 31.6314 116.217C35.2426 116.217 38.9721 115.52 42.8138 114.125C55.5431 109.495 64.6889 98.9759 66.1188 87.3278C66.1188 87.3165 66.1132 87.3109 66.1188 87.2996V87.2434C66.13 87.2096 66.1188 87.1703 66.1132 87.1309L66.1128 87.1311ZM61.3035 97.2336L53.0404 92.5086L64.504 88.3405C63.9753 91.4342 62.8897 94.4381 61.3034 97.2337L61.3035 97.2336ZM64.0091 86.9904L52.5454 91.1585L55.8417 82.2316C58.8624 83.3566 61.6186 84.9597 64.0093 86.9904H64.0091ZM54.4804 81.7648L50.7735 91.7999L38.6967 96.193L44.5973 80.2061C48.0342 80.2399 51.3698 80.7686 54.4805 81.7642L54.4804 81.7648ZM42.5047 112.394L25.3371 102.578L37.4139 98.1848L52.7989 106.982C49.8457 109.294 46.4539 111.212 42.7357 112.607C42.6795 112.529 42.6063 112.45 42.5051 112.394L42.5047 112.394ZM31.6991 82.6821C31.7385 82.5808 31.7441 82.4739 31.7329 82.3671C35.4848 81.0508 39.3153 80.3421 43.056 80.2183L36.9192 96.8345L24.8423 101.228L31.6991 82.6821ZM30.0454 83.0083L23.0817 101.869L12.383 105.762C14.0649 94.5907 19.8642 87.1269 30.046 83.0085L30.0454 83.0083ZM12.8662 107.117L23.5706 103.23L41.0306 113.214C30.585 116.595 21.3429 114.604 12.8656 107.117H12.8662ZM53.9854 106.009C53.9854 106.003 53.9854 106.003 53.9798 106.003L39.1867 97.543L51.2691 93.1499L60.556 98.4655C58.8123 101.227 56.596 103.776 53.986 106.009L53.9854 106.009Z" fill="#BEBFC4" />
  <path d="M60.1436 35.2751C60.2561 35.2751 60.3686 35.247 60.4754 35.1907C68.9186 30.7807 76.625 25.0995 83.3686 18.3211C83.6498 18.0399 83.6498 17.5843 83.3629 17.303C83.0817 17.0218 82.6261 17.0218 82.3448 17.3086C75.7073 23.9855 68.1192 29.5711 59.8059 33.9133C59.4516 34.0989 59.3166 34.532 59.5022 34.8864C59.6316 35.1339 59.8847 35.2745 60.1434 35.2745L60.1436 35.2751Z" fill="#BEBFC4" />
  <path d="M85.8779 15.3516C86.0748 15.3516 86.2716 15.2729 86.4122 15.1154C87.2335 14.2097 88.0379 13.2817 88.8198 12.3422C89.0729 12.0385 89.0335 11.5828 88.7298 11.3297C88.426 11.0766 87.9704 11.116 87.7173 11.4197C86.9467 12.3478 86.1536 13.2534 85.3436 14.1534C85.0792 14.4459 85.1017 14.9015 85.3942 15.1715C85.5292 15.2897 85.7036 15.3515 85.878 15.3515L85.8779 15.3516Z" fill="#BEBFC4" />
  <path d="M91.0145 9.14049C91.2338 9.14049 91.4476 9.04487 91.5882 8.85361C92.1957 8.04924 92.792 7.23361 93.3714 6.41238C93.602 6.08614 93.5232 5.64175 93.2026 5.41114C92.882 5.18614 92.432 5.25926 92.2014 5.58551C91.6276 6.39551 91.0426 7.19989 90.4407 7.98743C90.1988 8.30243 90.2663 8.75805 90.5813 8.9943C90.7107 9.09555 90.8626 9.14055 91.0144 9.14055L91.0145 9.14049Z" fill="#BEBFC4" />
  <path d="M94.3731 3.69059C94.4968 3.76934 94.6318 3.80872 94.7668 3.80872C95.0031 3.80872 95.2337 3.69622 95.3687 3.48247C95.83 2.77372 96.2856 2.05935 96.7243 1.3337C96.9325 0.996194 96.8256 0.551824 96.4881 0.343701C96.1506 0.135578 95.7062 0.242451 95.4981 0.579949C95.0593 1.29432 94.615 1.99746 94.1593 2.69502C93.9456 3.03253 94.0356 3.4769 94.3731 3.69065L94.3731 3.69059Z" fill="#BEBFC4" />
  <path d="M120.556 17.0104C120.151 16.9204 119.786 17.1735 119.701 17.5616C114.093 43.6847 97.927 67.017 75.3478 81.5797C75.0159 81.7935 74.9147 82.2435 75.134 82.5753C75.2747 82.7891 75.5053 82.9072 75.7415 82.9072C75.8765 82.9072 76.0115 82.8735 76.1297 82.7947C99.0185 68.0232 115.414 44.3597 121.107 17.8651C121.191 17.477 120.944 17.0945 120.555 17.0101L120.556 17.0104Z" fill="#BEBFC4" />
  <path d="M121.844 9.36645C121.462 9.31582 121.085 9.58582 121.034 9.97957C120.944 10.6096 120.854 11.2339 120.759 11.864C120.697 12.2577 120.967 12.6233 121.361 12.6852C121.4 12.6908 121.434 12.6965 121.473 12.6965C121.822 12.6965 122.126 12.4433 122.182 12.089C122.278 11.4533 122.373 10.8177 122.463 10.1821C122.514 9.78274 122.238 9.41711 121.844 9.36648V9.36645Z" fill="#BEBFC4" />
  <path d="M122.391 4.04487C122.003 4.01675 121.648 4.30362 121.614 4.70299C121.569 5.26549 121.519 5.82799 121.463 6.39053C121.423 6.78428 121.71 7.13865 122.104 7.17804C122.132 7.17804 122.154 7.18366 122.177 7.18366C122.543 7.18366 122.858 6.90803 122.891 6.53678C122.948 5.96866 122.998 5.39491 123.049 4.82117C123.077 4.4218 122.784 4.07868 122.391 4.04492V4.04487Z" fill="#BEBFC4" />
  <path d="M122.583 0.844727H121.863L121.829 1.36223C121.801 1.75599 122.099 2.10473 122.493 2.13286H122.549C122.92 2.13286 123.241 1.84599 123.263 1.46349L123.297 0.93474L122.583 0.844727Z" fill="#BEBFC4" />
  <path d="M103.136 24.0028C103.249 24.0703 103.372 24.0984 103.491 24.0984C103.738 24.0984 103.986 23.969 104.115 23.7328C106.517 19.5252 108.564 15.0591 110.196 10.4465C110.331 10.0696 110.128 9.65898 109.757 9.5296C109.38 9.40022 108.969 9.59147 108.834 9.96835C107.231 14.4964 105.223 18.8896 102.861 23.0184C102.669 23.3671 102.788 23.8059 103.136 24.0027L103.136 24.0028Z" fill="#BEBFC4" />
  <path d="M110.358 7.72323C110.431 7.74572 110.499 7.75698 110.566 7.75698C110.876 7.75698 111.157 7.5601 111.253 7.25073C111.466 6.55324 111.675 5.85573 111.871 5.15265C111.978 4.77016 111.753 4.37077 111.371 4.2639C110.988 4.15702 110.595 4.38202 110.488 4.76453C110.296 5.4564 110.094 6.14265 109.88 6.82891C109.762 7.20579 109.976 7.61079 110.358 7.72328L110.358 7.72323Z" fill="#BEBFC4" />
  <path d="M111.726 2.91405C111.783 2.9253 111.839 2.93655 111.895 2.93655C112.221 2.93655 112.514 2.71718 112.593 2.3853C112.694 1.94655 112.801 1.51343 112.896 1.07467C112.981 0.68655 112.739 0.304043 112.351 0.214043C111.946 0.129668 111.58 0.37155 111.49 0.759673C111.394 1.1928 111.293 1.6203 111.192 2.0478C111.102 2.43029 111.338 2.81843 111.726 2.91404V2.91405Z" fill="#BEBFC4" />
</svg> 