<svg width="354" height="333" viewBox="0 0 354 333" fill="none" xmlns="http://www.w3.org/2000/svg">
<path d="M67.1707 124.285C67.1868 124.334 67.1868 124.382 67.2029 124.43C67.219 124.478 67.2672 124.494 67.2833 124.527C73.8012 140.331 86.4994 154.477 103.382 163.635C113.022 168.865 121.31 171.054 128.906 171.054C141.829 171.054 152.789 164.713 165.101 156.328L185.267 167.288C185.572 167.449 185.91 167.546 186.248 167.546C186.972 167.546 187.681 167.159 188.051 166.467C188.598 165.47 188.228 164.214 187.23 163.667L167.065 152.707C167.628 129.033 165.632 111.087 139.609 96.9428C114.036 83.0539 84.0833 83.3275 63.3061 97.6187C63.0003 97.828 62.8072 98.1016 62.6624 98.4234C62.6302 98.4878 62.6141 98.5522 62.5819 98.6166C62.5175 98.7775 62.4693 98.9384 62.4532 99.1155C62.4532 99.1637 62.421 99.212 62.421 99.2603C62.1796 107.742 63.8855 116.223 67.1684 124.286L67.1707 124.285ZM85.8392 92.3713L89.6374 110.622L68.5545 99.1632C73.8495 96.0249 79.6752 93.7396 85.8391 92.3718L85.8392 92.3713ZM136.519 100.45L144.872 140.636L122.003 128.212L114.519 92.2103C121.97 93.6587 129.406 96.2659 136.519 99.9995C136.519 100.144 136.487 100.305 136.519 100.45L136.519 100.45ZM104.654 159.144C104.509 159.208 104.396 159.305 104.267 159.385C97.2667 155.442 91.0224 150.63 85.7595 145.158L120.039 131.833L142.908 144.257L104.654 159.144ZM82.7982 141.891C78.2597 136.629 74.5743 130.867 71.8708 124.816L92.4226 116.833L115.308 129.258L82.7982 141.891ZM66.5757 102.799L87.6747 114.258L70.2772 121.017C68.0723 115.095 66.817 108.963 66.5756 102.799L66.5757 102.799ZM109.016 161.864L147.641 146.848L161.015 154.123C143.939 165.598 130.179 171.922 109.016 161.864H109.016ZM162.996 150.486L149.622 143.211L141.189 102.623C161.161 114.902 163.35 129.902 162.996 150.485V150.486ZM110.161 91.5037L117.259 125.639L94.3734 113.214L89.8834 91.6326C96.4499 90.6187 103.273 90.5705 110.162 91.5039L110.161 91.5037Z" fill="#BEBFC4"/>
<path d="M264.145 144.658H264.161C264.193 144.675 264.209 144.691 264.241 144.707C264.563 144.9 264.917 144.98 265.271 144.98C265.545 144.98 265.835 144.916 266.108 144.803C271.451 142.437 276.231 138.881 280.271 134.455C280.303 134.423 280.335 134.423 280.351 134.391C280.383 134.359 280.399 134.31 280.432 134.278C288.318 125.571 293.355 113.533 294.063 100.384C295.174 80.1062 285.533 72.4134 271.645 64.2541L272.465 49.0937C272.53 47.9511 271.661 46.9855 270.518 46.9211C269.279 46.8406 268.41 47.7258 268.345 48.8685L267.525 64.0288C252.831 70.6114 242.402 77.2095 241.292 97.5038C240.181 117.428 249.145 135.92 264.145 144.657L264.145 144.658ZM255.792 131.912L264.129 125.603L263.388 139.138C260.572 137.111 258.029 134.681 255.792 131.912L255.792 131.912ZM247.922 117.428L265.304 104.279L264.435 120.196L253.298 128.629C251.077 125.233 249.258 121.467 247.923 117.428H247.922ZM245.396 98.9359L266.462 82.987L265.593 98.8877L246.796 113.114C245.75 108.592 245.235 103.828 245.396 98.9359H245.396ZM286.839 115.303L269.715 99.1131L270.584 83.1963L289.8 101.35C289.43 106.242 288.4 110.926 286.839 115.303L286.839 115.303ZM278.695 130.013L268.54 120.421L269.409 104.504L285.246 119.472C283.491 123.334 281.287 126.891 278.696 130.013H278.695ZM267.51 139.363L268.25 125.812L275.863 133.006C273.336 135.517 270.536 137.641 267.511 139.363H267.51ZM289.961 95.848L270.874 77.8069L271.357 68.8908C282.268 75.4733 289.478 81.814 289.961 95.848H289.961ZM267.253 68.6815L266.77 77.5976L245.832 93.4501C247.86 79.513 255.713 74.0087 267.253 68.6819L267.253 68.6815Z" fill="#BEBFC4"/>
<path d="M189.63 249.348C189.614 249.252 189.614 249.123 189.582 249.042C189.566 249.01 189.582 248.994 189.566 248.962C189.55 248.93 189.533 248.914 189.533 248.897C189.485 248.817 189.437 248.737 189.389 248.64C189.324 248.543 189.276 248.431 189.196 248.35C189.147 248.302 189.115 248.27 189.083 248.222C189.067 248.205 189.067 248.173 189.051 248.173C180.811 240.48 170.865 234.703 159.937 230.873C159.873 230.84 159.824 230.792 159.76 230.776C159.68 230.744 159.583 230.744 159.486 230.728C137.985 223.308 112.704 223.518 88.6884 232.241C55.4709 244.327 36.2532 268.564 31.4905 304.258L2.10333 314.928C1.04116 315.314 0.477872 316.505 0.864122 317.567C1.1699 318.404 1.95848 318.919 2.79537 318.919C3.03678 318.919 3.26208 318.871 3.50352 318.791L32.8746 308.104C50.6581 324.359 70.0996 332.567 90.9748 332.567C101.307 332.567 111.977 330.571 122.969 326.58C159.389 313.335 185.556 283.237 189.647 249.911C189.647 249.879 189.631 249.863 189.647 249.83V249.669C189.679 249.573 189.647 249.46 189.631 249.348L189.63 249.348ZM175.87 278.252L152.228 264.734L185.027 252.808C183.514 261.66 180.408 270.254 175.87 278.253L175.87 278.252ZM183.611 248.946L150.812 260.871L160.243 235.33C168.886 238.549 176.772 243.136 183.612 248.946H183.611ZM156.348 233.995L145.743 262.706L111.189 275.275L128.072 229.535C137.905 229.632 147.449 231.144 156.349 233.993L156.348 233.995ZM122.085 321.627L72.9661 293.543L107.519 280.974L151.537 306.145C143.088 312.759 133.384 318.247 122.746 322.238C122.585 322.013 122.375 321.788 122.086 321.627L122.085 321.627ZM91.1687 236.619C91.2813 236.329 91.2974 236.023 91.2652 235.718C102 231.952 112.959 229.924 123.662 229.57L106.104 277.111L71.5506 289.68L91.1687 236.619ZM86.4373 237.552L66.5133 291.516L35.903 302.653C40.7151 270.691 57.3076 249.336 86.4389 237.553L86.4373 237.552ZM37.2857 306.529L67.9121 295.409L117.867 323.975C87.981 333.648 61.5384 327.95 37.284 306.529H37.2857ZM154.932 303.359C154.932 303.343 154.932 303.343 154.916 303.343L112.591 279.138L147.161 266.569L173.731 281.777C168.742 289.679 162.401 296.97 154.934 303.359L154.932 303.359Z" fill="#BEBFC4"/>
<path d="M172.554 100.982C172.876 100.982 173.197 100.902 173.503 100.741C197.66 88.1232 219.709 71.8686 239.003 52.4749C239.808 51.6702 239.808 50.3666 238.987 49.562C238.182 48.7573 236.879 48.7573 236.074 49.5781C217.083 68.6813 195.373 84.6623 171.588 97.0858C170.574 97.6169 170.188 98.8561 170.719 99.87C171.089 100.578 171.813 100.98 172.553 100.98L172.554 100.982Z" fill="#BEBFC4"/>
<path d="M246.181 43.9778C246.745 43.9778 247.308 43.7524 247.71 43.3018C250.06 40.7107 252.361 38.0554 254.598 35.3675C255.323 34.4985 255.21 33.1949 254.341 32.4707C253.472 31.7465 252.168 31.8591 251.444 32.7282C249.239 35.3836 246.97 37.9746 244.653 40.5496C243.896 41.3864 243.961 42.69 244.797 43.4625C245.184 43.8005 245.683 43.9775 246.182 43.9775L246.181 43.9778Z" fill="#BEBFC4"/>
<path d="M260.877 26.2087C261.505 26.2087 262.116 25.9351 262.519 25.3879C264.257 23.0865 265.963 20.7529 267.62 18.4033C268.28 17.4699 268.055 16.1984 267.138 15.5386C266.22 14.8949 264.933 15.1041 264.273 16.0375C262.631 18.355 260.958 20.6564 259.235 22.9097C258.543 23.8109 258.736 25.1145 259.638 25.7904C260.008 26.0801 260.442 26.2089 260.877 26.2089L260.877 26.2087Z" fill="#BEBFC4"/>
<path d="M270.485 10.6141C270.839 10.8394 271.225 10.9521 271.611 10.9521C272.287 10.9521 272.947 10.6302 273.333 10.0187C274.653 7.99084 275.957 5.94695 277.212 3.8708C277.807 2.90515 277.502 1.63376 276.536 1.0383C275.57 0.442835 274.299 0.748612 273.703 1.71423C272.448 3.75812 271.177 5.76987 269.873 7.76568C269.262 8.73133 269.519 10.0027 270.485 10.6143L270.485 10.6141Z" fill="#BEBFC4"/>
<path d="M345.399 48.7242C344.24 48.4667 343.194 49.1909 342.952 50.3014C326.907 125.042 280.654 191.799 216.052 233.464C215.103 234.076 214.813 235.363 215.441 236.313C215.843 236.924 216.503 237.262 217.179 237.262C217.565 237.262 217.951 237.166 218.289 236.941C283.777 194.678 330.687 126.974 346.973 51.1697C347.215 50.0592 346.507 48.9648 345.396 48.7234L345.399 48.7242Z" fill="#BEBFC4"/>
<path d="M349.086 26.8551C347.992 26.7102 346.914 27.4827 346.769 28.6093C346.511 30.4118 346.254 32.1982 345.98 34.0007C345.803 35.1273 346.576 36.1734 347.702 36.3504C347.815 36.3665 347.912 36.3826 348.024 36.3826C349.022 36.3826 349.891 35.6584 350.052 34.6445C350.326 32.8259 350.599 31.0073 350.857 29.1888C351.002 28.0461 350.213 27 349.086 26.8552V26.8551Z" fill="#BEBFC4"/>
<path d="M350.648 11.628C349.538 11.5475 348.524 12.3683 348.427 13.511C348.299 15.1203 348.154 16.7297 347.993 18.3392C347.88 19.4658 348.701 20.4796 349.827 20.5923C349.908 20.5923 349.972 20.6084 350.037 20.6084C351.083 20.6084 351.984 19.8198 352.08 18.7576C352.241 17.1322 352.386 15.4906 352.531 13.8491C352.612 12.7064 351.775 11.7247 350.648 11.6282V11.628Z" fill="#BEBFC4"/>
<path d="M351.197 2.47314H349.137L349.04 3.95379C348.96 5.08036 349.813 6.07814 350.94 6.15865H351.1C352.163 6.15865 353.08 5.33786 353.144 4.24351L353.241 2.73068L351.197 2.47314Z" fill="#BEBFC4"/>
<path d="M295.559 68.7309C295.881 68.924 296.235 69.0045 296.573 69.0045C297.281 69.0045 297.989 68.6343 298.359 67.9584C305.231 55.9201 311.089 43.1419 315.757 29.9448C316.143 28.8665 315.564 27.6917 314.501 27.3215C313.423 26.9513 312.248 27.4985 311.862 28.5768C307.275 41.5321 301.53 54.1014 294.771 65.9143C294.223 66.9121 294.561 68.1674 295.559 68.7307L295.559 68.7309Z" fill="#BEBFC4"/>
<path d="M316.221 22.154C316.43 22.2184 316.623 22.2506 316.816 22.2506C317.701 22.2506 318.506 21.6873 318.78 20.8022C319.391 18.8066 319.987 16.8109 320.55 14.7993C320.856 13.705 320.212 12.5623 319.118 12.2565C318.023 11.9507 316.897 12.5945 316.591 13.6889C316.044 15.6684 315.464 17.6318 314.853 19.5953C314.515 20.6736 315.126 21.8323 316.221 22.1542L316.221 22.154Z" fill="#BEBFC4"/>
<path d="M320.136 8.39363C320.297 8.42581 320.458 8.458 320.619 8.458C321.553 8.458 322.389 7.83036 322.615 6.88082C322.904 5.6255 323.21 4.38629 323.484 3.13096C323.725 2.0205 323.033 0.926107 321.923 0.668607C320.764 0.4272 319.718 1.11925 319.46 2.22972C319.187 3.46893 318.897 4.69207 318.607 5.91518C318.35 7.00953 319.026 8.12003 320.136 8.3936V8.39363Z" fill="#BEBFC4"/>
</svg>
