<svg viewBox="0 0 24 24" fill="none" xmlns="http://www.w3.org/2000/svg">
<path d="M7.82034 8.99893C7.43065 8.61008 6.79962 8.61043 6.41034 8.9997C6.02077 9.38927 6.02077 10.0209 6.41034 10.4105L10.9979 14.998C11.3884 15.3885 12.0215 15.3885 12.4121 14.998L16.9996 10.4105C17.3891 10.0209 17.3891 9.38927 16.9996 8.9997C16.6103 8.61043 15.9793 8.61008 15.5896 8.99893L11.705 12.8751L7.82034 8.99893Z"/>
<path d="M7.82034 8.99893C7.43065 8.61008 6.79962 8.61043 6.41034 8.9997C6.02077 9.38927 6.02077 10.0209 6.41034 10.4105L10.9979 14.998C11.3884 15.3885 12.0215 15.3885 12.4121 14.998L16.9996 10.4105C17.3891 10.0209 17.3891 9.38927 16.9996 8.9997C16.6103 8.61043 15.9793 8.61008 15.5896 8.99893L11.705 12.8751L7.82034 8.99893Z"/>
</svg>
