<svg viewBox="0 0 24 24" fill="none" xmlns="http://www.w3.org/2000/svg">
<path fill-rule="evenodd" clip-rule="evenodd" d="M19.6641 4.99065C17.0241 3.19065 13.7641 4.03065 12.0041 6.09065C10.2441 4.03065 6.98412 3.18065 4.34412 4.99065C2.94412 5.95065 2.06412 7.57065 2.00412 9.28065C1.86412 13.1607 5.30412 16.2707 10.5541 21.0407L10.6541 21.1307C11.4141 21.8207 12.5841 21.8207 13.3441 21.1207L13.4541 21.0207C18.7041 16.2607 22.1341 13.1507 22.0041 9.27065C21.9441 7.57065 21.0641 5.95065 19.6641 4.99065ZM12.1041 19.5507L12.0041 19.6507L11.9041 19.5507C7.14412 15.2407 4.00412 12.3907 4.00412 9.50065C4.00412 7.50065 5.50412 6.00065 7.50412 6.00065C9.04412 6.00065 10.5441 6.99065 11.0741 8.36065H12.9441C13.4641 6.99065 14.9641 6.00065 16.5041 6.00065C18.5041 6.00065 20.0041 7.50065 20.0041 9.50065C20.0041 12.3907 16.8641 15.2407 12.1041 19.5507Z"/>
</svg>
