<svg width="12" height="20" viewBox="0 0 12 20" fill="none" xmlns="http://www.w3.org/2000/svg">
<path fill-rule="evenodd" clip-rule="evenodd" d="M0.410344 6.29117C0.799616 6.68044 1.43065 6.68079 1.82034 6.29194L5.70496 2.41579L9.58958 6.29194C9.97927 6.68079 10.6103 6.68044 10.9996 6.29117C11.3891 5.9016 11.3891 5.26998 10.9996 4.8804L6.41207 0.292893C6.02154 -0.0976311 5.38838 -0.0976311 4.99785 0.292893L0.410344 4.8804C0.0207709 5.26997 0.0207707 5.9016 0.410344 6.29117ZM10.9998 13.7088C10.6105 13.3196 9.97951 13.3192 9.58981 13.7081L5.7052 17.5842L1.82058 13.7081C1.43088 13.3192 0.799854 13.3196 0.410581 13.7088C0.0210081 14.0984 0.021008 14.73 0.410581 15.1196L4.99809 19.7071C5.38861 20.0976 6.02178 20.0976 6.4123 19.7071L10.9998 15.1196C11.3894 14.73 11.3894 14.0984 10.9998 13.7088Z" fill="#71717A"/>
</svg>
