<svg viewBox="0 0 24 24" fill="none" xmlns="http://www.w3.org/2000/svg">
<path d="M7.88755 2.17437C7.12675 2.64747 6.3802 3.39402 4.88711 4.88711C3.3942 6.38001 2.64742 7.1268 2.17437 7.88755C0.608533 10.4056 0.608552 13.5944 2.17437 16.1125C2.64736 16.8731 3.39374 17.6195 4.88622 19.112L4.88693 19.1127C6.38002 20.6058 7.12675 21.3525 7.88755 21.8256C10.4056 23.3915 13.5944 23.3915 16.1124 21.8256C16.8732 21.3525 17.6198 20.606 19.1129 19.1129C20.606 17.6198 21.3525 16.8733 21.8256 16.1125C23.3915 13.5944 23.3915 10.4056 21.8256 7.88755C21.3525 7.12675 20.606 6.38021 19.1129 4.88711C17.6198 3.39402 16.8732 2.64747 16.1124 2.17437C13.5944 0.608552 10.4056 0.608533 7.88755 2.17437Z"/>
</svg>
