<svg width="104" height="44" viewBox="0 0 104 44" fill="none" xmlns="http://www.w3.org/2000/svg">
<path d="M21.4351 0.00012207C21.6537 2.09587 20.825 4.14674 19.6038 5.67416C18.3386 7.15872 16.3338 8.33582 14.3271 8.16176C14.0654 6.15386 15.0691 4.01712 16.2031 2.70809C17.466 1.17948 19.6475 0.0890103 21.4351 0.00012207Z" fill="black"/>
<path d="M16.7245 9.59629C18.028 9.08275 19.6391 8.44799 21.4116 8.55358C22.5425 8.64105 25.8044 8.98921 27.8921 12.0769C27.8817 12.0848 27.8586 12.0999 27.8244 12.1223C27.2884 12.4731 24.0238 14.6094 24.0651 18.8222C24.1056 23.8416 28.2003 25.7236 28.7454 25.9741C28.7815 25.9907 28.8021 26.0002 28.8048 26.0029C28.8025 26.0097 28.7985 26.0226 28.7927 26.0413C28.6863 26.3831 27.9786 28.6567 26.3703 31.0069C24.8915 33.1837 23.3688 35.3158 20.9332 35.3594C19.7869 35.3806 19.0134 35.0492 18.2086 34.7044C17.3645 34.3427 16.4858 33.9663 15.1063 33.9663C13.6593 33.9663 12.7383 34.3548 11.8528 34.7283C11.0878 35.051 10.3493 35.3626 9.32101 35.4029C6.97276 35.4889 5.19061 33.0945 3.71186 30.9198C0.666789 26.5242 -1.63819 18.5185 1.49315 13.1215C3.01556 10.4236 5.79929 8.72734 8.79937 8.68327C10.1091 8.65928 11.3628 9.15473 12.4566 9.58703C13.2878 9.91551 14.0267 10.2075 14.6279 10.2075C15.1731 10.2075 15.885 9.92705 16.7245 9.59629Z" fill="black"/>
<path fill-rule="evenodd" clip-rule="evenodd" d="M46.7869 2.48853C53.1209 2.48853 57.5314 6.8546 57.5314 13.2113C57.5314 19.5906 53.0301 23.9794 46.6281 23.9794H39.6151V35.1319H34.5483V2.48853L46.7869 2.48853ZM39.6151 19.7263H45.429C49.8404 19.7263 52.3512 17.3513 52.3512 13.234C52.3512 9.11704 49.8404 6.76427 45.4517 6.76427H39.6151V19.7263Z" fill="black"/>
<path fill-rule="evenodd" clip-rule="evenodd" d="M58.8543 28.3684C58.8543 24.2057 62.044 21.6496 67.6999 21.3328L74.2145 20.9484V19.1161C74.2145 16.4693 72.4272 14.8858 69.4417 14.8858C66.6134 14.8858 64.8488 16.2428 64.4194 18.3696H59.8046C60.076 14.0711 63.7405 10.9041 69.6224 10.9041C75.3909 10.9041 79.078 13.9581 79.078 18.7313V35.1322H74.3951V31.2186H74.2826C72.9028 33.8655 69.8938 35.5393 66.7722 35.5393C62.112 35.5393 58.8543 32.6437 58.8543 28.3684ZM74.2145 26.2194V24.3418L68.3552 24.7036C65.437 24.9073 63.7858 26.1967 63.7858 28.2327C63.7858 30.3136 65.505 31.6711 68.1292 31.6711C71.5449 31.6711 74.2145 29.3183 74.2145 26.2194Z" fill="black"/>
<path d="M83.4989 39.9279V43.8869C83.8602 43.9545 85.0819 43.9999 85.4895 43.9999C90.421 43.9999 92.7738 42.145 94.8089 36.3761L103.723 11.3338H98.565L92.5469 30.6984H92.457L86.439 11.3338H81.1461L89.7421 35.1548C89.7421 35.1642 89.6683 35.4103 89.5818 35.6986C89.4595 36.1064 89.3119 36.5987 89.3119 36.6253C88.5657 39.0683 87.3439 40.0183 85.0819 40.0183C84.6744 40.0183 83.8602 40.0183 83.4989 39.9279Z" fill="black"/>
</svg>
