<svg width="240" height="240" viewBox="0 0 240 240" fill="none" xmlns="http://www.w3.org/2000/svg">
<path d="M120 220C175.228 220 220 175.228 220 120C220 64.7715 175.228 20 120 20C64.7715 20 20 64.7715 20 120C20 175.228 64.7715 220 120 220Z" stroke="#BEBFC4" stroke-width="2.5" stroke-linecap="round" stroke-linejoin="round"/>
<path fill-rule="evenodd" clip-rule="evenodd" d="M79.6524 79.1304H67.8262C64.3668 79.1304 61.0492 80.5047 58.6031 82.9508C56.1569 85.3969 54.7827 88.7146 54.7827 92.1739V156.522C54.7827 159.981 56.1569 163.299 58.6031 165.745C61.0492 168.191 64.3668 169.565 67.8262 169.565H170.087L143.402 142.88C137.668 149.329 129.308 153.391 120 153.391C102.711 153.391 88.6957 139.376 88.6957 122.087C88.6957 112.779 92.7583 104.419 99.2072 98.6852L79.6524 79.1304ZM149.051 133.772C150.504 130.161 151.304 126.218 151.304 122.087C151.304 104.798 137.289 90.7826 120 90.7826C115.869 90.7826 111.926 91.5827 108.315 93.0362L91.9267 76.6477C92.1725 76.459 92.4117 76.2604 92.6436 76.0522L103.878 64.8174C105.93 62.9747 108.551 61.8886 111.304 61.7391H128.696C131.45 61.8886 134.07 62.9747 136.122 64.8174L147.357 76.0522C149.409 77.8949 152.029 78.981 154.783 79.1304H172.174C175.633 79.1304 178.951 80.5047 181.397 82.9508C183.843 85.3969 185.217 88.7146 185.217 92.1739V156.522C185.217 159.981 183.843 163.299 181.397 165.745C181.335 165.807 181.272 165.869 181.209 165.93L149.051 133.772Z" fill="#BEBFC4"/>
<line x1="50.5651" y1="48.2758" x2="191.203" y2="188.913" stroke="#BEBFC4" stroke-width="2.5" stroke-linecap="round" stroke-linejoin="round"/>
</svg>
