<svg viewBox="0 0 24 24" fill="none" xmlns="http://www.w3.org/2000/svg">
<path d="M17.7002 22C16.5956 22 15.7002 21.1046 15.7002 20C15.7002 18.8954 16.5956 18 17.7002 18C18.8048 18 19.7002 18.8954 19.7002 20C19.7002 21.1046 18.8048 22 17.7002 22Z"/>
<path d="M9.7002 22C8.59563 22 7.7002 21.1046 7.7002 20C7.7002 18.8954 8.59563 18 9.7002 18C10.8048 18 11.7002 18.8954 11.7002 20C11.7002 21.1046 10.8048 22 9.7002 22Z"/>
<path d="M18.2943 7.70568C18.6841 7.31594 18.6841 6.68406 18.2943 6.29432C17.9051 5.90511 17.2743 5.9045 16.8843 6.29295L15 8.17V3C15 2.44772 14.5523 2 14 2C13.4477 2 13 2.44772 13 3V8.17L11.12 6.29001C10.7283 5.89829 10.0928 5.89941 9.70251 6.29251C9.31412 6.68365 9.31524 7.31524 9.705 7.705L13.2929 11.2929C13.6834 11.6834 14.3166 11.6834 14.7071 11.2929L18.2943 7.70568Z"/>
<path fill-rule="evenodd" clip-rule="evenodd" d="M1 3C1 2.44772 1.44772 2 2 2H4.30673C5.47087 2 6.48094 2.80352 6.74271 3.93785L9.20607 14.6124C9.25843 14.8393 9.46044 15 9.69327 15H17.8288C18.0583 15 18.2583 14.8439 18.3139 14.6213L20.5299 5.75746C20.6638 5.22167 21.2067 4.89591 21.7425 5.02986C22.2783 5.16381 22.6041 5.70674 22.4701 6.24254L20.2542 15.1063C19.976 16.2193 18.976 17 17.8288 17H9.69327C8.52913 17 7.51906 16.1965 7.25729 15.0622L4.79393 4.38757C4.74157 4.1607 4.53956 4 4.30673 4H2C1.44772 4 1 3.55228 1 3Z"/>
</svg>
