<svg width="24" height="24" viewBox="0 0 24 24" fill="none" xmlns="http://www.w3.org/2000/svg">
<path d="M12 19C11.7167 19 11.4793 18.904 11.288 18.712C11.096 18.5207 11 18.2833 11 18V13H6C5.71667 13 5.479 12.904 5.287 12.712C5.09567 12.5207 5 12.2833 5 12C5 11.7167 5.09567 11.479 5.287 11.287C5.479 11.0957 5.71667 11 6 11H11V6C11 5.71667 11.096 5.479 11.288 5.287C11.4793 5.09567 11.7167 5 12 5C12.2833 5 12.521 5.09567 12.713 5.287C12.9043 5.479 13 5.71667 13 6V11H18C18.2833 11 18.5207 11.0957 18.712 11.287C18.904 11.479 19 11.7167 19 12C19 12.2833 18.904 12.5207 18.712 12.712C18.5207 12.904 18.2833 13 18 13H13V18C13 18.2833 12.9043 18.5207 12.713 18.712C12.521 18.904 12.2833 19 12 19Z" />
</svg>
