<svg width="129" height="28" viewBox="0 0 129 28" fill="none" xmlns="http://www.w3.org/2000/svg">
    <path
        d="M21.4269 9.33333L24.6749 9.34617C26.5108 9.34617 28 7.85695 28 6.02109V3.32508C28 1.48923 26.5108 0 24.6749 0H21.9789C20.1431 0 18.6538 1.48923 18.6538 3.32508V6.56029C18.6538 8.08803 17.4085 9.32049 15.8936 9.32049H11.5415C10.3219 9.32049 9.32049 10.309 9.32049 11.5415V15.8936C9.32049 17.4214 8.07519 18.6538 6.56029 18.6538H1.10408C0.48785 18.6538 0 19.1545 0 19.7579V26.8831C0 27.4993 0.500688 27.9872 1.10408 27.9872H8.22925C8.84548 27.9872 9.33333 27.4865 9.33333 26.8831V21.4269C9.33333 19.8991 10.5786 18.6667 12.0935 18.6667H15.8936C17.4214 18.6667 18.6538 19.912 18.6538 21.4269V28H27.9872V18.6667H21.414C19.8863 18.6667 18.6538 17.4214 18.6538 15.9065V12.1064C18.6667 10.5786 19.912 9.33333 21.4269 9.33333Z"
    />
    <path
        d="M4.67309 9.34617C7.25396 9.34617 9.34617 7.25396 9.34617 4.67309C9.34617 2.09221 7.25396 0 4.67309 0C2.09221 0 0 2.09221 0 4.67309C0 7.25396 2.09221 9.34617 4.67309 9.34617Z"
    />
    <path d="M65.0124 3.11964H67.5672V24.8803H65.0124V3.11964Z" />
    <path d="M128.035 9.33336H125.48V24.8804H128.035V9.33336Z" />
    <path
        d="M70.276 17.1004C70.276 12.6584 73.8835 9.05089 78.3255 9.05089C82.7675 9.05089 86.375 12.6584 86.375 17.1004C86.375 21.5424 82.7675 25.1499 78.3255 25.1499C73.8835 25.1499 70.276 21.5424 70.276 17.1004ZM72.4842 17.1133C72.4842 20.3356 75.1031 22.9546 78.3255 22.9546C81.5479 22.9546 84.1669 20.3356 84.1669 17.1133C84.1669 13.8909 81.5479 11.2719 78.3255 11.2719C75.1031 11.2719 72.4842 13.8909 72.4842 17.1133Z"
    />
    <path
        d="M127.01 6.30539C127.885 6.1634 128.479 5.33909 128.337 4.46424C128.195 3.58938 127.371 2.99527 126.496 3.13725C125.621 3.27924 125.027 4.10355 125.169 4.9784C125.311 5.85326 126.136 6.44737 127.01 6.30539Z"
    />
    <path
        d="M58.0284 11.734C58.0284 10.4117 59.1068 9.33328 60.4292 9.33328V24.8803H57.8744V22.6464C56.4108 24.1999 54.3311 25.1627 52.033 25.1627C47.4755 25.1627 43.8038 21.3755 43.9835 16.7794C44.1504 12.6198 47.5397 9.23057 51.7121 9.06368C54.2155 8.96097 56.4879 10.0137 58.0284 11.734ZM52.033 22.9546C55.2426 22.9546 57.8615 20.3356 57.8744 17.126V17.1004C57.8615 13.878 55.2554 11.2718 52.033 11.2718C48.8106 11.2718 46.1917 13.8908 46.1917 17.1132C46.1917 20.3356 48.8106 22.9546 52.033 22.9546Z"
    />
    <path
        d="M121.141 9.33328C119.818 9.33328 118.74 10.4117 118.74 11.734C117.199 10.0137 114.927 8.96097 112.424 9.06368C108.251 9.23057 104.862 12.6198 104.695 16.7794C104.515 21.3755 108.187 25.1627 112.745 25.1627C115.043 25.1627 117.122 24.1999 118.586 22.6464V24.8803H121.141V9.33328ZM118.599 17.126C118.586 20.3356 115.967 22.9546 112.757 22.9546C109.535 22.9546 106.916 20.3356 106.916 17.1132C106.916 13.8908 109.535 11.2718 112.757 11.2718C115.98 11.2718 118.586 13.878 118.599 17.1004V17.126Z"
    />
    <path
        d="M102.718 9.33331L96.8638 15.303C96.7611 15.4058 96.7483 15.5726 96.8382 15.7139L103.835 24.8931H100.908L95.0408 17.1774V17.1646L95.028 17.1774H92.409C92.2421 17.1774 92.1137 17.3058 92.1137 17.4727V24.8803H89.5589V3.11964H92.1137V14.5969C92.1137 14.7638 92.2421 14.8922 92.409 14.8922H94.3347L99.7909 9.33331H102.718Z"
    />
</svg>
