<svg width="32" height="32" viewBox="0 0 32 32" fill="none" xmlns="http://www.w3.org/2000/svg">
    <path
        d="M28.1999 10.6813L24.4878 10.6667C22.7565 10.6667 21.3333 12.0899 21.3187 13.8359V18.1788C21.3187 19.9101 22.7272 21.3333 24.4732 21.3333H31.9853V32H21.3187V24.4878C21.3187 22.7565 19.9101 21.3333 18.1641 21.3333H13.8212C12.0899 21.3333 10.6667 22.7419 10.6667 24.4878V30.7235C10.6667 31.4131 10.1091 31.9853 9.40486 31.9853H1.26181C0.572215 31.9853 0 31.4278 0 30.7235V22.5805C0 21.8909 0.557542 21.3187 1.26181 21.3187H7.49748C9.22879 21.3187 10.652 19.9101 10.652 18.1641V13.1903C10.652 11.7818 11.7964 10.652 13.1903 10.652H18.1641C19.8955 10.652 21.3187 9.24347 21.3187 7.49748V3.80009C21.3187 1.70197 23.0206 0 25.1187 0H28.1999C30.298 0 32 1.70197 32 3.80009V6.88125C32 8.97937 30.298 10.6813 28.1999 10.6813Z" />
    <path
        d="M10.6813 5.34067C10.6813 8.29024 8.29024 10.6813 5.34067 10.6813C2.3911 10.6813 0 8.29024 0 5.34067C0 2.3911 2.3911 0 5.34067 0C8.29024 0 10.6813 2.3911 10.6813 5.34067Z" />
</svg>
