<svg viewBox="0 0 24 24" fill="none" xmlns="http://www.w3.org/2000/svg">
<path d="M18.2942 15.7054C18.6838 15.3158 18.6838 14.6842 18.2942 14.2946C17.905 13.9053 17.2739 13.905 16.8842 14.2938L12.9996 18.17L12.9996 3C12.9996 2.44772 12.5519 2 11.9996 2C11.4473 2 10.9996 2.44771 10.9996 3L10.9996 18.17L7.11963 14.29C6.72792 13.8983 6.09247 13.8994 5.70214 14.2925C5.31375 14.6836 5.31487 15.3152 5.70463 15.705L11.2925 21.2929C11.683 21.6834 12.3162 21.6834 12.7067 21.2929L18.2942 15.7054Z"/>
<path d="M18.2942 15.7054C18.6838 15.3158 18.6838 14.6842 18.2942 14.2946C17.905 13.9053 17.2739 13.905 16.8842 14.2938L12.9996 18.17L12.9996 3C12.9996 2.44772 12.5519 2 11.9996 2C11.4473 2 10.9996 2.44771 10.9996 3L10.9996 18.17L7.11963 14.29C6.72792 13.8983 6.09247 13.8994 5.70214 14.2925C5.31375 14.6836 5.31487 15.3152 5.70463 15.705L11.2925 21.2929C11.683 21.6834 12.3162 21.6834 12.7067 21.2929L18.2942 15.7054Z"/>
</svg>
