<svg width="24" height="24" viewBox="0 0 24 24" fill="none" xmlns="http://www.w3.org/2000/svg">
<path d="M11.3 19.3001C11.1167 19.1167 11.0207 18.8834 11.012 18.6001C11.004 18.3167 11.0917 18.0834 11.275 17.9001L16.175 13.0001L5 13.0001C4.71667 13.0001 4.479 12.9041 4.287 12.7121C4.09567 12.5207 4 12.2834 4 12.0001C4 11.7167 4.09567 11.4791 4.287 11.2871C4.479 11.0957 4.71667 11.0001 5 11.0001L16.175 11.0001L11.275 6.10005C11.0917 5.91672 11.004 5.68339 11.012 5.40005C11.0207 5.11672 11.1167 4.88339 11.3 4.70005C11.4833 4.51672 11.7167 4.42505 12 4.42505C12.2833 4.42505 12.5167 4.51672 12.7 4.70005L19.3 11.3001C19.4 11.3834 19.471 11.4874 19.513 11.6121C19.5543 11.7374 19.575 11.8667 19.575 12.0001C19.575 12.1334 19.5543 12.2584 19.513 12.3751C19.471 12.4917 19.4 12.6001 19.3 12.7001L12.7 19.3001C12.5167 19.4834 12.2833 19.5751 12 19.5751C11.7167 19.5751 11.4833 19.4834 11.3 19.3001Z" />
</svg>
