<svg width="24" height="24" viewBox="0 0 24 24" fill="none" xmlns="http://www.w3.org/2000/svg">
<path d="M12 19.575C11.8667 19.575 11.7417 19.554 11.625 19.512C11.5084 19.4707 11.4 19.4 11.3 19.3L4.70002 12.7C4.50002 12.5 4.40002 12.2623 4.40002 11.987C4.40002 11.7123 4.50002 11.475 4.70002 11.275C4.90002 11.075 5.13336 10.975 5.40002 10.975C5.66669 10.975 5.90002 11.075 6.10002 11.275L11 16.175L11 4.975C11 4.69167 11.096 4.45833 11.288 4.275C11.4794 4.09167 11.7167 4 12 4C12.2834 4 12.521 4.09567 12.713 4.287C12.9044 4.479 13 4.71667 13 5L13 16.175L17.9 11.275C18.1 11.075 18.3334 10.975 18.6 10.975C18.8667 10.975 19.1 11.075 19.3 11.275C19.5 11.475 19.6 11.7123 19.6 11.987C19.6 12.2623 19.5 12.5 19.3 12.7L12.7 19.3C12.6 19.4 12.4917 19.4707 12.375 19.512C12.2584 19.554 12.1334 19.575 12 19.575Z" />
</svg>
