<svg viewBox="0 0 24 24" fill="none" xmlns="http://www.w3.org/2000/svg">
<path d="M11 7.75C11 7.33579 11.3358 7 11.75 7C12.1642 7 12.5 7.33579 12.5 7.75V12.25L16.3746 14.5489C16.7188 14.7531 16.8298 15.1992 16.6214 15.5409C16.4159 15.878 15.9768 15.9861 15.6383 15.783L11 13V7.75Z"/>
<path fill-rule="evenodd" clip-rule="evenodd" d="M2 12C2 6.48 6.47 2 11.99 2C17.52 2 22 6.48 22 12C22 17.52 17.52 22 11.99 22C6.47 22 2 17.52 2 12ZM4 12C4 16.42 7.58 20 12 20C16.42 20 20 16.42 20 12C20 7.58 16.42 4 12 4C7.58 4 4 7.58 4 12Z"/>
</svg>
