<svg width="24" height="24" viewBox="0 0 24 24" fill="none" xmlns="http://www.w3.org/2000/svg">
<path d="M18.2946 5.70511C18.684 6.09447 18.684 6.72575 18.2946 7.11511L13.4096 12.0001L18.2946 16.8851C18.684 17.2745 18.684 17.9057 18.2946 18.2951C17.9053 18.6845 17.274 18.6845 16.8846 18.2951L11.9996 13.4101L7.11462 18.2951C6.72526 18.6845 6.09398 18.6845 5.70462 18.2951C5.31526 17.9057 5.31526 17.2745 5.70462 16.8851L10.5896 12.0001L5.70462 7.11511C5.31526 6.72575 5.31526 6.09447 5.70462 5.70511C6.09398 5.31575 6.72526 5.31575 7.11462 5.70511L11.9996 10.5901L16.8846 5.70511C17.274 5.31575 17.9053 5.31575 18.2946 5.70511Z" />
</svg>
