<svg width="24" height="24" viewBox="0 0 24 24" fill="none" xmlns="http://www.w3.org/2000/svg">
<path fill-rule="evenodd" clip-rule="evenodd" d="M16.6146 8.56358C16.9951 8.18305 16.9951 7.56608 16.6146 7.18555C16.234 6.80501 15.6171 6.80501 15.2365 7.18555L11.9 10.5221L8.5634 7.18555C8.18287 6.80501 7.5659 6.80501 7.18536 7.18555C6.80483 7.56608 6.80483 8.18305 7.18536 8.56358L10.5219 11.9001L7.18536 15.2367C6.80483 15.6172 6.80483 16.2342 7.18536 16.6147C7.5659 16.9953 8.18287 16.9953 8.5634 16.6147L11.9 13.2782L15.2365 16.6147C15.6171 16.9953 16.234 16.9953 16.6146 16.6147C16.9951 16.2342 16.9951 15.6172 16.6146 15.2367L13.278 11.9001L16.6146 8.56358Z" />
</svg>
