<svg width="24" height="24" viewBox="0 0 24 24" fill="none" xmlns="http://www.w3.org/2000/svg">
<path d="M15.3 13.2999L11.7 9.6999C11.6 9.5999 11.5293 9.49157 11.488 9.3749C11.446 9.25824 11.425 9.13324 11.425 8.9999C11.425 8.86657 11.446 8.74157 11.488 8.6249C11.5293 8.50824 11.6 8.3999 11.7 8.2999L15.3 4.6999C15.5 4.4999 15.7333 4.3999 16 4.3999C16.2667 4.3999 16.5 4.4999 16.7 4.6999C16.9 4.8999 17 5.13724 17 5.4119C17 5.68724 16.9 5.9249 16.7 6.1249L14.825 7.9999H21C21.2833 7.9999 21.5207 8.09557 21.712 8.2869C21.904 8.4789 22 8.71657 22 8.9999C22 9.28324 21.904 9.52057 21.712 9.7119C21.5207 9.9039 21.2833 9.9999 21 9.9999H14.825L16.7 11.8749C16.9 12.0749 17 12.3082 17 12.5749C17 12.8416 16.9 13.0749 16.7 13.2749C16.5 13.4749 16.271 13.5832 16.013 13.5999C15.7543 13.6166 15.5167 13.5166 15.3 13.2999ZM7.3 19.2749C7.5 19.4749 7.73333 19.5789 8 19.5869C8.26667 19.5956 8.5 19.4999 8.7 19.2999L12.3 15.6999C12.4 15.5999 12.471 15.4916 12.513 15.3749C12.5543 15.2582 12.575 15.1332 12.575 14.9999C12.575 14.8666 12.5543 14.7416 12.513 14.6249C12.471 14.5082 12.4 14.3999 12.3 14.2999L8.7 10.6999C8.5 10.4999 8.26667 10.3999 8 10.3999C7.73333 10.3999 7.5 10.4999 7.3 10.6999C7.1 10.8999 7 11.1372 7 11.4119C7 11.6872 7.1 11.9249 7.3 12.1249L9.175 13.9999H3C2.71667 13.9999 2.47933 14.0956 2.288 14.2869C2.096 14.4789 2 14.7166 2 14.9999C2 15.2832 2.096 15.5206 2.288 15.7119C2.47933 15.9039 2.71667 15.9999 3 15.9999H9.175L7.3 17.8749C7.1 18.0749 7 18.3082 7 18.5749C7 18.8416 7.1 19.0749 7.3 19.2749Z" />
</svg>
