<svg width="24" height="24" viewBox="0 0 24 24" fill="none" xmlns="http://www.w3.org/2000/svg">
<path d="M13 22L12.75 19H12.5C10.1333 19 8.125 18.175 6.475 16.525C4.825 14.875 4 12.8667 4 10.5C4 8.13333 4.825 6.125 6.475 4.475C8.125 2.825 10.1333 2 12.5 2C13.6833 2 14.7873 2.22067 15.812 2.662C16.8373 3.104 17.7377 3.71233 18.513 4.487C19.2877 5.26233 19.8957 6.16233 20.337 7.187C20.779 8.21233 21 9.31667 21 10.5C21 13.0333 20.2417 15.304 18.725 17.312C17.2083 19.3207 15.3 20.8833 13 22ZM12.475 15.975C12.7583 15.975 13 15.875 13.2 15.675C13.4 15.475 13.5 15.2333 13.5 14.95C13.5 14.6667 13.4 14.425 13.2 14.225C13 14.025 12.7583 13.925 12.475 13.925C12.1917 13.925 11.95 14.025 11.75 14.225C11.55 14.425 11.45 14.6667 11.45 14.95C11.45 15.2333 11.55 15.475 11.75 15.675C11.95 15.875 12.1917 15.975 12.475 15.975ZM12.5 12.8C12.6833 12.8 12.85 12.7333 13 12.6C13.15 12.4667 13.25 12.2833 13.3 12.05C13.3333 11.8333 13.425 11.6373 13.575 11.462C13.725 11.2873 13.9833 11.0167 14.35 10.65C14.65 10.35 14.9 10.025 15.1 9.675C15.3 9.325 15.4 8.95 15.4 8.55C15.4 7.7 15.1127 7.06233 14.538 6.637C13.9627 6.21233 13.2833 6 12.5 6C11.9167 6 11.4127 6.13333 10.988 6.4C10.5627 6.66667 10.2167 7 9.95 7.4C9.83333 7.58333 9.81233 7.775 9.887 7.975C9.96233 8.175 10.1167 8.31667 10.35 8.4C10.5167 8.46667 10.6833 8.46667 10.85 8.4C11.0167 8.33333 11.1667 8.20833 11.3 8.025C11.4333 7.84167 11.596 7.69167 11.788 7.575C11.9793 7.45833 12.2167 7.4 12.5 7.4C12.95 7.4 13.2877 7.525 13.513 7.775C13.7377 8.025 13.85 8.3 13.85 8.6C13.85 8.88333 13.7667 9.13733 13.6 9.362C13.4333 9.58733 13.2333 9.81667 13 10.05C12.5333 10.45 12.2207 10.775 12.062 11.025C11.904 11.275 11.8083 11.6167 11.775 12.05C11.7583 12.25 11.821 12.425 11.963 12.575C12.1043 12.725 12.2833 12.8 12.5 12.8ZM15 17V18.35C16.1833 17.35 17.1457 16.1793 17.887 14.838C18.629 13.496 19 12.05 19 10.5C19 8.68333 18.371 7.14567 17.113 5.887C15.8543 4.629 14.3167 4 12.5 4C10.6833 4 9.146 4.629 7.888 5.887C6.62933 7.14567 6 8.68333 6 10.5C6 12.3167 6.62933 13.8543 7.888 15.113C9.146 16.371 10.6833 17 12.5 17H15Z" />
</svg>
