<svg width="24" height="24" viewBox="0 0 24 24" fill="none" xmlns="http://www.w3.org/2000/svg">
<path d="M7 20C6.45 20 5.97933 19.8043 5.588 19.413C5.196 19.021 5 18.55 5 18V5C4.71667 5 4.479 4.90433 4.287 4.713C4.09567 4.521 4 4.28333 4 4C4 3.71667 4.09567 3.479 4.287 3.287C4.479 3.09567 4.71667 3 5 3H9C9 2.71667 9.096 2.479 9.288 2.287C9.47933 2.09567 9.71667 2 10 2H14C14.2833 2 14.521 2.09567 14.713 2.287C14.9043 2.479 15 2.71667 15 3H19C19.2833 3 19.5207 3.09567 19.712 3.287C19.904 3.479 20 3.71667 20 4C20 4.28333 19.904 4.521 19.712 4.713C19.5207 4.90433 19.2833 5 19 5V18C19 18.55 18.8043 19.021 18.413 19.413C18.021 19.8043 17.55 20 17 20H7ZM7 5V18H17V5H7ZM9 15C9 15.2833 9.096 15.5207 9.288 15.712C9.47933 15.904 9.71667 16 10 16C10.2833 16 10.521 15.904 10.713 15.712C10.9043 15.5207 11 15.2833 11 15V8C11 7.71667 10.9043 7.479 10.713 7.287C10.521 7.09567 10.2833 7 10 7C9.71667 7 9.47933 7.09567 9.288 7.287C9.096 7.479 9 7.71667 9 8V15ZM13 15C13 15.2833 13.096 15.5207 13.288 15.712C13.4793 15.904 13.7167 16 14 16C14.2833 16 14.521 15.904 14.713 15.712C14.9043 15.5207 15 15.2833 15 15V8C15 7.71667 14.9043 7.479 14.713 7.287C14.521 7.09567 14.2833 7 14 7C13.7167 7 13.4793 7.09567 13.288 7.287C13.096 7.479 13 7.71667 13 8V15Z" />
</svg>
