<svg width="24" height="24" viewBox="0 0 24 24" fill="none" xmlns="http://www.w3.org/2000/svg">
<path fill-rule="evenodd" clip-rule="evenodd" d="M22 12C22 17.52 17.52 22 12 22C6.48 22 2 17.52 2 12C2 6.48 6.48 2 12 2C17.52 2 22 6.48 22 12ZM12 7C12.5523 7 13 7.44772 13 8L13 12C13 12.5523 12.5523 13 12 13C11.4477 13 11 12.5523 11 12L11 8C11 7.44772 11.4477 7 12 7ZM12 14.75C11.3096 14.75 10.75 15.3096 10.75 16C10.75 16.6904 11.3096 17.25 12 17.25C12.6904 17.25 13.25 16.6904 13.25 16C13.25 15.3096 12.6904 14.75 12 14.75Z" />
</svg>
