<svg width="24" height="24" viewBox="0 0 24 24" fill="none" xmlns="http://www.w3.org/2000/svg">
<path d="M13.25 8C13.25 8.69036 12.6904 9.25 12 9.25C11.3096 9.25 10.75 8.69036 10.75 8C10.75 7.30964 11.3096 6.75 12 6.75C12.6904 6.75 13.25 7.30964 13.25 8Z" />
<path d="M11 16C11 16.5523 11.4477 17 12 17C12.5523 17 13 16.5523 13 16V12C13 11.4477 12.5523 11 12 11C11.4477 11 11 11.4477 11 12V16Z" />
<path fill-rule="evenodd" clip-rule="evenodd" d="M2 12C2 6.48 6.48 2 12 2C17.52 2 22 6.48 22 12C22 17.52 17.52 22 12 22C6.48 22 2 17.52 2 12ZM4 12C4 16.41 7.59 20 12 20C16.41 20 20 16.41 20 12C20 7.59 16.41 4 12 4C7.59 4 4 7.59 4 12Z" />
</svg>
