<svg width="24" height="24" viewBox="0 0 24 24" fill="none" xmlns="http://www.w3.org/2000/svg">
<path d="M12.0027 6.87117C9.16502 6.87117 6.87612 9.16007 6.87612 11.9978C6.87612 14.8355 9.16502 17.1244 12.0027 17.1244C14.8404 17.1244 17.1293 14.8355 17.1293 11.9978C17.1293 9.16007 14.8404 6.87117 12.0027 6.87117ZM12.0027 15.3307C10.1689 15.3307 8.66976 13.836 8.66976 11.9978C8.66976 10.1595 10.1645 8.66481 12.0027 8.66481C13.841 8.66481 15.3357 10.1595 15.3357 11.9978C15.3357 13.836 13.8365 15.3307 12.0027 15.3307ZM18.5348 6.66146C18.5348 7.32627 17.9994 7.85722 17.339 7.85722C16.6742 7.85722 16.1433 7.32181 16.1433 6.66146C16.1433 6.00112 16.6787 5.4657 17.339 5.4657C17.9994 5.4657 18.5348 6.00112 18.5348 6.66146ZM21.9302 7.87507C21.8544 6.27329 21.4885 4.85443 20.315 3.68544C19.1461 2.51645 17.7272 2.15059 16.1254 2.07027C14.4746 1.97658 9.52642 1.97658 7.87556 2.07027C6.27824 2.14612 4.85938 2.51199 3.68593 3.68098C2.51248 4.84997 2.15107 6.26882 2.07076 7.87061C1.97706 9.52147 1.97706 14.4696 2.07076 16.1205C2.14661 17.7223 2.51248 19.1411 3.68593 20.3101C4.85938 21.4791 6.27377 21.845 7.87556 21.9253C9.52642 22.019 14.4746 22.019 16.1254 21.9253C17.7272 21.8494 19.1461 21.4835 20.315 20.3101C21.484 19.1411 21.8499 17.7223 21.9302 16.1205C22.0239 14.4696 22.0239 9.52593 21.9302 7.87507ZM19.7975 17.8918C19.4495 18.7663 18.7757 19.44 17.8968 19.7925C16.5805 20.3146 13.4573 20.1941 12.0027 20.1941C10.5482 20.1941 7.42045 20.3101 6.10869 19.7925C5.23417 19.4445 4.56044 18.7708 4.20796 17.8918C3.68593 16.5756 3.8064 13.4523 3.8064 11.9978C3.8064 10.5432 3.69039 7.4155 4.20796 6.10374C4.55598 5.22922 5.22971 4.55549 6.10869 4.20301C7.42492 3.68098 10.5482 3.80145 12.0027 3.80145C13.4573 3.80145 16.585 3.68544 17.8968 4.20301C18.7713 4.55103 19.445 5.22476 19.7975 6.10374C20.3195 7.41997 20.199 10.5432 20.199 11.9978C20.199 13.4523 20.3195 16.58 19.7975 17.8918Z" />
</svg>
