<svg viewBox="0 0 24 24" fill="none" xmlns="http://www.w3.org/2000/svg">
<path d="M12.0022 6.87117C9.16453 6.87117 6.87563 9.16007 6.87563 11.9978C6.87563 14.8355 9.16453 17.1244 12.0022 17.1244C14.8399 17.1244 17.1288 14.8355 17.1288 11.9978C17.1288 9.16007 14.8399 6.87117 12.0022 6.87117ZM12.0022 15.3307C10.1684 15.3307 8.66927 13.836 8.66927 11.9978C8.66927 10.1595 10.164 8.66481 12.0022 8.66481C13.8405 8.66481 15.3352 10.1595 15.3352 11.9978C15.3352 13.836 13.836 15.3307 12.0022 15.3307ZM18.5343 6.66146C18.5343 7.32627 17.9989 7.85722 17.3385 7.85722C16.6737 7.85722 16.1428 7.32181 16.1428 6.66146C16.1428 6.00112 16.6782 5.4657 17.3385 5.4657C17.9989 5.4657 18.5343 6.00112 18.5343 6.66146ZM21.9297 7.87507C21.8539 6.27329 21.488 4.85443 20.3146 3.68544C19.1456 2.51645 17.7267 2.15059 16.1249 2.07027C14.4741 1.97658 9.52593 1.97658 7.87507 2.07027C6.27775 2.14612 4.8589 2.51199 3.68544 3.68098C2.51199 4.84997 2.15059 6.26882 2.07027 7.87061C1.97658 9.52147 1.97658 14.4696 2.07027 16.1205C2.14612 17.7223 2.51199 19.1411 3.68544 20.3101C4.8589 21.4791 6.27328 21.845 7.87507 21.9253C9.52593 22.019 14.4741 22.019 16.1249 21.9253C17.7267 21.8494 19.1456 21.4835 20.3146 20.3101C21.4835 19.1411 21.8494 17.7223 21.9297 16.1205C22.0234 14.4696 22.0234 9.52593 21.9297 7.87507ZM19.797 17.8918C19.449 18.7663 18.7752 19.44 17.8963 19.7925C16.58 20.3146 13.4568 20.1941 12.0022 20.1941C10.5477 20.1941 7.41997 20.3101 6.1082 19.7925C5.23369 19.4445 4.55996 18.7708 4.20747 17.8918C3.68544 16.5756 3.80591 13.4523 3.80591 11.9978C3.80591 10.5432 3.68991 7.4155 4.20747 6.10374C4.55549 5.22922 5.22922 4.55549 6.1082 4.20301C7.42443 3.68098 10.5477 3.80145 12.0022 3.80145C13.4568 3.80145 16.5845 3.68544 17.8963 4.20301C18.7708 4.55103 19.4445 5.22476 19.797 6.10374C20.319 7.41997 20.1985 10.5432 20.1985 11.9978C20.1985 13.4523 20.319 16.58 19.797 17.8918Z"/>
</svg>
