<svg width="24" height="24" viewBox="0 0 24 24" fill="none" xmlns="http://www.w3.org/2000/svg">
<path fill-rule="evenodd" clip-rule="evenodd" d="M12.5343 21.9801C13.6604 21.9166 14.7691 21.6637 15.8134 21.2305C17.03 20.7258 18.1352 19.9865 19.0661 19.0546C19.9969 18.1228 20.7351 17.0168 21.2385 15.7997C21.7418 14.5829 22.0005 13.2789 22 11.9622C22.0019 10.6504 21.7444 9.35109 21.2422 8.1392C20.7398 6.92698 20.0026 5.82613 19.073 4.90006C18.1433 3.97398 17.0397 3.24099 15.8255 2.74329C14.6122 2.24594 13.3126 1.99338 12.0014 2.00013C11.8623 2.00016 11.7225 2.00261 11.581 2.00841C9.02374 2.06592 6.59013 3.12091 4.79995 4.94833C3.00817 6.77739 2.00333 9.23497 2.00028 11.7953C1.98045 14.4643 3.01509 17.0332 4.87929 18.9434C6.6169 20.7239 8.94421 21.7978 11.4133 21.972C11.508 21.9913 11.6052 21.9968 11.7019 21.9883C11.7873 21.9919 11.8728 21.9944 11.9585 21.9958L11.9756 21.9959C12.1001 21.9959 12.2246 21.9935 12.3488 21.9888C12.4109 21.9916 12.473 21.9887 12.5343 21.9801ZM14.8091 4.49337C15.5245 5.60963 16.0602 6.78205 16.4125 7.99548H18.9478C18.5964 7.38249 18.1642 6.81775 17.6615 6.31698C16.9187 5.5771 16.037 4.99148 15.067 4.59385C14.9815 4.55883 14.8956 4.52534 14.8091 4.49337ZM12.004 4.07178C13.0673 5.30822 13.8342 6.62546 14.3133 7.99548H9.69492C10.1741 6.62536 10.9409 5.3081 12.004 4.07178ZM14.8045 9.99548H9.20369C9.12846 10.5121 9.09106 11.0341 9.09106 11.5599C9.09106 12.4411 9.19622 13.3422 9.40957 14.2562H14.5981C14.8117 13.3418 14.917 12.4403 14.917 11.5587C14.917 11.0333 14.8796 10.5118 14.8045 9.99548ZM13.9642 16.2562H10.0431C10.5156 17.4384 11.1669 18.6335 12.0032 19.8274C12.8398 18.6335 13.4914 17.4384 13.9642 16.2562ZM7.36308 14.2562C7.18237 13.3542 7.09106 12.4538 7.09106 11.5599C7.09106 11.0336 7.12274 10.5117 7.18585 9.99548H4.2135C4.07341 10.5822 4.00079 11.1876 4.00028 11.8005L4.00027 11.8074C3.99376 12.6449 4.1166 13.4701 4.35805 14.2562H7.36308ZM5.28496 16.2562H7.90927C8.28991 17.3571 8.80168 18.4549 9.44113 19.5406C8.26852 19.1301 7.19451 18.4522 6.31063 17.5465C5.923 17.1493 5.58006 16.7166 5.28496 16.2562ZM16.0981 16.2562H18.758C18.442 16.7561 18.0711 17.2208 17.6511 17.6412C16.9059 18.3872 16.021 18.9791 15.047 19.3831C14.8825 19.4514 14.7159 19.5141 14.5476 19.5711C15.1957 18.4754 15.7137 17.3673 16.0981 16.2562ZM19.6666 14.2562H16.6447C16.8256 13.3538 16.917 12.453 16.917 11.5587C16.917 11.0328 16.8854 10.5113 16.8223 9.99548H19.7566C19.9189 10.6362 20.001 11.2961 20 11.9601V11.9622C20.0004 12.7404 19.8877 13.5131 19.6666 14.2562ZM9.23277 4.44092C8.50051 5.57285 7.95358 6.76301 7.59575 7.99548H4.99479C5.32869 7.39917 5.74224 6.84444 6.22865 6.34791C7.07744 5.48146 8.10796 4.83317 9.23277 4.44092ZM12.0014 2.00013L12.004 2.00013V2.08749L11.9991 2.08541L11.9986 2.00015L12.0014 2.00013Z" />
</svg>
