<svg width="24" height="24" viewBox="0 0 24 24" fill="none" xmlns="http://www.w3.org/2000/svg">
<path d="M10 10C10 11.1 10.9 12 12 12C13.1 12 14 11.1 14 10C14 8.9 13.1 8 12 8C10.9 8 10 8.9 10 10Z" />
<path fill-rule="evenodd" clip-rule="evenodd" d="M4 10.2C4 13.38 6.45 17.12 11.34 21.43C11.72 21.76 12.29 21.76 12.67 21.43C17.55 17.12 20 13.38 20 10.2C20 5.22 16.2 2 12 2C7.8 2 4 5.22 4 10.2ZM6 10.2C6 6.38577 8.84236 4 12 4C15.1576 4 18 6.38577 18 10.2C18 11.2728 17.5841 12.6237 16.4906 14.2974C15.5042 15.8073 14.0253 17.4884 12.0043 19.3391C9.9788 17.488 8.4976 15.8066 7.51009 14.2966C6.41581 12.6233 6 11.2727 6 10.2Z" />
</svg>
