<svg width="24" height="24" viewBox="0 0 24 24" fill="none" xmlns="http://www.w3.org/2000/svg">
<path d="M12.3589 21.4202C10.1256 21.4202 8.23389 20.6452 6.68389 19.0952C5.13389 17.5452 4.35889 15.6535 4.35889 13.4202C4.35889 11.5368 4.91722 9.72851 6.03389 7.99517C7.15055 6.26184 8.68389 4.74517 10.6339 3.44517C11.0006 3.19517 11.3797 3.18267 11.7714 3.40767C12.1631 3.63267 12.3589 3.97017 12.3589 4.42017V5.72017C12.3589 6.28684 12.5547 6.76184 12.9464 7.14517C13.3381 7.5285 13.8172 7.72017 14.3839 7.72017C14.6672 7.72017 14.9381 7.65767 15.1964 7.53267C15.4547 7.40767 15.6839 7.2285 15.8839 6.99517C16.0172 6.8285 16.1881 6.72434 16.3964 6.68267C16.6047 6.641 16.8006 6.68684 16.9839 6.82017C18.0339 7.57017 18.8589 8.52851 19.4589 9.69517C20.0589 10.8618 20.3589 12.1035 20.3589 13.4202C20.3589 15.6535 19.5839 17.5452 18.0339 19.0952C16.4839 20.6452 14.5922 21.4202 12.3589 21.4202ZM6.35889 13.4202C6.35889 14.2868 6.53389 15.1077 6.88389 15.8827C7.23389 16.6577 7.73389 17.3368 8.38389 17.9202C8.36722 17.8368 8.35889 17.7618 8.35889 17.6952V17.4702C8.35889 16.9368 8.45889 16.4368 8.65889 15.9702C8.85889 15.5035 9.15055 15.0785 9.53389 14.6952L12.3589 11.9202L15.1839 14.6952C15.5672 15.0785 15.8589 15.5035 16.0589 15.9702C16.2589 16.4368 16.3589 16.9368 16.3589 17.4702V17.6952C16.3589 17.7618 16.3506 17.8368 16.3339 17.9202C16.9839 17.3368 17.4839 16.6577 17.8339 15.8827C18.1839 15.1077 18.3589 14.2868 18.3589 13.4202C18.3589 12.5868 18.2047 11.7993 17.8964 11.0577C17.5881 10.316 17.1422 9.6535 16.5589 9.07017C16.2256 9.28684 15.8756 9.44934 15.5089 9.55767C15.1422 9.66601 14.7672 9.72017 14.3839 9.72017C13.3506 9.72017 12.4547 9.3785 11.6964 8.69517C10.9381 8.01184 10.5006 7.17017 10.3839 6.17017C9.08389 7.27017 8.08805 8.44101 7.39639 9.68267C6.70472 10.9243 6.35889 12.1702 6.35889 13.4202ZM12.3589 14.7202L10.9339 16.1202C10.7506 16.3035 10.6089 16.5118 10.5089 16.7452C10.4089 16.9785 10.3589 17.2202 10.3589 17.4702C10.3589 18.0035 10.5547 18.4618 10.9464 18.8452C11.3381 19.2285 11.8089 19.4202 12.3589 19.4202C12.9089 19.4202 13.3797 19.2285 13.7714 18.8452C14.1631 18.4618 14.3589 18.0035 14.3589 17.4702C14.3589 17.2035 14.3089 16.9577 14.2089 16.7327C14.1089 16.5077 13.9672 16.3035 13.7839 16.1202L12.3589 14.7202Z"/>
</svg>
