<svg width="24" height="24" viewBox="0 0 24 24" fill="none" xmlns="http://www.w3.org/2000/svg">
<path d="M6 20C5.16667 20 4.45833 19.7083 3.875 19.125C3.29167 18.5417 3 17.8333 3 17C2.45 17 1.97933 16.8043 1.588 16.413C1.196 16.021 1 15.55 1 15V6C1 5.45 1.196 4.97933 1.588 4.588C1.97933 4.196 2.45 4 3 4H15C15.55 4 16.021 4.196 16.413 4.588C16.8043 4.97933 17 5.45 17 6V8H19.5C19.6667 8 19.8167 8.03333 19.95 8.1C20.0833 8.16667 20.2 8.26667 20.3 8.4L22.8 11.725C22.8667 11.8083 22.9167 11.9 22.95 12C22.9833 12.1 23 12.2083 23 12.325V16C23 16.2833 22.904 16.5207 22.712 16.712C22.5207 16.904 22.2833 17 22 17H21C21 17.8333 20.7083 18.5417 20.125 19.125C19.5417 19.7083 18.8333 20 18 20C17.1667 20 16.4583 19.7083 15.875 19.125C15.2917 18.5417 15 17.8333 15 17H9C9 17.8333 8.70833 18.5417 8.125 19.125C7.54167 19.7083 6.83333 20 6 20ZM6 18C6.28333 18 6.521 17.904 6.713 17.712C6.90433 17.5207 7 17.2833 7 17C7 16.7167 6.90433 16.4793 6.713 16.288C6.521 16.096 6.28333 16 6 16C5.71667 16 5.479 16.096 5.287 16.288C5.09567 16.4793 5 16.7167 5 17C5 17.2833 5.09567 17.5207 5.287 17.712C5.479 17.904 5.71667 18 6 18ZM3 6V15H3.8C4.08333 14.7 4.40833 14.4583 4.775 14.275C5.14167 14.0917 5.55 14 6 14C6.45 14 6.85833 14.0917 7.225 14.275C7.59167 14.4583 7.91667 14.7 8.2 15H15V6H3ZM18 18C18.2833 18 18.5207 17.904 18.712 17.712C18.904 17.5207 19 17.2833 19 17C19 16.7167 18.904 16.4793 18.712 16.288C18.5207 16.096 18.2833 16 18 16C17.7167 16 17.4793 16.096 17.288 16.288C17.096 16.4793 17 16.7167 17 17C17 17.2833 17.096 17.5207 17.288 17.712C17.4793 17.904 17.7167 18 18 18ZM17 13H21.25L19 10H17V13Z" />
</svg>
