<svg width="24" height="24" viewBox="0 0 24 24" fill="none" xmlns="http://www.w3.org/2000/svg">
<path d="M6 23C5.45 23 4.97933 22.8043 4.588 22.413C4.196 22.021 4 21.55 4 21V11C4 10.45 4.196 9.979 4.588 9.587C4.97933 9.19567 5.45 9 6 9H7V7C7 5.61667 7.48767 4.43733 8.463 3.462C9.43767 2.48733 10.6167 2 12 2C13.3833 2 14.5627 2.48733 15.538 3.462C16.5127 4.43733 17 5.61667 17 7V9H18C18.55 9 19.021 9.19567 19.413 9.587C19.8043 9.979 20 10.45 20 11V21C20 21.55 19.8043 22.021 19.413 22.413C19.021 22.8043 18.55 23 18 23H6ZM12 18C12.55 18 13.021 17.8043 13.413 17.413C13.8043 17.021 14 16.55 14 16C14 15.45 13.8043 14.979 13.413 14.587C13.021 14.1957 12.55 14 12 14C11.45 14 10.9793 14.1957 10.588 14.587C10.196 14.979 10 15.45 10 16C10 16.55 10.196 17.021 10.588 17.413C10.9793 17.8043 11.45 18 12 18ZM9 9H15V7C15 6.16667 14.7083 5.45833 14.125 4.875C13.5417 4.29167 12.8333 4 12 4C11.1667 4 10.4583 4.29167 9.875 4.875C9.29167 5.45833 9 6.16667 9 7V9Z" />
</svg>
