<svg width="24" height="24" viewBox="0 0 24 24" fill="none" xmlns="http://www.w3.org/2000/svg">
<path d="M9.325 16.275C9.14167 16.0583 9.05 15.8123 9.05 15.537C9.05 15.2623 9.14167 15.0333 9.325 14.85L11.175 13H4C3.71667 13 3.47933 12.904 3.288 12.712C3.096 12.5207 3 12.2833 3 12C3 11.7167 3.096 11.479 3.288 11.287C3.47933 11.0957 3.71667 11 4 11H11.175L9.325 9.15C9.125 8.95 9.025 8.71267 9.025 8.438C9.025 8.16267 9.125 7.925 9.325 7.725C9.50833 7.525 9.73767 7.425 10.013 7.425C10.2877 7.425 10.5167 7.51667 10.7 7.7L14.3 11.3C14.4 11.4 14.471 11.5083 14.513 11.625C14.5543 11.7417 14.575 11.8667 14.575 12C14.575 12.1333 14.5543 12.2583 14.513 12.375C14.471 12.4917 14.4 12.6 14.3 12.7L10.7 16.3C10.5 16.5 10.2667 16.5917 10 16.575C9.73333 16.5583 9.50833 16.4583 9.325 16.275ZM13 21C12.7167 21 12.4793 20.904 12.288 20.712C12.096 20.5207 12 20.2833 12 20C12 19.7167 12.096 19.4793 12.288 19.288C12.4793 19.096 12.7167 19 13 19H19V5H13C12.7167 5 12.4793 4.904 12.288 4.712C12.096 4.52067 12 4.28333 12 4C12 3.71667 12.096 3.479 12.288 3.287C12.4793 3.09567 12.7167 3 13 3H19C19.55 3 20.021 3.19567 20.413 3.587C20.8043 3.979 21 4.45 21 5V19C21 19.55 20.8043 20.021 20.413 20.413C20.021 20.8043 19.55 21 19 21H13Z" />
</svg>
