<svg width="24" height="24" viewBox="0 0 24 24" fill="none" xmlns="http://www.w3.org/2000/svg">
<path d="M19 19H5V5H11C11.5523 5 12 4.55228 12 4C12 3.44772 11.5523 3 11 3H5C3.89 3 3 3.9 3 5V19C3 20.1 3.89 21 5 21H19C20.1 21 21 20.1 21 19V13C21 12.4477 20.5523 12 20 12C19.4477 12 19 12.4477 19 13V19ZM15 3C14.4477 3 14 3.44772 14 4C14 4.55228 14.4477 5 15 5H17.59L8.465 14.125C8.07564 14.5144 8.07564 15.1456 8.465 15.535C8.85436 15.9244 9.48564 15.9244 9.875 15.535L19 6.41V9C19 9.55228 19.4477 10 20 10C20.5523 10 21 9.55228 21 9V3H15Z" />
</svg>
