<svg width="24" height="24" viewBox="0 0 24 24" fill="none" xmlns="http://www.w3.org/2000/svg">
<path d="M12 2C5.91333 2 1 6.91333 1 13C1 16.8867 2.98 20.4067 6.28 22.46C6.35333 22.5333 6.5 22.5333 6.57333 22.5333C6.64667 22.5333 6.72 22.46 6.79333 22.3867L10.24 16.74C10.3133 16.5933 10.3133 16.3733 10.0933 16.2267C8.99333 15.5667 8.33333 14.3933 8.33333 13.0733C8.33333 11.02 9.94667 9.40667 12 9.40667C14.0533 9.40667 15.6667 11.02 15.6667 13.0733C15.6667 14.4667 14.86 15.7133 13.6867 16.3733C13.6133 16.4467 13.54 16.52 13.4667 16.5933C13.4667 16.6667 13.4667 16.8133 13.54 16.8867L16.9867 22.5333C17.06 22.68 17.2067 22.68 17.28 22.68C17.3533 22.68 17.4267 22.68 17.4267 22.6067C20.8733 20.6267 23 16.96 23 13.0733C23 6.98667 18.0867 2 12 2Z" />
</svg>
