<svg width="24" height="24" viewBox="0 0 24 24" fill="none" xmlns="http://www.w3.org/2000/svg">
<path d="M10 9.75L11.325 9.1C11.5417 9 11.7667 8.95 12 8.95C12.2333 8.95 12.4583 9 12.675 9.1L14 9.75V5H10V9.75ZM8 17C7.71667 17 7.479 16.904 7.287 16.712C7.09567 16.5207 7 16.2833 7 16C7 15.7167 7.09567 15.479 7.287 15.287C7.479 15.0957 7.71667 15 8 15H11C11.2833 15 11.521 15.0957 11.713 15.287C11.9043 15.479 12 15.7167 12 16C12 16.2833 11.9043 16.5207 11.713 16.712C11.521 16.904 11.2833 17 11 17H8ZM5 21C4.45 21 3.979 20.8043 3.587 20.413C3.19567 20.021 3 19.55 3 19V5C3 4.45 3.19567 3.979 3.587 3.587C3.979 3.19567 4.45 3 5 3H19C19.55 3 20.021 3.19567 20.413 3.587C20.8043 3.979 21 4.45 21 5V19C21 19.55 20.8043 20.021 20.413 20.413C20.021 20.8043 19.55 21 19 21H5ZM5 19H19V5H16V11.375C16 11.7583 15.8417 12.0457 15.525 12.237C15.2083 12.429 14.8833 12.4417 14.55 12.275L12 11L9.45 12.275C9.11667 12.4417 8.79167 12.429 8.475 12.237C8.15833 12.0457 8 11.7583 8 11.375V5H5V19Z" />
</svg>
