<svg width="24" height="24" viewBox="0 0 24 24" fill="none" xmlns="http://www.w3.org/2000/svg">
<path d="M8 11C7.03333 11 6.20833 10.6583 5.525 9.975C4.84167 9.29167 4.5 8.46667 4.5 7.5C4.5 6.53333 4.84167 5.70833 5.525 5.025C6.20833 4.34167 7.03333 4 8 4C8.96667 4 9.79167 4.34167 10.475 5.025C11.1583 5.70833 11.5 6.53333 11.5 7.5C11.5 8.46667 11.1583 9.29167 10.475 9.975C9.79167 10.6583 8.96667 11 8 11ZM8 9C8.41667 9 8.77083 8.85417 9.0625 8.5625C9.35417 8.27083 9.5 7.91667 9.5 7.5C9.5 7.08333 9.35417 6.72917 9.0625 6.4375C8.77083 6.14583 8.41667 6 8 6C7.58333 6 7.22917 6.14583 6.9375 6.4375C6.64583 6.72917 6.5 7.08333 6.5 7.5C6.5 7.91667 6.64583 8.27083 6.9375 8.5625C7.22917 8.85417 7.58333 9 8 9ZM17 20C16.0333 20 15.2083 19.6583 14.525 18.975C13.8417 18.2917 13.5 17.4667 13.5 16.5C13.5 15.5333 13.8417 14.7083 14.525 14.025C15.2083 13.3417 16.0333 13 17 13C17.9667 13 18.7917 13.3417 19.475 14.025C20.1583 14.7083 20.5 15.5333 20.5 16.5C20.5 17.4667 20.1583 18.2917 19.475 18.975C18.7917 19.6583 17.9667 20 17 20ZM17 18C17.4167 18 17.7708 17.8542 18.0625 17.5625C18.3542 17.2708 18.5 16.9167 18.5 16.5C18.5 16.0833 18.3542 15.7292 18.0625 15.4375C17.7708 15.1458 17.4167 15 17 15C16.5833 15 16.2292 15.1458 15.9375 15.4375C15.6458 15.7292 15.5 16.0833 15.5 16.5C15.5 16.9167 15.6458 17.2708 15.9375 17.5625C16.2292 17.8542 16.5833 18 17 18ZM5.2 19.3C5.01667 19.1167 4.925 18.8833 4.925 18.6C4.925 18.3167 5.01667 18.0833 5.2 17.9L18.4 4.7C18.5833 4.51667 18.8167 4.425 19.1 4.425C19.3833 4.425 19.6167 4.51667 19.8 4.7C19.9833 4.88333 20.075 5.11667 20.075 5.4C20.075 5.68333 19.9833 5.91667 19.8 6.1L6.6 19.3C6.41667 19.4833 6.18333 19.575 5.9 19.575C5.61667 19.575 5.38333 19.4833 5.2 19.3Z" />
</svg>
