<svg width="24" height="24" viewBox="0 0 24 24" fill="none" xmlns="http://www.w3.org/2000/svg">
<path d="M12.1746 2C8.06325 2 4 4.74089 4 9.17681C4 11.9978 5.58683 13.6007 6.54855 13.6007C6.94526 13.6007 7.17366 12.4947 7.17366 12.1822C7.17366 11.8095 6.22397 11.0161 6.22397 9.46532C6.22397 6.24357 8.67634 3.9595 11.85 3.9595C14.5789 3.9595 16.5985 5.51026 16.5985 8.35935C16.5985 10.4871 15.745 14.4783 12.98 14.4783C11.9822 14.4783 11.1287 13.757 11.1287 12.7231C11.1287 11.2084 12.1866 9.74182 12.1866 8.17903C12.1866 5.52629 8.42389 6.00715 8.42389 9.21287C8.42389 9.88607 8.50804 10.6314 8.80858 11.2445C8.25559 13.6247 7.12558 17.1711 7.12558 19.6234C7.12558 20.3808 7.23377 21.1261 7.3059 21.8835C7.44214 22.0358 7.37402 22.0197 7.58239 21.9436C9.602 19.1787 9.52987 18.6377 10.4435 15.0192C10.9364 15.9569 12.2107 16.4618 13.2205 16.4618C17.476 16.4618 19.3875 12.3144 19.3875 8.57574C19.3875 4.59663 15.9493 2 12.1746 2Z" />
</svg>
