<svg width="24" height="24" viewBox="0 0 24 24" fill="none" xmlns="http://www.w3.org/2000/svg">
<path d="M14.175 2.22515C16.425 2.72515 18.2917 3.87515 19.775 5.67515C21.2583 7.47515 22 9.58348 22 12.0002C22 13.5168 21.6957 14.9168 21.087 16.2002C20.479 17.4835 19.65 18.5835 18.6 19.5002H20C20.2833 19.5002 20.5207 19.5962 20.712 19.7882C20.904 19.9795 21 20.2168 21 20.5002C21 20.7835 20.904 21.0208 20.712 21.2122C20.5207 21.4042 20.2833 21.5002 20 21.5002H16C15.7167 21.5002 15.4793 21.4042 15.288 21.2122C15.096 21.0208 15 20.7835 15 20.5002V16.5002C15 16.2168 15.096 15.9792 15.288 15.7872C15.4793 15.5958 15.7167 15.5002 16 15.5002C16.2833 15.5002 16.5207 15.5958 16.712 15.7872C16.904 15.9792 17 16.2168 17 16.5002V18.2252C17.9167 17.4752 18.646 16.5668 19.188 15.5002C19.7293 14.4335 20 13.2668 20 12.0002C20 10.0835 19.4127 8.41249 18.238 6.98715C17.0627 5.56249 15.5833 4.64182 13.8 4.22515C13.5667 4.17515 13.375 4.05849 13.225 3.87515C13.075 3.69182 13 3.48349 13 3.25015C13 2.91682 13.1167 2.64182 13.35 2.42515C13.5833 2.20849 13.8583 2.14182 14.175 2.22515ZM9.825 21.7752C7.575 21.2752 5.70833 20.1252 4.225 18.3252C2.74167 16.5252 2 14.4168 2 12.0002C2 10.4835 2.30433 9.08349 2.913 7.80015C3.521 6.51682 4.35 5.41682 5.4 4.50015H4C3.71667 4.50015 3.47933 4.40415 3.288 4.21215C3.096 4.02082 3 3.78349 3 3.50015C3 3.21682 3.096 2.97915 3.288 2.78715C3.47933 2.59582 3.71667 2.50015 4 2.50015H8C8.28333 2.50015 8.521 2.59582 8.713 2.78715C8.90433 2.97915 9 3.21682 9 3.50015V7.50015C9 7.78349 8.90433 8.02115 8.713 8.21315C8.521 8.40449 8.28333 8.50015 8 8.50015C7.71667 8.50015 7.479 8.40449 7.287 8.21315C7.09567 8.02115 7 7.78349 7 7.50015V5.77515C6.08333 6.50849 5.354 7.41282 4.812 8.48815C4.27067 9.56282 4 10.7335 4 12.0002C4 13.9168 4.58767 15.5875 5.763 17.0122C6.93767 18.4375 8.41667 19.3585 10.2 19.7752C10.4333 19.8252 10.625 19.9418 10.775 20.1252C10.925 20.3085 11 20.5168 11 20.7502C11 21.0835 10.8833 21.3585 10.65 21.5752C10.4167 21.7918 10.1417 21.8585 9.825 21.7752ZM10.575 16.1752C10.4417 16.1752 10.3167 16.1545 10.2 16.1132C10.0833 16.0712 9.975 16.0002 9.875 15.9002L7.05 13.0502C6.86667 12.8668 6.771 12.6375 6.763 12.3622C6.75433 12.0875 6.85 11.8502 7.05 11.6502C7.23333 11.4668 7.46667 11.3752 7.75 11.3752C8.03333 11.3752 8.26667 11.4668 8.45 11.6502L10.575 13.7752L15.55 8.80015C15.75 8.60015 15.9833 8.50415 16.25 8.51215C16.5167 8.52082 16.75 8.62515 16.95 8.82515C17.1333 9.02515 17.2293 9.25848 17.238 9.52515C17.246 9.79182 17.15 10.0252 16.95 10.2252L11.275 15.9002C11.175 16.0002 11.0667 16.0712 10.95 16.1132C10.8333 16.1545 10.7083 16.1752 10.575 16.1752Z" />
</svg>
