<svg width="24" height="24" viewBox="0 0 24 24" fill="none" xmlns="http://www.w3.org/2000/svg">
<path d="M13.9608 11.9524C13.9608 13.0509 13.0829 13.9415 12 13.9415C10.917 13.9415 10.0391 13.0509 10.0391 11.9524C10.0391 10.8538 10.917 9.96325 12 9.96325C13.0829 9.96325 13.9608 10.8538 13.9608 11.9524Z" />
<path fill-rule="evenodd" clip-rule="evenodd" d="M12 4.46715C11.6785 4.1501 11.3582 3.85995 11.0418 3.59904C10.2244 2.92518 9.41231 2.42954 8.65401 2.18069C7.89577 1.93186 7.13839 1.91499 6.49999 2.28888C5.86159 2.66277 5.49731 3.33655 5.33062 4.12708C5.16392 4.91768 5.181 5.87896 5.34762 6.93391C5.41213 7.34238 5.4997 7.76883 5.60964 8.20975C5.17824 8.33363 4.77038 8.46993 4.38941 8.61749C3.40546 8.99859 2.57624 9.46422 1.98464 10.006C1.39308 10.5477 1 11.2046 1 11.9524C1 12.7001 1.39308 13.3571 1.98464 13.8988C2.57624 14.4405 3.40546 14.9061 4.38941 15.2872C4.77039 15.4348 5.17824 15.5711 5.60965 15.695C5.4997 16.1359 5.41213 16.5624 5.34762 16.9708C5.181 18.0258 5.16392 18.9871 5.33062 19.7777C5.49731 20.5682 5.86159 21.242 6.49999 21.6159C7.13839 21.9898 7.89577 21.9729 8.65401 21.7241C9.41231 21.4752 10.2244 20.9796 11.0418 20.3057C11.3582 20.0448 11.6785 19.7547 12 19.4376C12.3215 19.7547 12.6417 20.0448 12.9582 20.3057C13.7755 20.9796 14.5877 21.4752 15.346 21.7241C16.1042 21.9729 16.8616 21.9898 17.5 21.6159C18.1384 21.242 18.5027 20.5682 18.6694 19.7777C18.8361 18.9871 18.819 18.0258 18.6524 16.9708C18.5879 16.5624 18.5003 16.1359 18.3903 15.695C18.8218 15.5711 19.2296 15.4348 19.6106 15.2872C20.5945 14.9061 21.4238 14.4405 22.0154 13.8988C22.6069 13.3571 23 12.7001 23 11.9524C23 11.2046 22.6069 10.5477 22.0154 10.006C21.4238 9.46422 20.5945 8.99859 19.6106 8.61749C19.2296 8.46993 18.8218 8.33363 18.3904 8.20975C18.5003 7.76883 18.5879 7.34239 18.6524 6.93393C18.819 5.87897 18.8361 4.91769 18.6694 4.12709C18.5027 3.33656 18.1384 2.66278 17.5 2.28889C16.8616 1.915 16.1042 1.93187 15.346 2.1807C14.5877 2.42955 13.7755 2.9252 12.9582 3.59905C12.6417 3.85995 12.3215 4.15011 12 4.46715ZM8.35959 3.10388C7.75292 2.90479 7.3006 2.9404 6.97825 3.12918C6.65591 3.31797 6.39935 3.69753 6.26598 4.33003C6.13263 4.96247 6.13629 5.79392 6.2921 6.78042C6.35196 7.15943 6.43365 7.55747 6.53677 7.97108C7.44171 7.7633 8.42802 7.60617 9.4707 7.50837C10.0755 6.64129 10.7028 5.85339 11.3327 5.16229C11.0311 4.8649 10.7321 4.59411 10.4385 4.35201C9.6742 3.72189 8.96619 3.30295 8.35959 3.10388ZM12 5.85952C11.5716 6.33225 11.142 6.85481 10.7188 7.42136C11.1393 7.40193 11.5669 7.39196 12 7.39196C12.4331 7.39196 12.8607 7.40193 13.2812 7.42136C12.858 6.85481 12.4284 6.33225 12 5.85952ZM8.77237 8.56131C8.07709 8.6498 7.41615 8.76593 6.79834 8.90594C6.98772 9.51868 7.21904 10.1574 7.49114 10.8124C7.68482 10.4333 7.89009 10.0527 8.10665 9.67218C8.32321 9.29168 8.54551 8.92104 8.77237 8.56131ZM7.99863 11.9524C8.27977 11.3603 8.59217 10.7597 8.93502 10.1573C9.27787 9.55494 9.63439 8.98021 9.99932 8.43717C10.6454 8.38809 11.3143 8.36226 12 8.36226C12.6857 8.36226 13.3546 8.38809 14.0007 8.43717C14.3656 8.98021 14.7221 9.55493 15.065 10.1573C15.4078 10.7597 15.7202 11.3603 16.0014 11.9524C15.7202 12.5445 15.4078 13.1451 15.065 13.7474C14.7221 14.3498 14.3656 14.9245 14.0007 15.4676C13.3546 15.5166 12.6857 15.5425 12 15.5425C11.3143 15.5425 10.6454 15.5166 9.9993 15.4676C9.63437 14.9245 9.27786 14.3498 8.93502 13.7474C8.59217 13.145 8.27977 12.5445 7.99863 11.9524ZM6.94138 11.9524C6.50353 10.9875 6.14452 10.0425 5.86944 9.14357C5.46477 9.2598 5.08411 9.38704 4.7306 9.52396C3.8105 9.88033 3.09884 10.2928 2.62558 10.7262C2.15228 11.1596 1.95652 11.5748 1.95652 11.9524C1.95652 12.3299 2.15228 12.7451 2.62558 13.1785C3.09884 13.6119 3.8105 14.0244 4.7306 14.3808C5.08411 14.5177 5.46478 14.6449 5.86945 14.7612C6.14453 13.8623 6.50354 12.9173 6.94138 11.9524ZM6.79835 14.9988C6.98773 14.3861 7.21905 13.7474 7.49114 13.0923C7.68482 13.4715 7.89008 13.8521 8.10665 14.2326C8.3232 14.6131 8.5455 14.9837 8.77235 15.3434C8.07708 15.2549 7.41615 15.1388 6.79835 14.9988ZM6.53677 15.9337C6.43366 16.3473 6.35196 16.7453 6.2921 17.1243C6.13629 18.1108 6.13263 18.9423 6.26598 19.5747C6.39935 20.2072 6.65591 20.5868 6.97825 20.7756C7.3006 20.9644 7.75292 21 8.35959 20.8009C8.96619 20.6018 9.6742 20.1829 10.4385 19.5527C10.7321 19.3106 11.0311 19.0399 11.3327 18.7425C10.7028 18.0514 10.0755 17.2635 9.47068 16.3964C8.42801 16.2986 7.44171 16.1414 6.53677 15.9337ZM12.6673 18.7425C12.9689 19.0399 13.2678 19.3106 13.5615 19.5527C14.3258 20.1829 15.0338 20.6018 15.6404 20.8009C16.2471 21 16.6994 20.9643 17.0217 20.7756C17.3441 20.5868 17.6006 20.2072 17.734 19.5747C17.8674 18.9423 17.8637 18.1108 17.7079 17.1243C17.648 16.7453 17.5663 16.3473 17.4632 15.9337C16.5583 16.1414 15.572 16.2986 14.5293 16.3964C13.9245 17.2635 13.2972 18.0514 12.6673 18.7425ZM13.2812 16.4834C12.858 17.0499 12.4284 17.5725 12 18.0452C11.5716 17.5725 11.1419 17.0499 10.7188 16.4834C11.1393 16.5028 11.5669 16.5128 12 16.5128C12.4331 16.5128 12.8607 16.5028 13.2812 16.4834ZM15.2276 15.3434C15.9229 15.2549 16.5838 15.1388 17.2016 14.9988C17.0123 14.3861 16.7809 13.7474 16.5089 13.0923C16.3152 13.4715 16.1099 13.8521 15.8933 14.2326C15.6768 14.6131 15.4545 14.9837 15.2276 15.3434ZM17.0586 11.9524C17.4965 12.9173 17.8555 13.8623 18.1305 14.7612C18.5352 14.6449 18.9159 14.5177 19.2694 14.3808C20.1895 14.0244 20.9012 13.6119 21.3744 13.1785C21.8477 12.7451 22.0435 12.3299 22.0435 11.9524C22.0435 11.5748 21.8477 11.1596 21.3744 10.7262C20.9012 10.2928 20.1895 9.88033 19.2694 9.52396C18.9159 9.38704 18.5352 9.25979 18.1306 9.14357C17.8555 10.0425 17.4965 10.9875 17.0586 11.9524ZM17.4632 7.97108C16.5583 7.7633 15.572 7.60617 14.5293 7.50837C13.9245 6.64129 13.2972 5.85339 12.6673 5.1623C12.9689 4.86491 13.2678 4.59412 13.5615 4.35202C14.3258 3.7219 15.0338 3.30296 15.6404 3.10389C16.2471 2.9048 16.6994 2.94041 17.0217 3.1292C17.3441 3.31798 17.6006 3.69754 17.734 4.33004C17.8674 4.96248 17.8637 5.79393 17.7079 6.78043C17.648 7.15944 17.5663 7.55747 17.4632 7.97108ZM17.2016 8.90594C17.0123 9.51868 16.781 10.1574 16.5089 10.8124C16.3152 10.4333 16.1099 10.0527 15.8933 9.67217C15.6768 9.29167 15.4545 8.92104 15.2276 8.56131C15.9229 8.6498 16.5838 8.76593 17.2016 8.90594Z" />
</svg>
