<svg width="24" height="24" viewBox="0 0 24 24" fill="none" xmlns="http://www.w3.org/2000/svg">
<path d="M15.823 12.995L13.823 10.995H15.548L18.298 5.99502H8.82303L6.82303 3.99502H19.948C20.3314 3.99502 20.6272 4.15752 20.8355 4.48252C21.0439 4.80752 21.048 5.16169 20.848 5.54502L17.298 11.945C17.1147 12.2784 16.8772 12.5367 16.5855 12.72C16.2939 12.9034 16.0397 12.995 15.823 12.995ZM6.99803 21.995C6.44803 21.995 5.9772 21.7992 5.58553 21.4075C5.19386 21.0159 4.99803 20.545 4.99803 19.995C4.99803 19.445 5.19386 18.9742 5.58553 18.5825C5.9772 18.1909 6.44803 17.995 6.99803 17.995C7.54803 17.995 8.01886 18.1909 8.41053 18.5825C8.8022 18.9742 8.99803 19.445 8.99803 19.995C8.99803 20.545 8.8022 21.0159 8.41053 21.4075C8.01886 21.7992 7.54803 21.995 6.99803 21.995ZM19.798 22.595L14.148 16.995H7.59803C6.8647 16.995 6.30636 16.6825 5.92303 16.0575C5.5397 15.4325 5.5147 14.7784 5.84803 14.095L6.89803 11.945L5.09803 7.89502L1.37303 4.17002C1.1897 3.98669 1.1022 3.75752 1.11053 3.48252C1.11886 3.20752 1.2147 2.97835 1.39803 2.79502C1.58136 2.61169 1.8147 2.52002 2.09803 2.52002C2.38136 2.52002 2.6147 2.61169 2.79803 2.79502L21.223 21.22C21.4064 21.4034 21.4939 21.6325 21.4855 21.9075C21.4772 22.1825 21.3814 22.4117 21.198 22.595C21.0147 22.7784 20.7855 22.87 20.5105 22.87C20.2355 22.87 19.998 22.7784 19.798 22.595ZM12.148 14.995L10.148 12.995H8.59803L7.59803 14.995H12.148ZM16.998 21.995C16.448 21.995 15.9772 21.7992 15.5855 21.4075C15.1939 21.0159 14.998 20.545 14.998 19.995C14.998 19.445 15.1939 18.9742 15.5855 18.5825C15.9772 18.1909 16.448 17.995 16.998 17.995C17.548 17.995 18.0189 18.1909 18.4105 18.5825C18.8022 18.9742 18.998 19.445 18.998 19.995C18.998 20.545 18.8022 21.0159 18.4105 21.4075C18.0189 21.7992 17.548 21.995 16.998 21.995Z" />
</svg>
