<svg width="24" height="24" viewBox="0 0 24 24" fill="none" xmlns="http://www.w3.org/2000/svg">
<path d="M12 16.5C13.3833 16.5 14.5627 16.0123 15.538 15.037C16.5127 14.0623 17 12.8833 17 11.5C17 10.1167 16.5127 8.93733 15.538 7.962C14.5627 6.98733 13.3833 6.5 12 6.5C10.6167 6.5 9.43767 6.98733 8.463 7.962C7.48767 8.93733 7 10.1167 7 11.5C7 12.8833 7.48767 14.0623 8.463 15.037C9.43767 16.0123 10.6167 16.5 12 16.5ZM13.65 13.85L11.5 11.7V8.5H12.5V11.3L14.35 13.15L13.65 13.85ZM12 21.5C9.68333 20.9167 7.771 19.5873 6.263 17.512C4.75433 15.4373 4 13.1333 4 10.6V4.5L12 1.5L20 4.5V10.6C20 13.1333 19.246 15.4373 17.738 17.512C16.2293 19.5873 14.3167 20.9167 12 21.5ZM12 19.4C13.7333 18.85 15.1667 17.75 16.3 16.1C17.4333 14.45 18 12.6167 18 10.6V5.875L12 3.625L6 5.875V10.6C6 12.6167 6.56667 14.45 7.7 16.1C8.83333 17.75 10.2667 18.85 12 19.4Z" />
</svg>
