<svg width="24" height="24" viewBox="0 0 24 24" fill="none" xmlns="http://www.w3.org/2000/svg">
<path fill-rule="evenodd" clip-rule="evenodd" d="M4.79345 12.4901C4.52822 12.4901 4.27388 12.3848 4.08635 12.1973C3.89879 12.0097 3.79345 11.7554 3.79345 11.4901V4.23014C3.80507 3.63394 4.04488 3.06488 4.46346 2.64015C4.88765 2.22445 5.45955 1.99426 6.05346 2.00015H9.7954L9.80321 2.00012H13.8032L13.811 2.00015H17.5734C17.8631 1.99676 18.1505 2.05168 18.4185 2.16163C18.6865 2.27159 18.9296 2.43431 19.1334 2.64015C19.5517 3.05697 19.7918 3.61979 19.8035 4.21014V9.51013C19.8035 9.77536 19.6981 10.0297 19.5105 10.2172C19.323 10.4048 19.0687 10.5101 18.8035 10.5101C18.5382 10.5101 18.2839 10.4048 18.0963 10.2172C17.9088 10.0297 17.8035 9.77536 17.8035 9.51013V4.23014C17.798 4.16572 17.7696 4.1054 17.7234 4.06015C17.7167 4.05113 17.709 4.04293 17.7006 4.0357C17.6937 4.02984 17.6863 4.02459 17.6784 4.02005C17.6744 4.01773 17.6703 4.01559 17.6661 4.01364C17.6434 4.00315 17.6184 3.99851 17.5934 4.00015H14.8032V6.27012C14.8037 6.49867 14.7588 6.72503 14.6713 6.93615C14.5838 7.14727 14.4553 7.33895 14.2932 7.50012C14.1253 7.66925 13.9236 7.80114 13.7014 7.88729C13.4791 7.97341 13.2413 8.01187 13.0032 8.00012H10.5432C10.0835 8.00012 9.64238 7.81817 9.31637 7.49401C8.99035 7.16986 8.80587 6.72985 8.80321 6.27012V4.00015H6.00344C5.97548 3.99777 5.94738 4.00195 5.92135 4.01237C5.90529 4.01879 5.89031 4.02748 5.87682 4.0381C5.8684 4.04472 5.86058 4.05209 5.85344 4.06015C5.80217 4.11503 5.77053 4.18536 5.76345 4.26014V11.4901C5.76357 11.7502 5.66234 12.0001 5.48125 12.1869C5.30013 12.3736 5.05343 12.4823 4.79345 12.4901ZM10.8032 4.00012H12.8032V6.00012H10.8032V4.00012Z"/>
<path d="M16.0032 17.4501H11.3032C10.8613 17.4495 10.4309 17.3096 10.0732 17.0501C9.86205 16.9022 9.68181 16.7169 9.54055 16.5047L4.36351 16.1901C4.33721 16.1849 4.31054 16.1822 4.28386 16.1822C4.25695 16.1822 4.23003 16.1848 4.20351 16.1901C4.16161 16.2089 4.12664 16.2404 4.1035 16.2801C4.08962 16.3257 4.08962 16.3745 4.1035 16.4201C4.09432 16.4629 4.09432 16.5073 4.1035 16.5501C4.11599 16.5835 4.13601 16.6135 4.16204 16.6378C4.18807 16.6621 4.21938 16.68 4.25353 16.6901L12.8035 19.9001C13.1274 20.0121 13.4796 20.0121 13.8035 19.9001L20.3535 17.7101C20.6055 17.6266 20.8803 17.6465 21.1175 17.7656C21.3548 17.8847 21.535 18.0932 21.6185 18.3451C21.702 18.5971 21.6821 18.8719 21.563 19.1091C21.4439 19.3464 21.2355 19.5266 20.9835 19.6101L14.4335 21.7901C14.0528 21.9312 13.6496 22.0024 13.2435 22.0001C12.8213 22.012 12.4006 21.9441 12.0035 21.8001L3.48351 18.5901C2.9435 18.3922 2.49981 17.995 2.24352 17.4801C2.06405 17.1209 1.98134 16.7211 2.00353 16.3201C2.03103 15.9186 2.1657 15.5319 2.39351 15.2001C2.61178 14.8623 2.92003 14.5922 3.28353 14.4201C3.64504 14.2381 4.05059 14.1619 4.45351 14.2001L9.40755 14.4936C9.42202 14.4621 9.43725 14.431 9.45321 14.4001C9.58751 14.1379 9.7748 13.9063 10.0032 13.7201C10.2264 13.5405 10.4856 13.4109 10.7632 13.3401L15.6132 12.0001C16.265 11.8253 16.9461 11.7878 17.6132 11.8901L20.5032 12.3802C20.7684 12.4239 21.0054 12.5712 21.162 12.7897C21.3186 13.0082 21.3819 13.2799 21.3382 13.5451C21.2945 13.8104 21.1471 14.0473 20.9286 14.2039C20.7102 14.3605 20.4384 14.4239 20.1732 14.3802L17.2832 13.9001C16.9001 13.835 16.5074 13.8554 16.1332 13.9601L11.2732 15.2701L11.2032 15.3401L11.3032 15.4501H16.0032C16.2684 15.4501 16.5228 15.5555 16.7103 15.743C16.8978 15.9306 17.0032 16.1849 17.0032 16.4501C17.0032 16.7154 16.8978 16.9697 16.7103 17.1573C16.5228 17.3448 16.2684 17.4501 16.0032 17.4501Z"/>
</svg>
