<svg width="24" height="24" viewBox="0 0 24 24" fill="none" xmlns="http://www.w3.org/2000/svg">
<path d="M17.7002 22C16.5956 22 15.7002 21.1046 15.7002 20C15.7002 18.8954 16.5956 18 17.7002 18C18.8048 18 19.7002 18.8954 19.7002 20C19.7002 21.1046 18.8048 22 17.7002 22Z" />
<path d="M9.7002 22C8.59563 22 7.7002 21.1046 7.7002 20C7.7002 18.8954 8.59563 18 9.7002 18C10.8048 18 11.7002 18.8954 11.7002 20C11.7002 21.1046 10.8048 22 9.7002 22Z" />
<path fill-rule="evenodd" clip-rule="evenodd" d="M1 3C1 2.44772 1.44772 2 2 2H4.30673C5.47087 2 6.48094 2.80352 6.74271 3.93785L6.98782 5H19.5788C21.2053 5 22.3987 6.52847 22.0042 8.10634L20.2542 15.1063C19.976 16.2193 18.976 17 17.8288 17H9.69327C8.52913 17 7.51906 16.1965 7.25729 15.0621L4.79393 4.38757C4.74157 4.1607 4.53956 4 4.30673 4H2C1.44772 4 1 3.55228 1 3ZM7.44936 7L9.20607 14.6124C9.25843 14.8393 9.46044 15 9.69327 15H17.8288C18.0583 15 18.2583 14.8439 18.3139 14.6213L20.0639 7.62127C20.1428 7.30569 19.9041 7 19.5788 7H7.44936Z" />
</svg>
