<svg width="24" height="24" viewBox="0 0 24 24" fill="none" xmlns="http://www.w3.org/2000/svg">
<path d="M7 22C6.45 22 5.97917 21.8042 5.5875 21.4125C5.19583 21.0208 5 20.55 5 20C5 19.45 5.19583 18.9792 5.5875 18.5875C5.97917 18.1958 6.45 18 7 18C7.55 18 8.02083 18.1958 8.4125 18.5875C8.80417 18.9792 9 19.45 9 20C9 20.55 8.80417 21.0208 8.4125 21.4125C8.02083 21.8042 7.55 22 7 22ZM17 22C16.45 22 15.9792 21.8042 15.5875 21.4125C15.1958 21.0208 15 20.55 15 20C15 19.45 15.1958 18.9792 15.5875 18.5875C15.9792 18.1958 16.45 18 17 18C17.55 18 18.0208 18.1958 18.4125 18.5875C18.8042 18.9792 19 19.45 19 20C19 20.55 18.8042 21.0208 18.4125 21.4125C18.0208 21.8042 17.55 22 17 22ZM11.3 9.3C11.1167 9.11667 11.025 8.88333 11.025 8.6C11.025 8.31667 11.1167 8.08333 11.3 7.9L12.175 7H9C8.71667 7 8.47917 6.90417 8.2875 6.7125C8.09583 6.52083 8 6.28333 8 6C8 5.71667 8.09583 5.47917 8.2875 5.2875C8.47917 5.09583 8.71667 5 9 5H12.175L11.275 4.1C11.075 3.9 10.9792 3.66667 10.9875 3.4C10.9958 3.13333 11.1 2.9 11.3 2.7C11.5 2.51667 11.7333 2.42083 12 2.4125C12.2667 2.40417 12.5 2.5 12.7 2.7L15.3 5.3C15.4 5.4 15.4708 5.50833 15.5125 5.625C15.5542 5.74167 15.575 5.86667 15.575 6C15.575 6.13333 15.5542 6.25833 15.5125 6.375C15.4708 6.49167 15.4 6.6 15.3 6.7L12.7 9.3C12.5167 9.48333 12.2875 9.57917 12.0125 9.5875C11.7375 9.59583 11.5 9.5 11.3 9.3ZM7 17C6.23333 17 5.65417 16.6708 5.2625 16.0125C4.87083 15.3542 4.86667 14.7 5.25 14.05L6.6 11.6L3 4H2C1.71667 4 1.47917 3.90417 1.2875 3.7125C1.09583 3.52083 1 3.28333 1 3C1 2.71667 1.09583 2.47917 1.2875 2.2875C1.47917 2.09583 1.71667 2 2 2H3.65C3.83333 2 4.00833 2.05 4.175 2.15C4.34167 2.25 4.46667 2.39167 4.55 2.575L8.525 11H15.55L19.15 4.5C19.2333 4.35 19.35 4.22917 19.5 4.1375C19.65 4.04583 19.8167 4 20 4C20.3833 4 20.6708 4.1625 20.8625 4.4875C21.0542 4.8125 21.0583 5.14167 20.875 5.475L17.3 11.95C17.1167 12.2833 16.8708 12.5417 16.5625 12.725C16.2542 12.9083 15.9167 13 15.55 13H8.1L7 15H18C18.2833 15 18.5208 15.0958 18.7125 15.2875C18.9042 15.4792 19 15.7167 19 16C19 16.2833 18.9042 16.5208 18.7125 16.7125C18.5208 16.9042 18.2833 17 18 17H7Z" />
</svg>
