<svg width="24" height="24" viewBox="0 0 24 24" fill="none" xmlns="http://www.w3.org/2000/svg">
<path d="M2 2C1.44772 2 1 2.44772 1 3C1 3.55228 1.44772 4 2 4H4.30673C4.53956 4 4.74157 4.1607 4.79393 4.38757L7.25729 15.0622C7.51906 16.1965 8.52913 17 9.69327 17H17.8288C18.976 17 19.976 16.2193 20.2542 15.1063L22.4701 6.24254C22.6041 5.70674 22.2783 5.16381 21.7425 5.02986C21.2067 4.89591 20.6638 5.22167 20.5299 5.75746L18.3139 14.6213C18.2583 14.8439 18.0583 15 17.8288 15H9.69327C9.46044 15 9.25843 14.8393 9.20607 14.6124L6.74271 3.93785C6.48094 2.80352 5.47087 2 4.30673 2H2Z" />
<path d="M9.7002 22C8.59563 22 7.7002 21.1046 7.7002 20C7.7002 18.8954 8.59563 18 9.7002 18C10.8048 18 11.7002 18.8954 11.7002 20C11.7002 21.1046 10.8048 22 9.7002 22Z" />
<path d="M17.7002 22C16.5956 22 15.7002 21.1046 15.7002 20C15.7002 18.8954 16.5956 18 17.7002 18C18.8048 18 19.7002 18.8954 19.7002 20C19.7002 21.1046 18.8048 22 17.7002 22Z" />
<path d="M10.293 9.68225C9.90252 9.29173 9.90252 8.65856 10.293 8.26804L12.5734 5.98765L10.2929 3.70711C9.90237 3.31658 9.90237 2.68342 10.2929 2.29289C10.6834 1.90237 11.3166 1.90237 11.7071 2.29289L13.9876 4.57344L16.2682 2.29289C16.6587 1.90237 17.2919 1.90237 17.6824 2.29289C18.0729 2.68342 18.0729 3.31658 17.6824 3.70711L15.4019 5.98765L17.6823 8.26804C18.0728 8.65857 18.0728 9.29173 17.6823 9.68226C17.2917 10.0728 16.6586 10.0728 16.268 9.68226L13.9876 7.40186L11.7073 9.68225C11.3167 10.0728 10.6836 10.0728 10.293 9.68225Z" />
</svg>
