<svg width="24" height="24" viewBox="0 0 24 24" fill="none" xmlns="http://www.w3.org/2000/svg">
<path d="M7 22.0002V9.00017L13 3.05017C13.25 2.80017 13.5457 2.65417 13.887 2.61217C14.229 2.57084 14.5583 2.63351 14.875 2.80017C15.1917 2.96684 15.425 3.20017 15.575 3.50017C15.725 3.80017 15.7583 4.10851 15.675 4.42517L14.55 9.00017H21C21.5333 9.00017 22 9.20017 22.4 9.60017C22.8 10.0002 23 10.4668 23 11.0002V13.0002C23 13.1168 22.9833 13.2418 22.95 13.3752C22.9167 13.5085 22.8833 13.6335 22.85 13.7502L19.85 20.8002C19.7 21.1335 19.45 21.4168 19.1 21.6502C18.75 21.8835 18.3833 22.0002 18 22.0002H7ZM9 9.85017V20.0002H18L21 13.0002V11.0002H12L13.35 5.50017L9 9.85017ZM4 22.0002C3.45 22.0002 2.97933 21.8045 2.588 21.4132C2.196 21.0212 2 20.5502 2 20.0002V11.0002C2 10.4502 2.196 9.97917 2.588 9.58717C2.97933 9.19584 3.45 9.00017 4 9.00017H7V11.0002H4V20.0002H7V22.0002H4Z" />
</svg>
