<svg width="24" height="24" viewBox="0 0 24 24" fill="none" xmlns="http://www.w3.org/2000/svg">
<path d="M3 16C2.46667 16 2 15.8 1.6 15.4C1.2 15 1 14.5333 1 14V12C1 11.8833 1.01667 11.7583 1.05 11.625C1.08333 11.4917 1.11667 11.3667 1.15 11.25L4.15 4.2C4.3 3.86667 4.55 3.58333 4.9 3.35C5.25 3.11667 5.61667 3 6 3H17V16L11 21.95C10.75 22.2 10.4543 22.3457 10.113 22.387C9.771 22.429 9.44167 22.3667 9.125 22.2C8.80833 22.0333 8.575 21.8 8.425 21.5C8.275 21.2 8.24167 20.8917 8.325 20.575L9.45 16H3ZM15 15.15V5H6L3 12V14H12L10.65 19.5L15 15.15ZM20 3C20.55 3 21.021 3.19567 21.413 3.587C21.8043 3.979 22 4.45 22 5V14C22 14.55 21.8043 15.0207 21.413 15.412C21.021 15.804 20.55 16 20 16H17V14H20V5H17V3H20Z" />
</svg>
