<svg width="24" height="24" viewBox="0 0 24 24" fill="none" xmlns="http://www.w3.org/2000/svg">
<path d="M19.9442 8.04822C19.9569 8.22588 19.9569 8.40357 19.9569 8.58123C19.9569 14 15.8326 20.2437 8.29444 20.2437C5.97209 20.2437 3.81473 19.5711 2 18.4036C2.32996 18.4417 2.64719 18.4544 2.98985 18.4544C4.90607 18.4544 6.67006 17.8072 8.0787 16.7031C6.27666 16.665 4.7665 15.4848 4.24618 13.8604C4.50001 13.8985 4.7538 13.9239 5.02032 13.9239C5.38833 13.9239 5.75638 13.8731 6.099 13.7843C4.22083 13.4036 2.81215 11.7538 2.81215 9.76143V9.71069C3.35782 10.0153 3.99239 10.2056 4.66493 10.231C3.56087 9.4949 2.83754 8.23857 2.83754 6.81724C2.83754 6.05583 3.04055 5.35786 3.3959 4.74871C5.41369 7.23603 8.4467 8.86037 11.8477 9.03807C11.7843 8.7335 11.7462 8.41627 11.7462 8.099C11.7462 5.84009 13.5736 4 15.8452 4C17.0254 4 18.0914 4.49492 18.8401 5.29442C19.7665 5.11676 20.6548 4.7741 21.4416 4.30457C21.137 5.25637 20.4898 6.05587 19.6396 6.56345C20.4645 6.47466 21.264 6.24618 22 5.92895C21.4417 6.7411 20.7437 7.46443 19.9442 8.04822Z" />
</svg>
