<svg width="24" height="24" viewBox="0 0 24 24" fill="none" xmlns="http://www.w3.org/2000/svg">
<g id="undo">
<path id="Union" d="M8.00005 19.4998C7.71672 19.4998 7.47922 19.404 7.28755 19.2123C7.09588 19.0206 7.00005 18.7831 7.00005 18.4998C7.00005 18.2165 7.09588 17.979 7.28755 17.7873C7.47922 17.5956 7.71672 17.4998 8.00005 17.4998H14.1C15.15 17.4998 16.0625 17.1665 16.8375 16.4998C17.6125 15.8331 18 14.9998 18 13.9998C18 12.9998 17.6125 12.1665 16.8375 11.4998C16.0625 10.8331 15.15 10.4998 14.1 10.4998H7.80005L9.70005 12.3998C9.88338 12.5831 9.97505 12.8165 9.97505 13.0998C9.97505 13.3831 9.88338 13.6165 9.70005 13.7998C9.51672 13.9831 9.28338 14.0748 9.00005 14.0748C8.71672 14.0748 8.48338 13.9831 8.30005 13.7998L4.70005 10.1998C4.60005 10.0998 4.52922 9.99147 4.48755 9.8748C4.44588 9.75814 4.42505 9.63314 4.42505 9.4998C4.42505 9.36647 4.44588 9.24147 4.48755 9.1248C4.52922 9.00814 4.60005 8.8998 4.70005 8.7998L8.30005 5.1998C8.48338 5.01647 8.71672 4.9248 9.00005 4.9248C9.28338 4.9248 9.51672 5.01647 9.70005 5.1998C9.88338 5.38314 9.97505 5.61647 9.97505 5.8998C9.97505 6.18314 9.88338 6.41647 9.70005 6.5998L7.80005 8.4998H14.1C15.7167 8.4998 17.1042 9.0248 18.2625 10.0748C19.4209 11.1248 20 12.4331 20 13.9998C20 15.5665 19.4209 16.8748 18.2625 17.9248C17.1042 18.9748 15.7167 19.4998 14.1 19.4998H8.00005Z" fill="#18181B"/>
</g>
</svg>
