<svg width="24" height="24" viewBox="0 0 24 24" fill="none" xmlns="http://www.w3.org/2000/svg">
<path d="M8.22495 8.3249C8.04162 8.14157 7.94995 7.8999 7.94995 7.5999C7.94995 7.2999 8.04162 7.05824 8.22495 6.8749L11.3 3.7999C11.4 3.6999 11.5083 3.6289 11.625 3.5869C11.7416 3.54557 11.8666 3.5249 12 3.5249C12.1333 3.5249 12.2626 3.54557 12.388 3.5869C12.5126 3.6289 12.6166 3.6999 12.7 3.7999L15.8 6.8999C15.9833 7.08324 16.0706 7.32057 16.062 7.6119C16.054 7.9039 15.9583 8.14157 15.775 8.3249C15.5916 8.50824 15.35 8.5999 15.05 8.5999C14.75 8.5999 14.5083 8.50824 14.325 8.3249L12 5.9999L9.64995 8.3499C9.46662 8.53324 9.22928 8.6209 8.93795 8.6129C8.64595 8.60424 8.40829 8.50824 8.22495 8.3249ZM12 20.5749C11.8666 20.5749 11.7416 20.5499 11.625 20.4999C11.5083 20.4499 11.4 20.3832 11.3 20.2999L8.22495 17.2249C8.04162 17.0416 7.94995 16.7999 7.94995 16.4999C7.94995 16.1999 8.04162 15.9582 8.22495 15.7749C8.40829 15.5916 8.64995 15.4999 8.94995 15.4999C9.24995 15.4999 9.49162 15.5916 9.67495 15.7749L12 18.0999L14.35 15.7499C14.5333 15.5666 14.7706 15.4792 15.062 15.4879C15.354 15.4959 15.5916 15.5916 15.775 15.7749C15.9583 15.9582 16.05 16.1999 16.05 16.4999C16.05 16.7999 15.9583 17.0416 15.775 17.2249L12.7 20.2999C12.6166 20.3832 12.5126 20.4499 12.388 20.4999C12.2626 20.5499 12.1333 20.5749 12 20.5749Z" />
</svg>
