<svg width="24" height="24" viewBox="0 0 24 24" fill="none" xmlns="http://www.w3.org/2000/svg">
<g id="upload">
<path id="Union" d="M6 19.7874C5.45 19.7874 4.97917 19.5916 4.5875 19.1999C4.19583 18.8082 4 18.3374 4 17.7874V15.7874C4 15.5041 4.09583 15.2666 4.2875 15.0749C4.47917 14.8832 4.71667 14.7874 5 14.7874C5.28333 14.7874 5.52083 14.8832 5.7125 15.0749C5.90417 15.2666 6 15.5041 6 15.7874V17.7874H18V15.7874C18 15.5041 18.0958 15.2666 18.2875 15.0749C18.4792 14.8832 18.7167 14.7874 19 14.7874C19.2833 14.7874 19.5208 14.8832 19.7125 15.0749C19.9042 15.2666 20 15.5041 20 15.7874V17.7874C20 18.3374 19.8042 18.8082 19.4125 19.1999C19.0208 19.5916 18.55 19.7874 18 19.7874H6ZM11 7.6374L9.125 9.5124C8.925 9.7124 8.6875 9.80824 8.4125 9.7999C8.1375 9.79157 7.9 9.6874 7.7 9.4874C7.51667 9.2874 7.42083 9.05407 7.4125 8.7874C7.40417 8.52074 7.5 8.2874 7.7 8.0874L11.3 4.4874C11.4 4.3874 11.5083 4.31657 11.625 4.2749C11.7417 4.23324 11.8667 4.2124 12 4.2124C12.1333 4.2124 12.2583 4.23324 12.375 4.2749C12.4917 4.31657 12.6 4.3874 12.7 4.4874L16.3 8.0874C16.5 8.2874 16.5958 8.52074 16.5875 8.7874C16.5792 9.05407 16.4833 9.2874 16.3 9.4874C16.1 9.6874 15.8625 9.79157 15.5875 9.7999C15.3125 9.80824 15.075 9.7124 14.875 9.5124L13 7.6374V14.7874C13 15.0707 12.9042 15.3082 12.7125 15.4999C12.5208 15.6916 12.2833 15.7874 12 15.7874C11.7167 15.7874 11.4792 15.6916 11.2875 15.4999C11.0958 15.3082 11 15.0707 11 14.7874V7.6374Z" fill="#18181B"/>
</g>
</svg>
