<svg width="24" height="24" viewBox="0 0 24 24" fill="none" xmlns="http://www.w3.org/2000/svg">
<path d="M19.3 16.5001L16.1 13.3001C16.2334 13.0168 16.3334 12.7294 16.4 12.4381C16.4667 12.1461 16.5 11.8334 16.5 11.5001C16.5 10.2501 16.0627 9.18743 15.188 8.3121C14.3127 7.43743 13.25 7.0001 12 7.0001C11.6667 7.0001 11.354 7.03343 11.062 7.1001C10.7707 7.16676 10.4834 7.26676 10.2 7.4001L7.65005 4.8501C8.33338 4.56676 9.03338 4.3541 9.75005 4.2121C10.4667 4.07076 11.2167 4.0001 12 4.0001C14.3834 4.0001 16.525 4.6291 18.425 5.8871C20.325 7.14576 21.75 8.78343 22.7001 10.8001C22.75 10.8834 22.7834 10.9874 22.8 11.1121C22.8167 11.2374 22.8251 11.3668 22.8251 11.5001C22.8251 11.6334 22.8127 11.7624 22.788 11.8871C22.7627 12.0124 22.7334 12.1168 22.7001 12.2001C22.3167 13.0501 21.8377 13.8418 21.2631 14.5751C20.6877 15.3084 20.0334 15.9501 19.3 16.5001ZM19.1 21.9001L15.6 18.4501C15.0167 18.6334 14.4294 18.7711 13.838 18.8631C13.246 18.9544 12.6334 19.0001 12 19.0001C9.61672 19.0001 7.47505 18.3711 5.57505 17.1131C3.67505 15.8544 2.25005 14.2168 1.30005 12.2001C1.25005 12.1168 1.21672 12.0124 1.20005 11.8871C1.18338 11.7624 1.17505 11.6334 1.17505 11.5001C1.17505 11.3668 1.18338 11.2418 1.20005 11.1251C1.21672 11.0084 1.25005 10.9084 1.30005 10.8251C1.65005 10.0751 2.06672 9.38343 2.55005 8.7501C3.03338 8.11676 3.56672 7.53343 4.15005 7.0001L2.07505 4.9001C1.89172 4.71676 1.80005 4.48743 1.80005 4.2121C1.80005 3.93743 1.90005 3.7001 2.10005 3.5001C2.28338 3.31676 2.51672 3.2251 2.80005 3.2251C3.08338 3.2251 3.31672 3.31676 3.50005 3.5001L20.5 20.5001C20.6834 20.6834 20.7794 20.9128 20.788 21.1881C20.796 21.4628 20.7001 21.7001 20.5 21.9001C20.3167 22.0834 20.0834 22.1751 19.8 22.1751C19.5167 22.1751 19.2834 22.0834 19.1 21.9001ZM12 16.0001C12.1834 16.0001 12.354 15.9918 12.512 15.9751C12.6707 15.9584 12.8417 15.9251 13.025 15.8751L7.62505 10.4751C7.57505 10.6584 7.54172 10.8294 7.52505 10.9881C7.50838 11.1461 7.50005 11.3168 7.50005 11.5001C7.50005 12.7501 7.93738 13.8128 8.81205 14.6881C9.68738 15.5628 10.75 16.0001 12 16.0001ZM14.65 11.8501L11.65 8.8501C12.6 8.7001 13.375 8.96676 13.975 9.6501C14.575 10.3334 14.8 11.0668 14.65 11.8501Z" />
</svg>
