<svg width="24" height="24" viewBox="0 0 24 24" xmlns="http://www.w3.org/2000/svg">
<path d="M9.74737 2.82392L10.5856 1.98569C11.3667 1.20464 12.633 1.20464 13.414 1.98569L14.2523 2.82394C15.0333 3.60499 15.0333 4.87132 14.2523 5.65236L13.414 6.4906C12.633 7.27165 11.3667 7.27165 10.5856 6.4906L9.74737 5.65235C8.96632 4.8713 8.96632 3.60497 9.74737 2.82392Z" />
<path d="M13.4366 13.8016L17.9191 9.31899C18.1049 9.13328 18.3253 8.98596 18.568 8.88545C18.8106 8.78494 19.0707 8.73321 19.3333 8.73321C19.596 8.73321 19.8561 8.78494 20.0987 8.88545C20.3414 8.98596 20.5618 9.13327 20.7476 9.31899L23 11.5714L12 22.5714L1 11.5714L3.27615 9.29532C3.46177 9.10969 3.68213 8.96243 3.92466 8.86197C4.1672 8.76151 4.42715 8.70982 4.68966 8.70984C4.95218 8.70986 5.21212 8.7616 5.45463 8.86209C5.69715 8.96259 5.91749 9.10988 6.10308 9.29555L10.6093 13.8017C10.7949 13.9874 11.0153 14.1346 11.2579 14.2351C11.5005 14.3356 11.7604 14.3873 12.023 14.3872C12.2855 14.3872 12.5455 14.3355 12.788 14.235C13.0306 14.1345 13.251 13.9872 13.4366 13.8016Z"/>
</svg>
