<svg width="24" height="24" viewBox="0 0 24 24" fill="none" xmlns="http://www.w3.org/2000/svg">
<path d="M12 5.15015L4 8.35015V19.0001H6V13.0001C6 12.4501 6.196 11.9791 6.588 11.5871C6.97933 11.1958 7.45 11.0001 8 11.0001H16C16.55 11.0001 17.021 11.1958 17.413 11.5871C17.8043 11.9791 18 12.4501 18 13.0001V19.0001H20V8.35015L12 5.15015ZM8 21.0001H4C3.45 21.0001 2.97933 20.8045 2.588 20.4131C2.196 20.0211 2 19.5501 2 19.0001V8.35015C2 7.93348 2.11267 7.55848 2.338 7.22515C2.56267 6.89181 2.86667 6.65015 3.25 6.50015L11.25 3.30015C11.4833 3.20015 11.7333 3.15015 12 3.15015C12.2667 3.15015 12.5167 3.20015 12.75 3.30015L20.75 6.50015C21.1333 6.65015 21.4377 6.89181 21.663 7.22515C21.8877 7.55848 22 7.93348 22 8.35015V19.0001C22 19.5501 21.8043 20.0211 21.413 20.4131C21.021 20.8045 20.55 21.0001 20 21.0001H16V13.0001H8V21.0001ZM9 21.0001V19.0001H11V21.0001H9ZM11 18.0001V16.0001H13V18.0001H11ZM13 21.0001V19.0001H15V21.0001H13Z" />
</svg>
