<svg width="24" height="24" viewBox="0 0 24 24" fill="none" xmlns="http://www.w3.org/2000/svg">
<path fill-rule="evenodd" clip-rule="evenodd" d="M10.2578 4.06725C11.0217 2.70447 12.9832 2.70447 13.7471 4.06725L21.5664 18.0171C22.3137 19.3503 21.3501 20.995 19.8218 20.995H4.18308C2.65475 20.995 1.69117 19.3503 2.43846 18.0171L10.2578 4.06725ZM12 8C12.5523 8 13 8.44772 13 9L13 12.5C13 13.0523 12.5523 13.5 12 13.5C11.4477 13.5 11 13.0523 11 12.5L11 9C11 8.44772 11.4477 8 12 8ZM12 15.25C11.3096 15.25 10.75 15.8096 10.75 16.5C10.75 17.1904 11.3096 17.75 12 17.75C12.6904 17.75 13.25 17.1904 13.25 16.5C13.25 15.8096 12.6904 15.25 12 15.25Z" />
</svg>
