<svg width="24" height="24" viewBox="0 0 24 24" fill="none" xmlns="http://www.w3.org/2000/svg">
<path d="M22.5408 6.42033C22.2878 5.46764 21.5423 4.71732 20.5957 4.46269C18.8801 4 12.0005 4 12.0005 4C12.0005 4 5.12093 4 3.40523 4.46269C2.4587 4.71736 1.71322 5.46764 1.4602 6.42033C1.00049 8.14715 1.00049 11.75 1.00049 11.75C1.00049 11.75 1.00049 15.3528 1.4602 17.0797C1.71322 18.0324 2.4587 18.7514 3.40523 19.006C5.12093 19.4687 12.0005 19.4687 12.0005 19.4687C12.0005 19.4687 18.88 19.4687 20.5957 19.006C21.5423 18.7514 22.2878 18.0324 22.5408 17.0797C23.0005 15.3528 23.0005 11.75 23.0005 11.75C23.0005 11.75 23.0005 8.14715 22.5408 6.42033ZM9.75047 15.0211V8.47888L15.5004 11.7501L9.75047 15.0211Z" />
</svg>
