<svg width="21" height="20" viewBox="0 0 21 20" fill="none" xmlns="http://www.w3.org/2000/svg">
<path d="M10.4998 0C13.9132 0 16.69 2.6446 16.69 5.8954C16.69 8.0994 15.4169 10.0274 13.5663 11.0196C17.3265 12.1766 20.1033 15.3172 20.4503 19.229C20.5659 20.2204 18.5988 20.2759 18.5414 19.3392C18.1362 15.4274 14.6073 12.4524 10.4999 12.4524C6.33432 12.4524 2.86365 15.4274 2.45835 19.3392C2.34268 20.2759 0.375566 20.2204 0.491234 19.229C0.896471 15.372 3.67315 12.1766 7.37524 11.0196C5.5238 10.0282 4.25149 8.0992 4.25149 5.8954C4.25149 2.6446 7.08649 0 10.4998 0ZM10.4998 1.87344C8.1283 1.87344 6.21856 3.6914 6.21856 5.89524C6.21856 8.15384 8.12742 9.97264 10.4998 9.97264C12.814 9.97264 14.7227 8.15468 14.7227 5.89524C14.7227 3.69124 12.8139 1.87344 10.4998 1.87344Z" fill="#1D1F22"/>
</svg>
