<svg width="518" height="461" viewBox="0 0 518 461" fill="none" xmlns="http://www.w3.org/2000/svg">
<g filter="url(#filter0_d)">
<path d="M414.382 22.7897C463.082 45.3897 504.082 95.5897 506.382 146.99C508.682 198.39 472.382 250.89 437.482 297.49C402.582 344.19 369.082 384.99 321.882 412.99C274.582 441.09 213.582 456.39 168.282 436.59C122.982 416.69 93.2819 361.49 62.8819 307.49C32.3819 253.49 1.08193 200.49 13.9819 160.09C26.7819 119.69 83.6819 91.8897 130.782 69.0897C177.882 46.1897 215.182 28.2897 262.082 16.7897C309.082 5.28973 365.582 0.189733 414.382 22.7897Z" fill="#F1F2F3"/>
</g>
<defs>
<filter id="filter0_d" x="0" y="0" width="517.486" height="460.55" filterUnits="userSpaceOnUse" color-interpolation-filters="sRGB">
<feFlood flood-opacity="0" result="BackgroundImageFix"/>
<feColorMatrix in="SourceAlpha" type="matrix" values="0 0 0 0 0 0 0 0 0 0 0 0 0 0 0 0 0 0 127 0"/>
<feOffset dy="4"/>
<feGaussianBlur stdDeviation="5.5"/>
<feColorMatrix type="matrix" values="0 0 0 0 0.113725 0 0 0 0 0.121569 0 0 0 0 0.133333 0 0 0 0.1 0"/>
<feBlend mode="normal" in2="BackgroundImageFix" result="effect1_dropShadow"/>
<feBlend mode="normal" in="SourceGraphic" in2="effect1_dropShadow" result="shape"/>
</filter>
</defs>
</svg>
