<svg viewBox="0 0 24 24" fill="none" xmlns="http://www.w3.org/2000/svg">
<path d="M8.29449 18.2945C8.68407 18.6841 9.31569 18.6841 9.70526 18.2945C10.0945 17.9052 10.0949 17.2742 9.70603 16.8845L5.82988 12.9999L20.9999 12.9999C21.5522 12.9999 21.9999 12.5522 21.9999 11.9999C21.9999 11.4476 21.5522 10.9999 20.9999 10.9999L5.82988 10.9999L9.70987 7.11988C10.1016 6.72816 10.1005 6.09272 9.70737 5.70238C9.31623 5.314 8.68464 5.31511 8.29487 5.70488L2.70698 11.2928C2.31646 11.6833 2.31646 12.3165 2.70698 12.707L8.29449 18.2945Z"/>
<path d="M8.29449 18.2945C8.68407 18.6841 9.31569 18.6841 9.70526 18.2945C10.0945 17.9052 10.0949 17.2742 9.70603 16.8845L5.82988 12.9999L20.9999 12.9999C21.5522 12.9999 21.9999 12.5522 21.9999 11.9999C21.9999 11.4476 21.5522 10.9999 20.9999 10.9999L5.82988 10.9999L9.70987 7.11988C10.1016 6.72816 10.1005 6.09272 9.70737 5.70238C9.31623 5.314 8.68464 5.31511 8.29487 5.70488L2.70698 11.2928C2.31646 11.6833 2.31646 12.3165 2.70698 12.707L8.29449 18.2945Z"/>
</svg>
