<svg viewBox="0 0 40 40" fill="none" fill="none" xmlns="http://www.w3.org/2000/svg">
<path fill-rule="evenodd" clip-rule="evenodd" d="M5.00932 36.6663C4.57597 36.6663 4.14262 36.4997 3.82595 36.183C3.32597 35.683 3.1926 34.933 3.49269 34.283L7.22601 26.433C6.04264 24.2663 5.39262 21.833 5.34267 19.3496C5.27594 16.5663 5.95933 13.7997 7.30932 11.3664C8.65932 8.93298 10.6593 6.8997 13.0593 5.48302C15.4593 4.06635 18.1926 3.33301 20.976 3.33301H21.026C23.426 3.33301 25.8427 3.89967 27.9926 4.96636C30.1594 6.033 32.0593 7.61635 33.526 9.54969C34.976 11.483 35.976 13.7497 36.4259 16.1164C36.876 18.483 36.7593 20.9663 36.0927 23.283C35.426 25.5996 34.226 27.783 32.5926 29.5497C30.9593 31.333 28.9094 32.733 26.676 33.5997C24.426 34.4663 21.9593 34.7997 19.576 34.583C17.476 34.383 15.426 33.7497 13.576 32.7497L5.74265 36.483C5.5093 36.5997 5.27594 36.6497 5.026 36.6497L5.00932 36.6663ZM20.976 6.66634C18.7927 6.66634 16.6426 7.24968 14.7593 8.36632C12.8594 9.48301 11.3094 11.083 10.2427 12.9997C9.17598 14.9164 8.64264 17.0997 8.69269 19.283C8.74263 21.4663 9.39266 23.6164 10.5427 25.483C10.8427 25.9663 10.876 26.5663 10.626 27.083L8.54264 31.4663L12.926 29.383C13.4426 29.133 14.0426 29.1663 14.526 29.4663C16.1426 30.4663 17.9926 31.0997 19.876 31.2664C21.7593 31.4497 23.6927 31.183 25.476 30.4997C27.2593 29.8163 28.8593 28.7164 30.1427 27.3164C31.4259 25.9163 32.376 24.1997 32.8926 22.383C33.4093 20.5497 33.5093 18.5997 33.1593 16.733C32.8093 14.8664 32.026 13.083 30.876 11.5663C29.726 10.0497 28.226 8.79967 26.5259 7.96634C24.826 7.11632 22.926 6.71634 21.026 6.68302H20.9927L20.976 6.66634Z"/>
</svg>
