<svg viewBox="0 0 24 24" fill="none" xmlns="http://www.w3.org/2000/svg">
<path d="M11 2C10.4477 2 10 2.44772 10 3C10 3.55228 10.4477 4 11 4H19C19.5523 4 20 4.44772 20 5V19C20 19.5523 19.5523 20 19 20H11C10.4477 20 10 20.4477 10 21C10 21.5523 10.4477 22 11 22H19C20.6569 22 22 20.6569 22 19V5C22 3.34315 20.6569 2 19 2H11Z"/>
<path d="M10.2494 7.29289C10.64 6.90237 11.2731 6.90237 11.6636 7.29289L15.5767 11.2059C15.783 11.4123 15.8804 11.6864 15.8686 11.9566C15.8693 11.971 15.8696 11.9855 15.8696 12C15.8696 12.4027 15.6316 12.7497 15.2886 12.9082L11.6636 16.5332C11.2731 16.9237 10.64 16.9237 10.2494 16.5332C9.85891 16.1427 9.85891 15.5095 10.2494 15.119L12.3684 13H3C2.44772 13 2 12.5523 2 12C2 11.4477 2.44772 11 3 11H12.5423L10.2494 8.70711C9.85891 8.31658 9.85891 7.68342 10.2494 7.29289Z"/>
</svg>
