<svg viewBox="0 0 40 40" fill="none" xmlns="http://www.w3.org/2000/svg">
<path d="M17.7971 1.34583C17.4443 1.56777 17.0981 1.91798 16.4058 2.61841C15.7134 3.31875 15.3671 3.66908 15.1478 4.02596C14.4217 5.20721 14.4217 6.7031 15.1478 7.88435C15.3671 8.24118 15.7132 8.59132 16.4053 9.29148L16.4057 9.29183C17.0981 9.99226 17.4443 10.3425 17.7971 10.5645C18.9648 11.299 20.4436 11.299 21.6112 10.5645C21.9641 10.3425 22.3103 9.99233 23.0026 9.2919C23.695 8.59147 24.0412 8.24125 24.2606 7.88435C24.9867 6.7031 24.9867 5.20721 24.2606 4.02596C24.0412 3.66905 23.695 3.31885 23.0027 2.61843C22.3103 1.918 21.9641 1.56777 21.6112 1.34583C20.4436 0.611289 18.9648 0.61128 17.7971 1.34583Z" />
<path d="M22.3525 23.2588L30.409 15.1087C30.7428 14.771 31.1391 14.5031 31.5752 14.3204C32.0113 14.1376 32.4788 14.0436 32.9508 14.0436C33.4229 14.0436 33.8903 14.1376 34.3264 14.3204C34.7625 14.5031 35.1588 14.771 35.4926 15.1086L39.5409 19.204C39.5166 19.2286 19.7705 39.204 19.7705 39.204L0 19.204C0.0536375 19.1499 2.24251 16.9356 4.09096 15.0656C4.42457 14.7281 4.82064 14.4604 5.25655 14.2777C5.69245 14.0951 6.15966 14.0011 6.63148 14.0011C7.10331 14.0011 7.5705 14.0952 8.00638 14.2779C8.44226 14.4606 8.83828 14.7284 9.17184 15.066L17.2709 23.2591C17.6046 23.5966 18.0007 23.8644 18.4367 24.047C18.8726 24.2297 19.3399 24.3237 19.8118 24.3236C20.2836 24.3236 20.7509 24.2296 21.1868 24.0469C21.6228 23.8641 22.0189 23.5964 22.3525 23.2588Z" />
</svg>