<svg viewBox="0 0 40 40" fill="none" xmlns="http://www.w3.org/2000/svg">
<path d="M28.0511 36.6122C26.3345 36.6122 24.6345 36.1288 23.1845 35.1955L23.1345 35.1622C15.8678 30.2622 9.68447 24.0955 4.78447 16.8288C3.65114 15.0455 3.1678 12.9622 3.38447 10.9288C3.60114 8.89551 4.53447 6.97884 5.98447 5.52884L7.0178 4.49551C8.5678 2.94551 11.3011 2.94551 12.8511 4.49551L17.2011 8.84551C17.5845 9.22884 17.8845 9.67884 18.1011 10.1788C18.3011 10.6788 18.4178 11.2122 18.4178 11.7622C18.4178 12.3122 18.3178 12.8455 18.1011 13.3455C17.9011 13.8455 17.5845 14.2955 17.2011 14.6788C17.0511 14.8288 16.9678 15.0288 16.9678 15.2455C16.9678 15.4622 17.0511 15.6622 17.2011 15.8122L24.1511 22.7622C24.4511 23.0622 24.9678 23.0622 25.2678 22.7622C25.6678 22.3788 26.1011 22.0788 26.6011 21.8622C27.6011 21.4455 28.7511 21.4455 29.7511 21.8622C30.2511 22.0788 30.7011 22.3788 31.0845 22.7622L35.4345 27.1122C35.8178 27.4955 36.1178 27.9455 36.3345 28.4455C36.5345 28.9455 36.6511 29.4788 36.6511 30.0288C36.6511 30.5788 36.5511 31.1122 36.3345 31.6122C36.1178 32.1122 35.8178 32.5622 35.4345 32.9455L34.4178 33.9788C32.9678 35.4288 31.0511 36.3455 29.0011 36.5788C28.6678 36.6122 28.3511 36.6288 28.0178 36.6288L28.0511 36.6122ZM9.93447 6.61217C9.7178 6.61217 9.5178 6.69551 9.3678 6.84551L8.33447 7.87884C7.4178 8.79551 6.83447 10.0122 6.70114 11.2955C6.5678 12.5788 6.8678 13.8955 7.5678 14.9788C12.2178 21.8622 18.0845 27.7288 25.0011 32.3955H25.0178V32.4288C26.0678 33.0788 27.3845 33.3955 28.6678 33.2455C29.9511 33.1122 31.1678 32.5288 32.0845 31.6122L33.1178 30.5788C33.1178 30.5788 33.2511 30.4122 33.2845 30.3122C33.3178 30.2122 33.3511 30.1122 33.3511 30.0122C33.3511 29.9122 33.3345 29.8122 33.2845 29.7122C33.2511 29.6122 33.1845 29.5288 33.1178 29.4622L28.7678 25.1122C28.7678 25.1122 28.6011 24.9788 28.5011 24.9455C28.3178 24.8622 28.0845 24.8622 27.9011 24.9455C27.8011 24.9788 27.7178 25.0455 27.6345 25.1288C26.0845 26.6788 23.3678 26.6788 21.8011 25.1288L14.8511 18.1788C14.0678 17.3955 13.6345 16.3622 13.6345 15.2622C13.6345 14.1622 14.0678 13.1122 14.8511 12.3455C14.9178 12.2788 14.9845 12.1788 15.0178 12.0955C15.0511 11.9955 15.0845 11.8955 15.0845 11.7955C15.0845 11.6955 15.0678 11.5955 15.0178 11.4955C14.9845 11.3955 14.9178 11.3122 14.8511 11.2455L10.5011 6.89551C10.3511 6.74551 10.1511 6.66217 9.93447 6.66217V6.61217Z" />
</svg>
