<svg width="25" height="23" viewBox="0 0 25 23" fill="none" xmlns="http://www.w3.org/2000/svg">
<path d="M10.1509 17.3167C8.77077 17.3167 7.63294 18.4824 7.63294 19.896C7.63294 21.3096 8.77087 22.4753 10.1509 22.4753C11.5309 22.4763 12.6688 21.3106 12.6688 19.8968C12.6688 18.4829 11.5308 17.3165 10.1509 17.3165V17.3167ZM10.1509 20.9135C9.59371 20.9135 9.15764 20.4669 9.15764 19.8961C9.15764 19.3254 9.59371 18.8787 10.1509 18.8787C10.708 18.8787 11.1441 19.3254 11.1441 19.8961C11.1431 20.4426 10.6834 20.9135 10.1509 20.9135Z" fill="white"/>
<path d="M18.4814 17.3165C17.1013 17.3165 15.9635 18.4822 15.9635 19.8958C15.9635 21.3094 17.1014 22.4751 18.4814 22.4751C19.8614 22.4751 20.9993 21.3094 20.9993 19.8958C20.9757 18.483 19.8614 17.3165 18.4814 17.3165ZM18.4814 20.9133C17.9242 20.9133 17.4882 20.4666 17.4882 19.8959C17.4882 19.3252 17.9242 18.8785 18.4814 18.8785C19.0385 18.8785 19.4746 19.3252 19.4746 19.8959C19.4746 20.4424 19.014 20.9133 18.4814 20.9133Z" fill="white"/>
<path d="M14.6653 10.9127C14.5834 10.9127 14.5023 10.8992 14.4239 10.8728C14.416 10.8704 14.4099 10.8688 14.4038 10.8656C14.3149 10.8321 14.2373 10.7858 14.172 10.7251L11.6624 8.53068C11.5299 8.41089 11.4576 8.24957 11.4576 8.07948C11.4576 7.90938 11.5299 7.74806 11.6624 7.62828C11.7932 7.50769 11.9693 7.44061 12.1549 7.44061C12.3406 7.44061 12.5167 7.50689 12.6474 7.62828L13.968 8.73258V1.75523C13.968 1.40304 14.2801 1.11635 14.6653 1.11635C15.0506 1.11635 15.3627 1.40224 15.3627 1.75523V8.73095L16.6833 7.62664C16.8149 7.50605 16.9901 7.43897 17.1758 7.43897C17.3614 7.43897 17.5375 7.50525 17.6682 7.62664C17.7998 7.74643 17.8731 7.90775 17.8731 8.07784C17.8731 8.24794 17.8007 8.40926 17.6682 8.52904L15.1578 10.7234C15.0924 10.7833 15.0157 10.8296 14.9294 10.8632C14.9216 10.8656 14.9138 10.8688 14.905 10.872C14.8257 10.8999 14.7464 10.9127 14.6653 10.9127Z" fill="white"/>
<path fill-rule="evenodd" clip-rule="evenodd" d="M21.1188 3.947C21.8207 3.947 22.4989 4.29388 22.935 4.86461L22.9349 4.86468C23.3956 5.43541 23.5403 6.17957 23.371 6.8753L21.5549 14.5157C21.3127 15.5825 20.3677 16.3267 19.3026 16.3267H9.6412C8.57514 16.3267 7.65573 15.5825 7.38897 14.5157L4.43494 2.45966C4.33847 2.08758 4.02347 1.83952 3.66024 1.83952H1.19052C0.778081 1.83952 0.439453 1.49165 0.439453 1.07015C0.439453 0.647662 0.779049 0.300781 1.19052 0.300781H3.66024C4.7263 0.300781 5.64571 1.04495 5.91247 2.11179L6.37217 3.947H11.6768V5.5101H6.75998L8.86652 14.1667C8.963 14.5388 9.27799 14.7869 9.64122 14.7869H19.3036C19.6669 14.7869 19.9819 14.5388 20.0783 14.1667L21.8945 6.52638L21.8946 6.52656C21.9665 6.2785 21.8946 6.03044 21.7499 5.83277C21.6042 5.63413 21.3621 5.5101 21.1199 5.5101H17.6538V3.947H21.1188Z" fill="white"/>
</svg>
