<svg id="Layer_1" data-name="Layer 1" xmlns="http://www.w3.org/2000/svg" viewBox="0 0 22 19"><defs><style>.cls-1{fill:#1d1f22;}</style></defs><title>heart_fill</title><path class="cls-1" d="M11,19a.93.93,0,0,1-.57-.19l-.49-.38C5.47,15,2.77,12.91,1.2,10.14a7.4,7.4,0,0,1-.91-6A5.91,5.91,0,0,1,3.5.56,6.2,6.2,0,0,1,6.1,0,6.45,6.45,0,0,1,11,2.18,6.45,6.45,0,0,1,15.9,0a6.2,6.2,0,0,1,2.6.56,5.91,5.91,0,0,1,3.21,3.55,7.4,7.4,0,0,1-.91,6c-1.58,2.77-4.28,4.85-8.75,8.3l-.48.37A.93.93,0,0,1,11,19Z" transform="translate(0 0)"/></svg>