<svg width="24" height="30" viewBox="0 0 24 30" fill="none" xmlns="http://www.w3.org/2000/svg">
<path d="M12.0005 0.599609L0.480469 5.61729C0.480469 21.076 2.42249 23.0366 12.0005 29.3996C21.5783 23.0362 23.5205 21.076 23.5205 5.61729L12.0005 0.599609ZM12.0005 7.07961C12.9947 7.07961 13.8005 7.8854 13.8005 8.87961L13.4405 15.3596C13.4405 16.1555 12.7964 16.7996 12.0005 16.7996C11.2045 16.7996 10.5605 16.1555 10.5605 15.3596L10.2005 8.87961C10.2005 7.8854 11.0063 7.07961 12.0005 7.07961ZM12.0005 17.8796C13.193 17.8796 14.1605 18.8471 14.1605 20.0396C14.1605 21.2321 13.193 22.1996 12.0005 22.1996C10.808 22.1996 9.84047 21.2321 9.84047 20.0396C9.84047 18.8471 10.808 17.8796 12.0005 17.8796Z" fill="white"/>
</svg>
