<svg width="30" height="30" viewBox="0 0 30 30" fill="none" xmlns="http://www.w3.org/2000/svg">
<path d="M14.9996 0.599609C7.03225 0.599609 0.599609 7.03225 0.599609 14.9996C0.599609 22.967 7.03225 29.3996 14.9996 29.3996C22.967 29.3996 29.3996 22.967 29.3996 14.9996C29.3996 7.03225 22.967 0.599609 14.9996 0.599609ZM17.2721 22.9996C17.2721 23.7034 16.6646 24.3121 15.9596 24.3121H13.9759C13.2721 24.3121 12.6634 23.7046 12.6634 22.9996V14.6159C12.6634 13.8797 13.2708 13.3034 13.9759 13.3034H15.9596C16.6634 13.3034 17.2721 13.9109 17.2721 14.6159V22.9996ZM14.9671 11.127C13.4946 11.127 12.2796 9.91071 12.2796 8.40697C12.2796 6.90323 13.4959 5.68697 14.9671 5.68697C16.4709 5.68697 17.6871 6.90323 17.6871 8.40697C17.6871 9.91196 16.4721 11.127 14.9671 11.127Z" fill="white"/>
</svg>
