<svg xmlns="http://www.w3.org/2000/svg" width="231" height="221.421"><rect width="100%" height="100%" fill="none"/><g class="currentLayer"><path fill="#1DCF65" d="M215.745 170.619a4 4 0 01-3.985 4.344H18.899a4 4 0 01-3.986-4.33L28.734 3.67A4 4 0 0132.721 0h164.642a4 4 0 013.985 3.656l14.397 166.963z"/><linearGradient id="a" x1=".8" y1=".86" x2=".153" y2=".166"><stop offset="0" stop-color="#52d67a"/><stop offset="1" stop-color="#5aee87"/></linearGradient><path fill="url(#a)" d="M231.14 214.18a5 5 0 01-4.982 5.412H5a4.999 4.999 0 01-4.984-5.395L15.893 14.198a4.999 4.999 0 014.984-4.604h188.742a5 5 0 014.983 4.588L231.14 214.18z"/><g><path fill="#FFF" d="M111.224 156.169c-28.786 0-52.204-28.119-52.204-62.682a3.26 3.26 0 116.52 0c0 30.968 20.494 56.162 45.685 56.162 25.191 0 45.685-25.194 45.685-56.162a3.26 3.26 0 116.52 0c-.001 34.563-23.42 62.682-52.206 62.682z"/><path fill="#FFF" d="M143.358 92.613a3.26 3.26 0 01-2.305-5.565l16.894-16.894a3.256 3.256 0 014.61 0l16.729 16.73a3.26 3.26 0 01-4.61 4.61L160.251 77.07l-14.588 14.588a3.249 3.249 0 01-2.305.955z"/></g></g></svg>
