<svg width="23" height="23" viewBox="0 0 23 23" fill="none" xmlns="http://www.w3.org/2000/svg">
<mask id="path-1-inside-1" fill="white">
<path d="M19.333 6.63371V2.43391C19.333 1.86759 18.8664 1.43359 18.3327 1.43359H5.66642C5.1001 1.43359 4.66611 1.90024 4.66611 2.43391V6.63371C2.66635 8.667 2.53314 8.7005 2.56579 8.86715V20.5005C2.56579 20.834 2.69899 21.1339 2.89922 21.3341C3.09946 21.5344 3.39937 21.6676 3.73282 21.6676H20.1994C20.5328 21.6676 20.8327 21.5344 21.033 21.3341C21.2332 21.1339 21.3664 20.834 21.3664 20.5005V8.86715C21.4334 8.6334 21.3998 8.73309 19.333 6.63371ZM20.7665 20.4671V20.5006L15.3336 15.1003L20.7665 9.66649V20.4671ZM20.6333 8.86715L19.333 10.1339V7.56691L20.6333 8.86715ZM5.66643 2.10039H18.3327C18.5329 2.10039 18.6661 2.26711 18.6661 2.43382V10.8006L14.6331 14.8662L11.9999 17.4666L5.33282 10.7995V2.4336C5.33282 2.26689 5.46706 2.10039 5.66643 2.10039ZM3.26711 20.5331V20.4996V9.66634L8.66657 15.1001L3.26711 20.5331ZM4.66704 7.56673V10.1337L3.40032 8.86698L4.66704 7.56673ZM3.7664 20.9997H3.73289L9.16579 15.5668L11.7653 18.1663C11.8985 18.2995 12.0987 18.2995 12.2319 18.1663L14.8315 15.5668L20.2661 20.9997H20.2326H3.7664Z"/>
</mask>
<path d="M19.333 6.63371V2.43391C19.333 1.86759 18.8664 1.43359 18.3327 1.43359H5.66642C5.1001 1.43359 4.66611 1.90024 4.66611 2.43391V6.63371C2.66635 8.667 2.53314 8.7005 2.56579 8.86715V20.5005C2.56579 20.834 2.69899 21.1339 2.89922 21.3341C3.09946 21.5344 3.39937 21.6676 3.73282 21.6676H20.1994C20.5328 21.6676 20.8327 21.5344 21.033 21.3341C21.2332 21.1339 21.3664 20.834 21.3664 20.5005V8.86715C21.4334 8.6334 21.3998 8.73309 19.333 6.63371ZM20.7665 20.4671V20.5006L15.3336 15.1003L20.7665 9.66649V20.4671ZM20.6333 8.86715L19.333 10.1339V7.56691L20.6333 8.86715ZM5.66643 2.10039H18.3327C18.5329 2.10039 18.6661 2.26711 18.6661 2.43382V10.8006L14.6331 14.8662L11.9999 17.4666L5.33282 10.7995V2.4336C5.33282 2.26689 5.46706 2.10039 5.66643 2.10039ZM3.26711 20.5331V20.4996V9.66634L8.66657 15.1001L3.26711 20.5331ZM4.66704 7.56673V10.1337L3.40032 8.86698L4.66704 7.56673ZM3.7664 20.9997H3.73289L9.16579 15.5668L11.7653 18.1663C11.8985 18.2995 12.0987 18.2995 12.2319 18.1663L14.8315 15.5668L20.2661 20.9997H20.2326H3.7664Z" fill="#A3A5AD"/>
<path d="M19.333 6.63371H18.333V7.04335L18.6204 7.33527L19.333 6.63371ZM4.66611 6.63371L5.37907 7.33492L5.66611 7.04306V6.63371H4.66611ZM2.56579 8.86715H3.56579V8.77012L3.54713 8.6749L2.56579 8.86715ZM2.89922 21.3341L2.19209 22.0412L2.19211 22.0412L2.89922 21.3341ZM21.3664 8.86715L20.4052 8.5915L20.3664 8.7266V8.86715H21.3664ZM20.7665 20.5006L20.0615 21.2098L21.7665 22.9046V20.5006H20.7665ZM15.3336 15.1003L14.6264 14.3932L13.9173 15.1025L14.6286 15.8095L15.3336 15.1003ZM20.7665 9.66649H21.7665V7.252L20.0593 8.95944L20.7665 9.66649ZM20.6333 8.86715L21.3311 9.58343L22.0568 8.87645L21.3404 8.16005L20.6333 8.86715ZM19.333 10.1339H18.333V12.5042L20.0308 10.8502L19.333 10.1339ZM19.333 7.56691L20.0401 6.8598L18.333 5.15269V7.56691H19.333ZM18.6661 10.8006L19.3761 11.5049L19.6661 11.2125V10.8006H18.6661ZM14.6331 14.8662L15.3358 15.5778L15.343 15.5705L14.6331 14.8662ZM11.9999 17.4666L11.2928 18.1738L11.9955 18.8764L12.7026 18.1782L11.9999 17.4666ZM5.33282 10.7995H4.33282V11.2138L4.62572 11.5067L5.33282 10.7995ZM3.26711 20.5331H2.26711V22.9579L3.9764 21.238L3.26711 20.5331ZM3.26711 9.66634L3.97645 8.96148L2.26711 7.24127V9.66634H3.26711ZM8.66657 15.1001L9.37586 15.805L10.0764 15.1002L9.37591 14.3953L8.66657 15.1001ZM4.66704 7.56673H5.66704V5.10721L3.95076 6.86892L4.66704 7.56673ZM4.66704 10.1337L3.95993 10.8408L5.66704 12.5479V10.1337H4.66704ZM3.40032 8.86698L2.68404 8.16917L1.99528 8.87615L2.69321 9.57408L3.40032 8.86698ZM3.73289 20.9997L3.02578 20.2926L1.31867 21.9997H3.73289V20.9997ZM9.16579 15.5668L9.87289 14.8597L9.16579 14.1526L8.45868 14.8597L9.16579 15.5668ZM11.7653 18.1663L11.0582 18.8734L11.7653 18.1663ZM12.2319 18.1663L12.939 18.8735L12.9391 18.8734L12.2319 18.1663ZM14.8315 15.5668L15.5385 14.8596L14.8314 14.1527L14.1244 14.8597L14.8315 15.5668ZM20.2661 20.9997V21.9997H22.6809L20.9731 20.2925L20.2661 20.9997ZM20.333 6.63371V2.43391H18.333V6.63371H20.333ZM20.333 2.43391C20.333 1.29421 19.3973 0.433594 18.3327 0.433594V2.43359L18.333 2.43391H20.333ZM18.3327 0.433594H5.66642V2.43359H18.3327V0.433594ZM5.66642 0.433594C4.52672 0.433594 3.66611 1.36929 3.66611 2.43391H5.66611L5.66642 2.43359V0.433594ZM3.66611 2.43391V6.63371H5.66611V2.43391H3.66611ZM3.95315 5.93251C3.45631 6.43767 3.07567 6.81837 2.78442 7.1081C2.49746 7.39358 2.28569 7.6022 2.14146 7.74858C2.01705 7.87485 1.86967 8.02594 1.76854 8.17668C1.70767 8.26742 1.62659 8.40998 1.58644 8.59906C1.5436 8.80088 1.56632 8.9669 1.58444 9.05941L3.54713 8.6749C3.55709 8.72574 3.57684 8.85426 3.54284 9.01441C3.51154 9.16181 3.45114 9.25853 3.42941 9.29092C3.40656 9.32497 3.41135 9.30936 3.56613 9.15226C3.70109 9.01528 3.89554 8.82386 4.19496 8.52598C4.49011 8.23237 4.87602 7.84639 5.37907 7.33492L3.95315 5.93251ZM1.56579 8.86715V20.5005H3.56579V8.86715H1.56579ZM1.56579 20.5005C1.56579 21.096 1.80214 21.6512 2.19209 22.0412L3.60635 20.6271C3.60327 20.624 3.59221 20.6111 3.58213 20.5866C3.57247 20.5631 3.56579 20.534 3.56579 20.5005H1.56579ZM2.19211 22.0412C2.5821 22.4312 3.1373 22.6676 3.73282 22.6676V20.6676C3.69938 20.6676 3.67018 20.6609 3.64674 20.6512C3.62227 20.6412 3.6094 20.6301 3.60633 20.627L2.19211 22.0412ZM3.73282 22.6676H20.1994V20.6676H3.73282V22.6676ZM20.1994 22.6676C20.7949 22.6676 21.3501 22.4312 21.7401 22.0413L20.3259 20.627C20.3228 20.6301 20.3099 20.6411 20.2855 20.6512C20.262 20.6609 20.2328 20.6676 20.1994 20.6676V22.6676ZM21.7401 22.0413C22.1301 21.6513 22.3664 21.096 22.3664 20.5005H20.3664C20.3664 20.534 20.3597 20.5632 20.3501 20.5866C20.34 20.6111 20.329 20.6239 20.3259 20.627L21.7401 22.0413ZM22.3664 20.5005V8.86715H20.3664V20.5005H22.3664ZM22.3277 9.14281C22.3291 9.13798 22.3718 9.00476 22.3812 8.85151C22.3934 8.65258 22.3536 8.46456 22.2754 8.29544C22.1652 8.05672 21.9708 7.86026 21.8682 7.75426C21.6265 7.50482 21.0296 6.93168 20.0456 5.93216L18.6204 7.33527C19.7032 8.43512 20.1565 8.86183 20.4317 9.14583C20.5873 9.30654 20.518 9.2602 20.4598 9.13414C20.4077 9.02135 20.3756 8.88029 20.3849 8.72885C20.3914 8.62309 20.4205 8.53788 20.4052 8.5915L22.3277 9.14281ZM19.7665 20.4671V20.5006H21.7665V20.4671H19.7665ZM21.4714 19.7914L16.0385 14.391L14.6286 15.8095L20.0615 21.2098L21.4714 19.7914ZM16.0407 15.8073L21.4736 10.3735L20.0593 8.95944L14.6264 14.3932L16.0407 15.8073ZM19.7665 9.66649V20.4671H21.7665V9.66649H19.7665ZM19.9354 8.15087L18.6352 9.41759L20.0308 10.8502L21.3311 9.58343L19.9354 8.15087ZM20.333 10.1339V7.56691H18.333V10.1339H20.333ZM18.6259 8.27402L19.9261 9.57426L21.3404 8.16005L20.0401 6.8598L18.6259 8.27402ZM5.66643 3.10039H18.3327V1.10039H5.66643V3.10039ZM18.3327 3.10039C17.9164 3.10039 17.6661 2.75292 17.6661 2.43382H19.6661C19.6661 1.78131 19.1494 1.10039 18.3327 1.10039V3.10039ZM17.6661 2.43382V10.8006H19.6661V2.43382H17.6661ZM17.9562 10.0964L13.9232 14.162L15.343 15.5705L19.3761 11.5049L17.9562 10.0964ZM13.9304 14.1547L11.2973 16.7551L12.7026 18.1782L15.3358 15.5778L13.9304 14.1547ZM12.707 16.7595L6.03993 10.0924L4.62572 11.5067L11.2928 18.1738L12.707 16.7595ZM6.33282 10.7995V2.4336H4.33282V10.7995H6.33282ZM6.33282 2.4336C6.33282 2.7561 6.08038 3.10039 5.66643 3.10039V1.10039C4.85375 1.10039 4.33282 1.77768 4.33282 2.4336H6.33282ZM4.26711 20.5331V20.4996H2.26711V20.5331H4.26711ZM4.26711 20.4996V9.66634H2.26711V20.4996H4.26711ZM2.55777 10.3712L7.95723 15.805L9.37591 14.3953L3.97645 8.96148L2.55777 10.3712ZM7.95728 14.3952L2.55782 19.8282L3.9764 21.238L9.37586 15.805L7.95728 14.3952ZM3.66704 7.56673V10.1337H5.66704V7.56673H3.66704ZM5.37414 9.42659L4.10743 8.15987L2.69321 9.57408L3.95993 10.8408L5.37414 9.42659ZM4.1166 9.56479L5.38332 8.26454L3.95076 6.86892L2.68404 8.16917L4.1166 9.56479ZM3.7664 19.9997H3.73289V21.9997H3.7664V19.9997ZM4.43999 21.7068L9.87289 16.2739L8.45868 14.8597L3.02578 20.2926L4.43999 21.7068ZM8.45868 16.2739L11.0582 18.8734L12.4724 17.4592L9.87289 14.8597L8.45868 16.2739ZM11.0582 18.8734C11.5819 19.3972 12.4153 19.3972 12.939 18.8735L11.5249 17.4592C11.6402 17.3439 11.8089 17.2662 11.9986 17.2662C12.1883 17.2662 12.3571 17.3439 12.4724 17.4592L11.0582 18.8734ZM12.9391 18.8734L15.5386 16.2739L14.1244 14.8597L11.5248 17.4592L12.9391 18.8734ZM14.1245 16.274L19.5591 21.7069L20.9731 20.2925L15.5385 14.8596L14.1245 16.274ZM20.2661 19.9997H20.2326V21.9997H20.2661V19.9997ZM20.2326 19.9997H3.7664V21.9997H20.2326V19.9997Z" fill="#A3A5AD" mask="url(#path-1-inside-1)"/>
<path d="M7.60001 5.5H16.4" stroke="#A3A5AD" stroke-width="0.4"/>
<path d="M7.60001 7.7002H16.4" stroke="#A3A5AD" stroke-width="0.4"/>
<path d="M7.60001 9.90039H16.4" stroke="#A3A5AD" stroke-width="0.4"/>
</svg>
