<svg width="22" height="13" viewBox="0 0 22 13" fill="none" xmlns="http://www.w3.org/2000/svg">
<path d="M10.9715 12.9C15.1679 12.9 19.1384 10.643 21.8642 6.7065C21.9708 6.55181 21.9708 6.34791 21.8642 6.1944C19.1384 2.2569 15.1682 0 10.9715 0C6.77478 0 2.80458 2.25819 0.0799808 6.1944C-0.0266602 6.34909 -0.0266602 6.55299 0.0799808 6.7065C2.80458 10.6416 6.77478 12.9 10.9715 12.9ZM10.9715 0.899999C14.7779 0.899999 18.3953 2.91915 20.9429 6.45C18.3952 9.981 14.7764 12 10.9715 12C7.16508 12 3.54768 9.98202 1.00128 6.45C3.5466 2.9181 7.16538 0.899999 10.9715 0.899999Z" fill="#BEBFC4"/>
<path d="M10.9712 11.2828C13.6372 11.2828 15.8051 9.11483 15.8051 6.44891C15.8051 3.78407 13.6371 1.61621 10.9712 1.61621C8.30529 1.61621 6.13731 3.78419 6.13731 6.45011C6.13731 9.11495 8.30529 11.2828 10.9712 11.2828ZM10.9712 2.51591C13.1404 2.51591 14.9051 4.28075 14.9051 6.44981C14.9051 8.61779 13.1403 10.3825 10.9712 10.3825C8.80215 10.3825 7.03731 8.61884 7.03731 6.44981C7.03731 4.28066 8.80215 2.51591 10.9712 2.51591Z" fill="#BEBFC4"/>
<path d="M10.9718 9.27327C12.5292 9.27327 13.796 8.00646 13.796 6.44904C13.796 4.89279 12.5292 3.62598 10.9718 3.62598C10.5241 3.62598 10.0917 3.73027 9.68857 3.93534C9.49989 4.03143 9.4038 4.2459 9.45771 4.45098L9.74951 5.55606L8.78624 5.34981C8.55538 5.30059 8.32451 5.43887 8.26007 5.66505C8.18624 5.92403 8.14757 6.18771 8.14757 6.44904C8.14757 8.00646 9.41438 9.27327 10.9718 9.27327H10.9718Z" fill="#BEBFC4"/>
</svg>
