<svg width="9" height="12" viewBox="0 0 9 12" fill="none" xmlns="http://www.w3.org/2000/svg">
<path d="M7.74961 0.00234372L6.06364 0C4.17006 0 2.94572 1.15922 2.94572 2.95308V4.31484H1.25117C1.10492 4.31484 0.986084 4.42453 0.986084 4.55953V6.53245C0.986084 6.66745 1.10491 6.77714 1.25117 6.77714H2.94624V11.7552C2.94624 11.8902 3.06506 11.9999 3.21132 11.9999H5.42288C5.56913 11.9999 5.68796 11.8902 5.68796 11.7552L5.68745 6.77714H7.66944C7.81568 6.77714 7.93452 6.66746 7.93452 6.53245L7.93553 4.55953C7.93553 4.49484 7.9076 4.4325 7.85784 4.38656C7.80807 4.34063 7.74053 4.31484 7.67046 4.31484H5.68744V3.16078C5.68744 2.60578 5.83064 2.32452 6.61369 2.32452L7.74916 2.32406C7.89541 2.32406 8.01424 2.21437 8.01424 2.07936V0.246964C8.01424 0.112432 7.89592 0.00274008 7.74966 0.00227208L7.74961 0.00234372Z" fill="#172ACB"/>
</svg>
