<svg xmlns="http://www.w3.org/2000/svg" width="32" height="32" fill="none" xmlns:v="https://vecta.io/nano"><path d="M0 16C0 7.163 7.163 0 16 0s16 7.163 16 16-7.163 16-16 16S0 24.837 0 16z" fill="#fff"/><path d="M18.75 10.002L17.064 10c-1.894 0-3.118 1.159-3.118 2.953v1.362h-1.695c-.146 0-.265.11-.265.245v1.973c0 .135.119.245.265.245h1.695v4.978c0 .135.119.245.265.245h2.212c.146 0 .265-.11.265-.245v-4.978h1.982c.146 0 .265-.11.265-.245l.001-1.973c0-.065-.028-.127-.078-.173s-.117-.072-.187-.072h-1.983v-1.154c0-.555.143-.836.926-.836h1.136c.146 0 .265-.11.265-.245v-1.832c0-.135-.118-.244-.265-.245h0z" fill="#172acb"/></svg>