<svg xmlns="http://www.w3.org/2000/svg" width="176" height="176" fill="none" xmlns:v="https://vecta.io/nano"><path fill-rule="evenodd" d="M55.1 9.395c-6.086 3.785-12.059 9.757-24.003 21.702l-.002.002C19.151 43.043 13.179 49.014 9.395 55.1c-12.527 20.145-12.527 45.655 0 65.8 3.784 6.085 9.755 12.056 21.695 23.997l.005.005.001.001c11.945 11.945 17.917 17.917 24.004 21.702 20.144 12.527 45.655 12.527 65.8 0 6.086-3.785 12.058-9.757 24.003-21.702h0c11.945-11.945 17.917-17.917 21.702-24.003 12.527-20.145 12.527-45.655 0-65.8-3.785-6.086-9.757-12.059-21.702-24.003S126.986 13.18 120.9 9.395c-20.145-12.527-45.655-12.527-65.8 0zM113 61c6.904 0 12.5-5.596 12.5-12.5S119.904 36 113 36s-12.5 5.596-12.5 12.5S106.096 61 113 61zM75.5 76c0-5.523-4.477-10-10-10h-15v37.5c0 20.711 16.789 37.5 37.5 37.5 2.569 0 5.077-.258 7.5-.75V116H88c-6.904 0-12.5-5.596-12.5-12.5V76zm25 62.866c14.565-5.148 25-19.038 25-35.366V66h-15c-5.523 0-10 4.477-10 10v62.866z" fill="#02c652"/></svg>