<svg width="20" height="19" viewBox="0 0 20 19" fill="none" xmlns="http://www.w3.org/2000/svg">
<path d="M8.7235 14.2295C7.56902 14.2295 6.61719 15.1814 6.61719 16.3358C6.61719 17.4902 7.5691 18.4421 8.7235 18.4421C9.87798 18.4429 10.8298 17.491 10.8298 16.3364C10.8298 15.1818 9.8779 14.2295 8.7235 14.2295Z" fill="white"/>
<path d="M15.6923 14.2295C14.5378 14.2295 13.5859 15.1814 13.5859 16.3358C13.5859 17.4902 14.5379 18.4421 15.6923 18.4421C16.8467 18.4421 17.7986 17.4902 17.7986 16.3358C17.7788 15.1821 16.8467 14.2295 15.6923 14.2295Z" fill="white"/>
<path fill-rule="evenodd" clip-rule="evenodd" d="M17.8986 3.31159C18.4857 3.31159 19.0531 3.59486 19.4178 4.06093C19.8032 4.527 19.9242 5.13477 19.7826 5.70292L18.2633 11.9422C18.0607 12.8135 17.2702 13.4212 16.3793 13.4212H8.29716C7.40537 13.4212 6.63625 12.8135 6.4131 11.9422L3.94196 2.09698C3.86126 1.79313 3.59775 1.59056 3.2939 1.59056H1.2279C0.882882 1.59056 0.599609 1.30648 0.599609 0.962273C0.599609 0.617257 0.883692 0.333984 1.2279 0.333984H3.2939C4.18569 0.333984 4.9548 0.941692 5.17796 1.8129L5.56251 3.31159H17.8986ZM10.8239 11.6998C11.0135 11.8934 11.2695 12 11.5352 12L11.5351 12H11.554C11.8293 12 12.0949 11.8745 12.275 11.6711L16.7324 6.71507C17.1118 6.29925 17.0833 5.6504 16.6754 5.27307C16.268 4.8859 15.6322 4.91502 15.2625 5.3313L11.5066 9.51258L9.70467 7.67355C9.31611 7.27655 8.68074 7.27655 8.29175 7.67355C7.90275 8.0701 7.90275 8.71854 8.29175 9.11554L10.8239 11.6998Z" fill="white"/>
</svg>
