<svg width="132" height="42" viewBox="0 0 132 42" fill="none" xmlns="http://www.w3.org/2000/svg">
<path d="M48.4001 39.9619L55.1048 2.24768H65.581L59.0858 39.9619H48.4001Z" fill="#3C58BF"/>
<path d="M48.4001 39.9619L56.9905 2.24768H65.581L59.0858 39.9619H48.4001Z" fill="#293688"/>
<path d="M97.0092 2.66666C94.914 1.82857 91.5616 0.990479 87.3711 0.990479C76.895 0.990479 69.3521 6.22856 69.3521 13.7714C69.3521 19.4285 74.5902 22.3618 78.7807 24.2476C82.9711 26.1333 84.2283 27.3904 84.2283 29.0666C84.2283 31.5809 80.8759 32.838 77.9426 32.838C73.7521 32.838 71.4474 32.2094 67.8855 30.7428L66.4188 30.1142L64.9521 38.7047C67.4664 39.7523 72.0759 40.7999 76.895 40.7999C87.9997 40.7999 95.333 35.5618 95.333 27.5999C95.333 23.1999 92.6092 19.8476 86.3235 17.1238C82.5521 15.2381 80.2473 14.1904 80.2473 12.3047C80.2473 10.6285 82.1331 8.95236 86.3235 8.95236C89.8854 8.95236 92.3997 9.58093 94.2854 10.419L95.333 10.8381L97.0092 2.66666Z" fill="#3C58BF"/>
<path d="M97.0092 2.66666C94.914 1.82857 91.5616 0.990479 87.3711 0.990479C76.895 0.990479 71.2378 6.22856 71.2378 13.7714C71.2378 19.4285 74.5902 22.3618 78.7807 24.2476C82.9711 26.1333 84.2283 27.3904 84.2283 29.0666C84.2283 31.5809 80.8759 32.838 77.9426 32.838C73.7521 32.838 71.4474 32.2094 67.8855 30.7428L66.4188 30.1142L64.9521 38.7047C67.4664 39.7523 72.0759 40.7999 76.895 40.7999C87.9997 40.7999 95.333 35.5618 95.333 27.5999C95.333 23.1999 92.6092 19.8476 86.3235 17.1238C82.5521 15.2381 80.2473 14.1904 80.2473 12.3047C80.2473 10.6285 82.1331 8.95236 86.3235 8.95236C89.8854 8.95236 92.3997 9.58093 94.2854 10.419L95.333 10.8381L97.0092 2.66666Z" fill="#293688"/>
<path d="M115.028 2.24768C112.514 2.24768 110.628 2.45721 109.581 4.97148L93.8663 39.9619H105.181L107.276 33.6762H120.685L121.942 39.9619H132L123.2 2.24768H115.028ZM110.209 27.3905C110.838 25.5048 114.4 16.2857 114.4 16.2857C114.4 16.2857 115.238 13.981 115.866 12.5143L116.495 16.0762C116.495 16.0762 118.59 25.5048 119.009 27.6H110.209V27.3905Z" fill="#3C58BF"/>
<path d="M117.542 2.24768C115.028 2.24768 113.142 2.45721 112.095 4.97148L93.8663 39.9619H105.181L107.276 33.6762H120.685L121.942 39.9619H132L123.2 2.24768H117.542ZM110.209 27.3905C111.047 25.2952 114.4 16.2857 114.4 16.2857C114.4 16.2857 115.238 13.981 115.866 12.5143L116.495 16.0762C116.495 16.0762 118.59 25.5048 119.009 27.6H110.209V27.3905Z" fill="#293688"/>
<path d="M29.1239 28.6476L28.0762 23.2C26.1905 16.9143 20.1144 9.99999 13.4096 6.64762L22.8382 40.1713H34.1524L51.1238 2.45715H39.8095L29.1239 28.6476Z" fill="#3C58BF"/>
<path d="M29.1239 28.6476L28.0762 23.2C26.1905 16.9143 20.1144 9.99999 13.4096 6.64762L22.8382 40.1713H34.1524L51.1238 2.45715H41.9048L29.1239 28.6476Z" fill="#293688"/>
<path d="M0.000183105 2.24768L1.88589 2.66673C15.2954 5.80958 24.5144 13.7715 28.0763 23.2L24.3049 5.39053C23.6763 2.87625 21.7906 2.24768 19.4858 2.24768H0.000183105Z" fill="#FFBC00"/>
<path d="M0.000183105 2.24768C13.4097 5.39053 24.5144 13.5619 28.0763 22.9905L24.5144 8.11433C23.8858 5.60005 21.7906 4.13339 19.4858 4.13339L0.000183105 2.24768Z" fill="#F7981D"/>
<path d="M0.000183105 2.24768C13.4097 5.39053 24.5144 13.5619 28.0763 22.9905L25.562 14.8191C24.9335 12.3048 24.0954 9.79052 21.162 8.7429L0.000183105 2.24768Z" fill="#ED7C00"/>
<path d="M39.6 27.3904L32.4762 20.2666L29.1238 28.2285L28.2857 22.9904C26.4 16.7048 20.3238 9.79048 13.6191 6.43811L23.0476 39.9618H34.3619L39.6 27.3904Z" fill="#051244"/>
<path d="M59.0851 39.9619L50.0756 30.7429L48.3994 39.9619H59.0851Z" fill="#051244"/>
<path d="M83.1806 26.9714C84.0186 27.8095 84.4377 28.4381 84.2282 29.2762C84.2282 31.7905 80.8758 33.0476 77.9425 33.0476C73.752 33.0476 71.4473 32.419 67.8854 30.9524L66.4187 30.3238L64.952 38.9143C67.4663 39.9619 72.0758 41.0095 76.8949 41.0095C83.5996 41.0095 89.0472 39.1238 92.1901 35.7714L83.1806 26.9714Z" fill="#051244"/>
<path d="M95.3336 39.9618H105.181L107.276 33.6761H120.686L121.943 39.9618H132L128.438 24.6666L115.867 12.5143L116.495 15.8667C116.495 15.8667 118.591 25.2952 119.01 27.3904H110.21C111.048 25.2952 114.4 16.2857 114.4 16.2857C114.4 16.2857 115.238 13.9809 115.867 12.5143" fill="#051244"/>
</svg>
