<svg width="30" height="20" viewBox="0 0 30 20" fill="none" xmlns="http://www.w3.org/2000/svg">
<path fill-rule="evenodd" clip-rule="evenodd" d="M1.15482 0H11.7539C11.0008 0.686683 10.3393 1.4721 9.78991 2.33578H1.15482C0.51652 2.33578 0 1.81341 0 1.16789C0 0.522367 0.51652 0 1.15482 0ZM1.15482 7.88325H8.01626C8.00546 8.08746 8 8.29309 8 8.5C8 9.08421 8.04356 9.65824 8.12762 10.219H1.15482C0.51652 10.219 0 9.69666 0 9.05114C0 8.40561 0.51652 7.88325 1.15482 7.88325ZM1.15482 15.7665H10.5862C11.323 16.6693 12.1943 17.4581 13.1695 18.1023H1.15482C0.51652 18.1023 0 17.5799 0 16.9344C0 16.2889 0.51652 15.7665 1.15482 15.7665ZM26.2342 13.897L29.6348 17.3008L29.6348 17.3006C30.0543 17.7233 30.0543 18.4037 29.6348 18.8026C29.4255 18.9906 29.1689 19.108 28.8896 19.108C28.6102 19.108 28.3536 19.0135 28.1443 18.8026L24.7666 15.3511C23.2762 16.5487 21.4125 17.1823 19.5252 17.1823C17.2433 17.1823 15.0993 16.2901 13.4923 14.6707C11.8854 13.0514 11 10.8919 11 8.59115C11 6.29154 11.8853 4.13099 13.4923 2.51159C15.0992 0.892238 17.2421 0 19.5252 0C21.8072 0 23.9512 0.892191 25.5581 2.51159C28.6101 5.58729 28.8894 10.4692 26.2342 13.897ZM24.0677 13.1688C25.2797 11.9483 25.9549 10.3279 25.9549 8.59115C25.9549 6.85447 25.2788 5.23495 24.0677 4.01352C22.8566 2.79207 21.2486 2.11167 19.5252 2.11167C17.8244 2.11167 16.1938 2.79301 14.9827 4.01352C13.7706 5.23399 13.0954 6.85438 13.0954 8.59115C13.0954 10.3051 13.7715 11.9483 14.9827 13.1688C16.1938 14.3902 17.8244 15.0706 19.5252 15.0706C21.2259 15.0706 22.8565 14.3893 24.0677 13.1688Z" fill="#ffffff"/>
</svg>
